<mxfile host="app.diagrams.net" modified="2023-01-01T04:26:42.084Z" agent="5.0 (Macintosh; Intel Mac OS X 10_14_6) AppleWebKit/537.36 (KHTML, like Gecko) Chrome/108.0.0.0 Safari/537.36" etag="Jdu1KamC-KUk0QzkUs4Z" version="20.7.4" type="github">
  <diagram id="2q9Jxsn-ds0ygmqrDVHK" name="Page-1">
    <mxGraphModel dx="2074" dy="1138" grid="1" gridSize="10" guides="1" tooltips="1" connect="1" arrows="1" fold="1" page="1" pageScale="1" pageWidth="827" pageHeight="1169" math="0" shadow="0">
      <root>
        <mxCell id="0" />
        <mxCell id="1" parent="0" />
        <mxCell id="woVpzeUqnNtOAN9zLcub-1" value="" style="rounded=0;whiteSpace=wrap;html=1;" parent="1" vertex="1">
          <mxGeometry x="50" y="320" width="720" height="300" as="geometry" />
        </mxCell>
        <mxCell id="woVpzeUqnNtOAN9zLcub-3" value="" style="shape=image;html=1;verticalAlign=top;verticalLabelPosition=bottom;labelBackgroundColor=#ffffff;imageAspect=0;aspect=fixed;image=https://cdn4.iconfinder.com/data/icons/ionicons/512/icon-plus-128.png;fontColor=#e9dddd;" parent="1" vertex="1">
          <mxGeometry x="373" y="429.25" width="81.5" height="81.5" as="geometry" />
        </mxCell>
        <mxCell id="i3zignOj5wFVNMkhwqhO-1" value="" style="sketch=0;points=[[0,0,0],[0.25,0,0],[0.5,0,0],[0.75,0,0],[1,0,0],[0,1,0],[0.25,1,0],[0.5,1,0],[0.75,1,0],[1,1,0],[0,0.25,0],[0,0.5,0],[0,0.75,0],[1,0.25,0],[1,0.5,0],[1,0.75,0]];outlineConnect=0;fontColor=#232F3E;gradientColor=#FF4F8B;gradientDirection=north;fillColor=#BC1356;strokeColor=#ffffff;dashed=0;verticalLabelPosition=bottom;verticalAlign=top;align=center;html=1;fontSize=12;fontStyle=0;aspect=fixed;shape=mxgraph.aws4.resourceIcon;resIcon=mxgraph.aws4.sqs;" vertex="1" parent="1">
          <mxGeometry x="190" y="425" width="78" height="78" as="geometry" />
        </mxCell>
        <mxCell id="i3zignOj5wFVNMkhwqhO-6" value="" style="shape=image;verticalLabelPosition=bottom;labelBackgroundColor=default;verticalAlign=top;aspect=fixed;imageAspect=0;image=data:image/png,iVBORw0KGgoAAAANSUhEUgAAAgAAAAIACAYAAAD0eNT6AAABhWlDQ1BJQ0MgcHJvZmlsZQAAKJF9kT1Iw1AUhU9bpSoVQQtKcchQnSyIijhqFYpQIdQKrTqYvPQPmjQkKS6OgmvBwZ/FqoOLs64OroIg+APi6OSk6CIl3pcUWsR44fE+zrvn8N59gL9eZqrZMQ6ommWkEnEhk10Vgq/wIYJu9GNQYqY+J4pJeNbXPXVT3cV4lnffn9Wr5EwG+ATiWaYbFvEG8fSmpXPeJw6zoqQQnxOPGXRB4keuyy6/cS447OeZYSOdmicOEwuFNpbbmBUNlXiKOKqoGuX7My4rnLc4q+Uqa96TvzCU01aWuU5rGAksYgkiBMioooQyLMRo10gxkaLzuIc/4vhFcsnkKoGRYwEVqJAcP/gf/J6tmZ+ccJNCcaDzxbY/RoDgLtCo2fb3sW03ToDAM3CltfyVOjDzSXqtpUWPgL5t4OK6pcl7wOUOMPSkS4bkSAFa/nweeD+jb8oCA7dAz5o7t+Y5Th+ANM0qeQMcHAKjBcpe93h3V/vc/u1pzu8HL7JyjK6effIAAAAGYktHRAD/AP8A/6C9p5MAAAAJcEhZcwAACxMAAAsTAQCanBgAAAAHdElNRQfmARoJFTVg2tXMAAAAGXRFWHRDb21tZW50AENyZWF0ZWQgd2l0aCBHSU1QV4EOFwAAIABJREFUeNrsvWub20bOBFpAN0lJM2Mn7/7/33c+nbMbe3Qh2Q2cD0A3mxqNYzt2dpM08iiei66UhgAKhSpSVUWPHj169OjR4x8V3A9Bjx49evTo0QuAHj169OjRo0cvAHr06NGjR48evQDo0aNHjx49evQCoEePHj169OjRC4AePXr06NGjRy8AevTo0aNHjx69AOjRo0ePHj169AKgR48ePXr06NELgB49evTo0aNHLwB69OjRo0ePHr0A6NGjR48ePXr0AqBHjx49evTo0QuAHj169OjRo0cvAHr06NGjR48evQDo0aNHjx49evQCoEePHj169OjRC4AePXr06NHjHxmxH4IePXp8bajqu78joh92mx49evQCoEePHv8jSf9Lifz3knkvAnr0+N8L0t/7q+7Ro0cvAn7yaaIXAT16/PnROQA9evTo0aPHPzD6CKBHj969/1efW+/+e/ToBUCPHj3x3sXD5Hh/t3T3ePU2Wv//v5pie/Lv0aMXAD169Pj+SgOPSg3dfdUTbY8ePfbROQA9evyVcz/0PUCgR48ePXoB0KPHX7e51y9+/+5t2ut1mL1Hjx4Poo8AevT4ixUDKmJJnUp+p7fXUTXkn+mHP36f2/fo0RGAHj16/Amdv6ruO3+mHc7/RZEdtcuPfD49evToCECPHj1+Vnxjl/0zE3RP/j16/E1PM10JsEeP/2Kn/9XX011X/61J+ks6/fe/a6H+Fn24v96b+yxjh698bABQ+v3r/Kgi5mc+Rtcz6NELgB49/moJ+L984tZvuu77RcB7f8bkOVnx9Vr87x2T+0LgTUHwHWeSP6sA6NGjx9voI4Aef9vE/q3X/V9PQuSDf8XP1+X/4cfkXQRCevLv0aMXAD16/PnJ/69WCJTkXzvnd15q+3P6QgL+E9+U3z32vRDo0aMXAD16/GnFwNdA3T/1ObzXGX9Dl/+j8IC28/8zE/Ofnfzb10h/gGzZC5Yef/XoHIAef9uE/y0f7W85mb87b/8S2e2958LfdhsbA9y1/7rvsB+SBKlgAa0ssD5ozL+eK/Dm9cq3n0ruOQCPipCfUdz8SJ+GXgj06AVAjx7/9eQvuwRmH22q/32LSK7S10PW92z5Nil8CU1QVSixJUG9S0qesGm379/8anc9BVRM1EPVfiQFXGAABAU1pkF2OxMLoqaQIBDXimJ3PO3585cLA1HQ/dZAuYjW+5L729KDsoMelyJlnPFuJ65aURXCg4P3EwqLHj3+qtFHAD3+7mUBHqTNn1tVf0VSqAnszqenfbb0IPmVZr809KQKJb+Un7f3sm/493d0jyxQ+xrw4Lhpm1/rHanqPtm+uf/mCd/dYz1W9PZdI3qA6vzeO9kTco8evQDo8c8LapLMbq5cu2v9qR0cEb3p/L+Y/AGApIHstSY3Jn6UpetrISLvahWAlB6/Qfmp3r+CHGpn779pMwomT+L1WCjuRwP717Tt+m+HztMyEaQgBu3PN4BhX958iRpR3jf6+rEAgXbcCd09l8fvVwdAe/QCoEePv3VlALyXbfQ78z8191kSI1F4N7m8m2hUmu5ZtxZXZevM24SmAEFALXS/pXO7Ke27Za3/Sc2qViwoCFwTvmgZo2y9elvUEPZFlPq4YauzaBuH0CPgZXu+RGw3VPz+MSojnOYwUYNm7L622UZzRPx5/aSir0ePXgD06PGXKAIeZuDv6vQfs+W1QSC+8s5KV107+v1Tut8GIChIbcB/9wx8tn8Hqavdh5DsyYJUigCxhA1AtHT/VhjQ7rVRLXy2Gf/98xQA/NCcaEMXSjgTgAJUv9CJ66NxRHNUmpkAtUXEjiPwfvL/kkJijx69AOjR4y8Sds5+3HW/1+m/lwDoh5z/Ce1I4u3jif9WvCvXO2hC3yTTtqvHDh2wn0qF+rdnIDCOgHXG9hgMAhM1ugLWJ+daHFDt+QUKJgKB7XWw7OuU5rgryX1ZsrsuETVEQW/f/fEebj08YEGS0u4N3VMc9tAD0fcVeT169AKgR4+/bDGg73T69JUIwDeu5xG97fobbXxqf0Zt2tZm4H3Xst6v99XaYN/9KwhCZXq/Ee0UagT89klQgzp4KVDQdSUrDN68DgIEUnkH91Q+Zf/+7oby5qjrtoJQng4R9K7Y2ZEKv0deWN92/o+KgT2hEV/5efkSgtRHCz16AdCjx38lCgnwcfLXh0nh9zv4r33sfVeK0uU+ErnRDWagRw9H72QzVV/n49pda1MnKIyEpyhzfK1LgAqxEYWPKkgVKgAx+3W5dv3SkAGJ9sQ6+JjDnpZdn9A+xU2pUJpiR+GP6fgEtauI2K8OVoLjF2qzL72Pj38nD8cyv4/0f4tIEX11Udp5CD16AdCjx59TGryTXf9owfEITfhGZTl6P40oHm/ulVm3Nsm1QPihlgWlCBAAAkY2/kApAgqTTgwFIGIoMQBGUCrtuSUtL27I0QJLZDYOUOa6m89aCggjE7avjfw+9004PTyWpL+fmN+MVBqOwdtjqj9opPMjEakePXoB0KPHn5L/f1zHRb+DItwVAT/oYff0OdmVCVzn7JbsyS8bCL+CdPVCwDrx2mGXTp6CM/MD2hU98Xm7bTjwVixUMkLB0dm2CMqq4r1+gP+cHiTGb31r9snUH788Lt1xDn5n3fBrH+97Pz898ffoBUCPHn92zr+3uP1DqMF7Pfp95NqNqsrW8X7h0ZUe3B/RWwSgnfuXtUMUpUP18foKpewFQQaQQJKhWAC9+fqgqQZatgYgUgsA0ABwAHgrBFjZvgcDCH7KCF52+MULigwGhP3QKaQqMBatgrevsU2wVZDwoQRye8ykKYY2eWSBVO2A9h641gnfX411s6IevQDo0eOvWhDoXTHwAwx/3iQqRYXY8Z1mPvfLcg/vRS2Zinr3z+pCQBnQ7Fz+FZAElQTCFaQ3QBNUMiQlSEqACGTNvr8fQWEAxwEhjiAeoRQAJpBEgOJWJCAYYoDoz9gKAUIRAmq2H3avpZQs71kYviUS0jv111vBH6pIg94dO5NMoD88g/9Wk6je/ffoBUCPHv/NxN920Uo2K9dtke7bu//HJ/aqm09l3qy/e3/6IMV/ASvw5y5O4hMwBKoZyAJQBmkGYQU0A7IAeQVkheoZ0CtUVsi6Yl1mpHmG5Iw0r5a8OSDECcM4IY4T4nQCxdGg/xABGr0IGKA8ADSAeABRhIIhKMqFbGsBVMiF2ztATSFG+/78DvW4E0Z6WMm9UUHw5L8fwdC7ZcS9MdL34UTfix50RKFHLwB6/K3izzmpPequCwPfk442qnclBSl5YvIE7QkK7zjnke4TBz1QtDOCnOy6ym1zj6pSnj0HrrfZOfMpuVyvza/VZ9Z1Ec6TPTSDSMAMqAi0QPxIgNiMnyQBugJ5tku6QdcZkAskX5DXBet8Q1puSPMN67oiLStEdFcADIcjxuMJPB0xDBM4TiAeAJ6AMAE8geIRoAmKCEGEUgAXdKAZFdTOXKTp8h0D0GIEZPyBKitYPQB8A0Gl/tjElu63ErQxfnKVwVqOsNMd1HkOezJo1Y7Y6SjrG9XD+89bWz4+Mpr6GrShFwE9egHQoxcG310AfKFTb41xaJtFkz5GB+5axoZjp29k62n/AE0P6kiAz7MJhf2+mebY17QjrhlXQB0+34x91Nn6pA7pI1syFO/8dQF0BekNlJN3/TM03YB0hS4XpPmMNH/GMn9GWm7Iy4K0zlYErCtSTpAsUDCYA8IwYTwcMRxPiNMR0+GEcbSvw/hsiT8eoXoC4QjiEYFHLwQGLwIioNFRAUYRHLYVPy7fNW+UcyeU9+Q9X1dEQ/Qn51doKY78PtrCQDX5fXBFBLQMKGoh+B5O9DV7/fRNiFGPHv+zCGm3A+7xs5P/l7qg7ykAyp67nav3qnfVeAZ7a2DSOyvbB5CsNn1d2Ue/1/PfG+C01YY2xUlV5QEr382ldbcFZ518SfxiF1WwFwWsAkIyFr+uIE2AZIP2ZQHkClmv0GQdf16ukOUMpCtkuWKdX7HcfkO6fUZOCyStkLwaDyCvEBG7KEGJwMGKgDCeEMYDxumAYXrCMD1hnF5Awwk0nBDGJ4TpCYhHcJiAMAJxgvII4gNAhgzAxwN22Ni5Awxo8P7clQqoaCLeW/lawt8SPZCbZM/YDJG2AgBVcMg0BQpZ0XULiHceB2+LS6lMwq/53G7X4f4H36MXAD163BcA7580v7Vg0GpY0550Ve92valNDPdd2rbKp0JNYqYt4fCbiuId1sA2tSYyVz5VBmlhtXuKKrvxKg71F30+n+mTFxGUAWTrfJEQNPsK3wLkGyArkFYgLdB8RU6vWOcz8u2MdCtffwbWGzRdkdcLZL2A5QYVIwkaidA2AsSPT4ZCFLbixwGgEcrW0fMwguMBPJzA8YQwvSBOzxiOLwjTC8bpBB6P0HgEDUcwHwEejS9AA8T1BUARSoN9rRFQRuRSAPh6YSkIHJqv74+jIcqAMDViR1txwLUw3FYcicjIjBI3fmFFIugdZOltV/97hUCH8nv8FaOPAHr8zxcLX/rd45+/da2rDnTVw36PAmhjo0fVilewd6J/9/RfCXqVhPbQfMDvUxOUcuNVBxBl5xMkkPpFFoP5xZK/piuw3oDlirxekdMVaX3Fcv2EdP2M9faKfDtDlldQmkG6QPMNpAtYbT2QyMcKLCAmKwaCsfdFi7IgIwlBkhP81ghxDoCGA+LwAp6eEKdnxOkFaXpGPDyBDi+g8YRheAKHAygcQWFC4AHiBELwAMJkpEUKUPFkXNcNw65bB+nGqagqj6VQMw6FkvoCATccgGaYoLTXJVCg5+sePXoB0OO/lNC//7b3iX2D6bcGr1DNxefurVBOI9vbFAF0py+rUGTdbHCp6fL2KEVrlcsoWgDq5LaigGPdf4YiAZS8c1VA/WsREK014ZOsVgCkKzRdkNdXS/DzGbi+Yp1fsS5nyHJGWs7IyytkuYLyDM4LIlYEsq0AKygygjsAEtnYoSAAtiInJt3LlkgDCELRX3mAYgB0hOQRImfkdUK6HIFwBA8HxPEEOhgicDi8YJheMEzPCOMTKB6MRBgOID6AeK0IgRECfWtAAgTBuQPRfqa8WQf7e1Slj6WRNsaG2FBrH6wK0SJg1KgF1nEAAVVYqSWAfM9nV77jNn1s0KMXAD3+hvHINvfHFRZN8qUHq1y06csXOLnC/nUgf5/I95P6kvSpYeSr2sZ72WmrHn5OViuuduqiNFwSjFriZySoX0gzVFawz/hVZqjcrNt3Ml9ezpDlM9b5M5bbZ+TbK3D9ZOS+9QxZrtB8AeUZlBdEJEQSDCyIZBLAZcugcuM1b2JClAHRbc6uaoRAlwYmBIfwrQgQHbDKFTmNSBohGAEesIQJiE/g8Rn58ILx+BHj8QOGwzPCeAINB/BgJELlAygcgDgBiCAXIFIUbYFgaAgNhlKgIU+W0YoGEzTSRjeYqfFk8NuJ71Ps1hJbA8N9EVk/t40XQvnMPfr6ZxXNfaTQ4085R3cOQI//BgrwaC/66+8z48vMa2k4ALjjDKCe8G2uHB7el9L2PO0CT5K6c9qjMm7W7B2gOB+trKW5CQ/5ih7sorLann66QmWBpBtyPiMvF+TlDKwG86+3T8jLZ6T5jJwuoOUCXq6A3ACZHS2YEbCC8oqAjAhBIEFgqaI7GwQu2IiUZezgBESYyh4VOWCH4qVI/SJCEZAxIGNE1hEZAxQBohEZEzgeMQwnhOEEHp4QxhN4PCAenjAcPiBOz6DwBB6OCOPJeANhBAVfM+TReAMYnS9gIkRa3ictwkPFmdBWLIm2Qq4o/5UEb5MCeoMgtZ+9ukZI7M6IuXI+7j+rjwiEG5LwxxGAvh7YoxcAPXoB8I33uY3dZcsAdy4wFRUQ3Yz2Hszsy/Mjorqmt4n8CLZpuacJFZCPHIwLIKbIJ0bqAxZAZ4P48wxJCyQvoPUCSVek5RWLd/npZgVAWs/It1focobmG0RuBu+nBZEyQkgYOCNQBqvJ/pIKINlgfxJvnL2DLwqFJF4UiaMDBSUwVUEoV5dAS47FaTBAyUSBlEYoRmQdkCVANCCpkQeJJygNUESD+ocJ8fCE8fiC4fCCMDwjTifE8QkYn8HxgDAe64ohXGMANEFpsuSvDCVDCVStGCBmMILxB8rrfMC92BJ8eW+BnZYDdO9uSGUp83EBwMVBkeinFAA9evxZ0UcAPf4WBcXb68jW8bUncGrXu94Ra1EFcemZPRE41KxkEDp5AtXqcOeCNeosfvhevszbJd8g2db20nxDTrayp+sF63LGOn8yFv98AdINyDMozWCZAZ2hsoBlQdSMSIKgikEzAgmYsm8hwJJ4eU6V518yX5v8nRDYoBuWQF1rwNNT0fErx0HdEVCgCJohZAXAgADRBOQFSgFZTTJY8wDk35DWI+RyAOIJcTghjEeE6SN4OGA4PGMYn0DjM2h4AsITEI4gPoJ4gGoEcSk+IqhKEYvzAgiqDAjtVwnrCEf2yd/Jhfu1zuJ4+FYL4JEQ1Nuu/ds/s73R79ELgB49fkDy303xS9dHDqdyIz7jSZsfnH33OkDiibFx11M1Mp9D/uT6AagJNDvU77P8dAbSBSpX6HLGupyRbmcsV1/RWz5D0gVpvSIvhgYgzaC0GNhO2ZI7FjP1wWrJH2JywCKVUMjN6ltJU1oQCy2sBkNHykjdEnz5fhPOFdkIk2UEAhfgUTFCJUMgOiAgQF0NUJGhWK1Tp2AOBUKQ2bYKVkQIT1jjhBAPiNMLOB6Rpyfk6QPC4QPC+AIaP4DiE2h4AcWj8QTCBMQDiEfzJVD3KHAUwGo0NgdDsrk/exEQquiSGwYVkSUvCM1OuST/ot3w/irqlvRbU6Pv+0x3uL9HLwB69HjTHdFXJH5PYSXRa9mud6VZokYJcAvxbpbvrIIVLiWsDqNX3YENMmd12NwLAVWB5mw7+7JC9AbNF+Rk5D1ZP0FXW89L8xnpdkG6GRqAdDF4P9s8n3UFy4IAQaSMSAqmZBr/lICQQDmDneDHpGBVMKmr3JFJ6NImbgQt3S5tyb+OSKqAckUMCohgqdDU86gQHOtGgwHkTLR1zOz0SWWIZh8bGHaQFaDkcs00AGmA8IR0+wQKE1I4YB6fEKaPoPED4vQLwvSCMP4CHk8IwxE8nEDDETlOAEcQD2A2EqIi+jZBcD0Bck0D8uLAX6/eK/5tsr5aNAvLSgF9BdrU2kPr98H5vQjo0QuAHj0edOKPfnOvwl4FYbXZ/Sa2Dv3Odrac+9V39q1o8LU4uNlO6eQl+SzfU5nv6YPEdfdt7p6Twd5puYDSFSlfIemCdf4N6+03pPk3aHqFrBfIeoasM2Q1LgDrDMiKoKsldIh1/lwsdsTU/zSB2bp+cLaOn2iTwNUtiakSsmpjxEMb4Z3RdPZb2tv48cFyedmi0E3G2AoBZ+IDYPLVSiUnOQJSbX3J3Aq9CGEX+xEwRBeIMCAjgCsEEUIR6XoAxX8DwwvC+II4fUSYPiBMz4jjCcP0DJpOkPEJFAaEcIDGAyiYRwHzBOWIQLZGqOyWxqU9b/0GWismKkscBFVXKqxEyH1nb7VBOy6i9z+xJK5T4J9J/VIh0cWEe/wXzrOdBNjjZ0Zl29Njkh3uVvK+VAqon6il+Z53Nr9ldUur6p4pwVqXRw79lnm9kd6smyYIgq6VRGdwv3X45Op8KJr8xWkvGZs/LTek2wUyW6e/zq/IywVp+Yw8f4akMyDG3Jd8cwnfDMaKQZN38sVU1xAGVuvuCYYwwEcODAA5+3ri5iFgkgaMpsapx7k1KAJJTf7U4CGljCrHpxZCLdJCvrPfEOak/s5WBtv+WhtTH0HR5udKKswIyBiNXKgE9ZVC2wY4goYnUDyBhifweMR4NAEiBOMPxPEIHk/g6Rk0PkH5YIVAPBgqQGHTEijdOYX6eYAXJhCFiCs4UrE+5q2716IhwA3qRM3mADWoijTSzxsatRVYdOeFcP9pp/+BQuBeF6FHRwB69Pg5JSj2KWvfFb13kixYwL3d7Lb/tc25Cb7S5ZmwQPoEsULAnfagKyAJyMkkeXUBZIWUPX1n8CNfIekGXW7I6w3L9Yrldka+ffI5v+nwS75A1ws0X8FYwLqAyBJ+YAVTRqRUltoMyq/AeSPZazp9tYsv+grbkduyuYkdMtg73ZLQRQWk7MdEq98dNcqF7cKgEnvnviEqWnfsN4OdumYnCtXVvqdNP6HI7nIpPlR9rdD9AjlbAaMEFYFgheQZkq/I6yuER2iYQMMR6/UIGk7g4Rkcj2ZQNL0gHj8gHp7B0wcgHoDR/AmMNBhccCh4Yjd/gu2YmZJgQQFEs788rjoQiuDf7/UiiOjuc7d9RxVZuWcSuMER7tcSH5ENe/ToBUCPvzdG8DDd6wMEYEt3rRnQnZNbteeVKm5jyT2biI80HgGsEGQQfN4vyTr7nADcoHqD5KUK9OT1DE1n5Nng/DxfkOezW+y6Kc+6QJKx/0kWQxVgWwBcun0WsKjN8Vk8HVGVEqaGb2B1y7aSpo36YBEgKoKG6smYiq+g3h0m2syKijaCAhVNKMd7k0WmZrGNNvdihL19rng/LeV5l718hXKoyoyqgGw8TCMS0mLFAQcokY8vAkRXJJmhK0PSAMojcrJigOMzECYs8QAenxAPRZr4A3g4IRyeEKeTmRqF0SWMj04eHAC1LYJiElQUBjk0lkIVAeFNKIrk8Zz/3lmwcXhspKIefO7L+0B/ishQjx69AOjx30nzX/RHF1+v259cDUKW+ztquqr95LR1jVMn8BW4n5EtEXH2pKmOAqxmsKOLdf+pJPALJJ8h+QZJV+T1jHT7Dev8Gfn2nyrBq8sFmmYX9sk2q9cM1mwkviBgTQCZJK/6rj4h165/0xdQJyCafx7vGk4nOiJUsVu7HW0Og3Vur56MHaK2+UJ9jL3JTdiOdZE+dhMjKWMTfw6qao6BZc7PDosHIHhBVYoUW0ekWpi0jyvVxdGeIxdYnM25L4ihDayEQGxKhBpBKSLnAUivyBQhNCCFCetwgsYTwvRkGgPHZ0yHZwyHJ4zjATqcoKOhBhSP5lzo64TgwZGR0NgLCwgMVvdKqFwJL3zq51R9pFEQKK6KkVYpNURD1TufQ9cfqF/LOxUFvymPe3nQoxcAPf5GQbuvle7BUd0VBXRvxdt8rVQY+9k5AArSDKLk182+x+8kPlpddveKnGbocrM9/eXVZvirwf2SXpFun7DOv0F9dU/XV1A2Eh+h7OMbIz8yoSjbm9FPMhSCvACoisVa04IZCmnzGoswzYZ9lLRR7Yppd6AewtG1r61FlvoYoSgcVoigOc5uo0vbypv4XYuTK4vxDjkaEJjquyWq1dq4pDep3g3k3T9VNz9y0x442VBBmJhtXECODoBNcCifwW43LDIgpwmZRuTrEYgHhPMT1umE8Wj/YnwBDh/NvOjwARyOoGCOhRyOAEe7IIDJFA9tTt9eonsn6PYzJ5qqUlMQoNlEeSsORFWFke/eq7ti2Ucojx0o6U/4e+xlRi8AevT4U5L/Bi+3aV3vTpz1N0R3xUFZacs1+cMZ9ZbsVhPiUVfmSwbJq8zQvAnyyHJGul1Ndvf2GWl2e910sz3+9QzJZ7DMYLmB9QZGMuIeeQHAlvzZZ/es4tB+IRZuGvNUWPy0zdWtq/YkUmBhsU6ba39qyZQ8wdCd0FFwZ7wtKfkIBKjJuugjGRmQqzuiaiuDvCUboo1wWNkCuiE0tfOF+D6+mwvB/s1a9yx8NZOrMFFZU/StRFB9bYQYAsidE7PawIZcflgpIktAQgQ0Ii0RSiNymLAOByznI4bxCBqfgcMvGE4fMR0+IowfwPEZIRzAwxMQRlAc7F8OYIqmYlhXC93J0L0KyrphkSdWKrD/hnJsRMAtqdd1Sz8S2q4avp10OZFSH/zFhD+xIO/RC4AePb4qWv39Fva/l+OlHbxZTzp+NaGtB6kouK/qKcQg5NKB+szc+sPsQjQJjLWiACoLSK6QvADrAk1XyHJBTmek5RW6viLdXk2UZ74gz1fI/ApZr8irGfMQFrDOiLqAdDVSH5LN8UlBRY0PGSSlR7TEW/njpNsaXsl2ym+awELA03bdoVlJ03fokdyw+5m4jjpUxR+LqkdBDbkHl33u7eJGGwKhtRCos36Qof5snbw07zcRdquJhUjIVWDHxxVlztGQGuGiQ9vDmsMiS7FnTjUBMzEI0SSBhZE1VudCzSPSMkLiEbj+G+nygjR9QBx/RRxfEMIRMj2bV8Fg5kQUR1CcrBgIRxBHVxiMIB4hMLSgFAjOuvTPLHuR0IxlmrdQStEFmIhTUaV8kHC13IPSd8tmU+N/ULgGb6/TpYh7AdCjxw8rAN7r4e+vV+DRsLuleOdTusdQeQDi5i8O7TOclKW14wcySM1K1wx3bE9fxWb4st6g6xX5dka6fUZaPyHdfkNa3WVveQXWG3SdEeRqu/lqhUTw5M5IABvkb913GTPY8yh6/FpX83Rb7bp3Mayvc3MsNBU6aeCQfZFUrG+3kzttu+m7k7xW8Rsq90MtvMs+DmC083lqNgfs9TH2okFiz88JhdS68bXa+FutY/I6TBt3AZtcb3BygjazcSooQdHpx/5foHAoAoCAAYLAAQNHJBJkFSgSRGcgBWh+RZ4/QW4nZH4CD/8v4vgBIZ6QpidbKZzKWuERYToAwzMwnEBhMslhGgCdQOSyxDRAeQBhMAJhHRVIfT+lvi/cFHJevFKlGD4cBOibMc6P/vvs0aMXAD1+JpD4jh3wW3GeBshv9qkLex9UpHi9AKDViXQujINkSV9WM9zJV1PXW2/IaTGIf31Fnq/G3L+9Is2fkJbPkPUz8voKXc+gdEWQFSwrGDdjqJMiOPxtWvsZHNQRCeySI5Wzvu/RV3Z3FZ8pKAdvKP9mJ1RX8VTbhI/tfnzIH1ozopYwoRUigDZ7A9f7AAAgAElEQVRQPaid6TrrXWmfk+7Fbqpi4LZVgSqtXHKJuFKi7u8bew5cqBgIVySCq7eA3Y7r8/Td/KLX78Vf0fHZ6gw7vsEPaSCCkmknZFWIJmTnGyAzSK8mxIRPkPAbJD4hhCN0OCLEA9bxgDCdECYrAjA8IxxeMI4n8DCZfXE4gXgCxYObFY11TGCyx25lXOmAVAtcUWz7/w9UfyrZ8s6YqI1v3c7/uo2CvvPfC4AePX5iEfClk5H6alU51W+ZzOb1Nr9OnuwzgIRAczXdgWQ32rHEj2ya+3l+xXI7Y10vyMsF6/oZab4iz1fbzU+XKs5DOoPlCsaKSAkhZLAuYCzecZdO11fDsokNGTO+gd21qOTFCoFTTZS0K3Z2boPtTkOV8N2AYKZCk+M207di/2g8biouQE0HXo7xjuj35rS/QfhK2nAydCsSnMBHDX+dvFCxJKfVcAn3wECt8KiKAdXBP4qqIe0LQqXaWRdLX64rjWWeLtBC6gQj2A4FSAvGxFAMECRkXSBpBckVRCNkHSHsroXxYPB/nIDxGcPhBYfTE8bDB8TpBWF6AYYnQI9AOAB6MEliGkBkowd1nYFtHNAcoxbTebPC6sd2X+U078z3JejNpEgbcIjeQQZ6EdALgB49fmIh8BCWpFza4abjdNU9iDnrqa3YAQtILq7G585z6wVYLpD1FVjPSPMnrLdPWOZXS/r5jJQuyPOMvF7BsoKwgLCCaAEhgWkF07bCR5Trih6a5M+lnSsn88pHsLUxIkZwfXyVDIiYOQ22MTw1RUDtbMu6nL49PxdJGVSRGjSqfdu1+E54hrQknQhh2Z/eayLWmlh3yejB26Vblt+Sd4Xr240GtJSOwg30TQdbIVQvAuCbArUL5ZrS7woWuiuaXIa4zLd9zS6Q1L2C2omXOTfZfWaIjQckQDNDXCxIgtkcCw9APCGNJ+TLE9LxBYMbFfH0Ah6ejVgYT+B4AHvRQDiYaZGjAaF08wSQBleo3MQZbAygb5Cee9RMq+jStyb+UnwLGkLFO4m+ixH3AqBHj5/Q+f/Oqcr+Y9SZL6AgziAxdT7bsV8gsoLlBuRPtpufZuh8QbrZjDdd/wNdXyGLX5Lv6OsC6A2UTHo3IIPZ0ARisRU9uAogOdlQFeK9ZB0/lNci0iRZ9gIAfl3v9TRXKji7Z3BliwNNL6872V55s8pXkr28adh2REndFghot89f4Hh+eMovibskoNqkFw37tivX7CZ7wWF53kBkonp8iq5+AHbJnXQPNmvdOmjwDtmU+XYHgNpRyba9UHQTVLNtMUgjtktF5EdNC6HM3TUjqw8wKIARAFqhyMjIIF0h64KcXjHPE5bzEcpH8PgB4fCC4fARfPhgKoTjsykSDkdw+GCcgTCCyEWHypbF7t3ajJm0LWzQdv/0BTGsP/rHKTtiaY9eAPTo8cdD7yBNooeFQBWWqZNq2nT7fX2OJNtMP9levl1uQL5A198gyxl5uSDPn7Bef4PMvyHNn0DpAk2vILkCeTZSIFYwVgQx1b3ALsDDNl+WovPvFxKtsHYr3kI1ge8h7m1lq8DWfnsJXtOobb21ya50wvu8UB+zVZGvbH6fq5NDy5VSVxKieGlRRw+WOEl0v5ZGW+lVFIKE3gLCTTu5FSo1p1YYYhtX0L642YoRrs92IwfaSmGRBRYtx0/bXZImT+lOTGebl4gXRy5+VFn1VK2gy2qhUq5uhUFNedGEfpLJJQNgZGREZGXkTJA1QvDZPAvCv8HDM4bDL+DxGeHwEWF6wTg+I45P4PGMMDxbMRBNa4DCCeQqh0Sx+RyZQNMmskSNjgNthoTYCIGtZdPvFdV7+B9odkDviopeBPQCoEePP5r7a9K5O8lQ29XUrfQqW1u3AUiqOh80QSQB6wKZr7aTf/uM5foZeX5Fuv3HVvaWT9DVLpRfwToj4AqWK0huIJmdxb84gU9NR08dulfzvScyrX1S9R10OMtcAPHk5e5whb1tbW8ziweQy9wfpmJXFO6qImFt3bV60G9FU6sI6Pr/Xji0xjpMBIhUwmBpllmozuh3FYV38nSf4KlIBlvHrdDd6IHKPF9RhIXr9YpETYtEgDbRmqwu6lOc+Dxhc1EWbIWdmGBlmYsGURHC2UhxUrQG7gssbdkCjXiSFyhaj5G6rqG9lgBbtSwbJnafPlKiYCZCHMA8QDUj6wrWBMnJyIW6IC9nLJdXIDyD4wlheHIb4xcMhxcM4wfEwwcMEyMMARwHUNw+R2UTg6t1s+xEg6moLZLsxvdbifVuuYaNwIn936I+Qul6AdALgB49fgy2uD8xtYY1u+Si+9FAYwhUzWvcZjctK5brDcvrGbeLJf90/Tdk+QRZPoHTK4KewXrGGFaAVwyUbF0Ptq8PWgFK7riHupKnop6EpU5Zg2vxUEmeBb3Q7BaxxjhHaBX09l1Xy8/jorZTOlJss+vdCVwbKMELEpP2vT/lh+Z2WokF2sK7fotCOVQQSHlj/BdjodYmmPYjA1Skwo8V7ZNNqTVYubmvTRL3DmrY5Jdd/a8QHUmjbXtUYx6pt6W7TQeqK3ayjSu0SWZkrn+qLs5DpRARGyOxE/NYTSfBtzuyKJIsECXjA3AE69hoNgBZTV+CZEGaFQmCjISMGcpXMF+BcUE4LDieEqYT4aADFCcMfMAQyjTFOQnlyVPrMPggmavvS1Bf4evRC4Aef6li4PFJq+x4W+5qZGrLypeoNbmiEFWIAkkIa1akLEjZigNZV7AkDMiIZaDga2rEuq0JktQTqMDhf83+HFyJDjaCYLIET8IQodrRw+f6mxHO1pHu5gDezYmT/aQx2iFPcOLXE7XZ9L4gMAtixd4kZgNRBMTBOlwnIwrtVebgr9Re68Y2IFDdtfjqiU7t/9/0mNiTyoq2wO5Q4O7Jo1oP0+Zf0H5itr14+0+acQZTEYlqun4vymzeHypaI9rqLawgzgDbCU+D6RuYVpK99wxBlmBaCrL/HDMI0vg1iJjMcYZpDlR3RRehzNkhfeW39n7lQyb6fu38xdW9RjWyR49eAPT4KyAChUtWukR2GVhVE5bRdr2t3ohBHEFhRBwnjPkEpoTIKyQqUhBwUrAKgifNjNUU+Eit4fMZdOODh+JY167psRJCseMlGNFPGuNhKstcnuCcxCXUQPi8NbwMWBKiRhDHu97yerWI6WxDkToesMeR/cyXWncgrQgBAU2hQbvk7GWEF0NeAjTdPGNTXmxZ+7vkT2UE0L6tVI/tBjEzipcD6WZxU8Yv6q+BGt6AaTxsSX/3yVEgaItQsGkgtMqEKiAKdeRg77WRN8uqoXlBNIRDf8/Nwljq5zG434B69UNeHBjJsLx3DAoRRCMCTyA6guIBFI/gwQiC0/EF4+GEOEyIYUDg4PP+RlWRtY5nNoFGfoCKeemodFeYva+v8XVCgYT9KKFHLwB69PiBUVHOipLrXdeMRma2dIYEZUKMAYoJEcDAjDRGTIcDdD1Clwl5fUa+PUHmE/L6b+gSISshS4ZKQoSxuwXZPuYtnE9ivSJtqnLQ7Lr9RgKsibsxZbGEknfrelRn6PBOEN7VFya3IDez8jpvR1mb25b3y7EwnsHdyltTrFgSoLuUWRI07xOplnVAqnwDxb55p8ITaN63cnUtoxx6Aw3sk4l6B667pf+33W/lEnjRR5tkjuzyGu3GMFZf+TaFarMVQZtbYllDLNUmkX+sQr2OECDZCw8qowPT+A9hgGoAaUAigog5OmQls3XiERIOoHBEHF4wjC/g8QOG0fwFhulf9v3hCcN4MmfC8QiOA8BlBFNQpOZz8/Av51v+yt4rBPQLyb8jCD16AdDjZ1cA1HYkzZ57UavjMoNvYHBSUGCABhAxhiFCpwlyeILKM5Cefd3vI9bbE5brAev1gHWeIOsEWT4haUDUCM2LWfB6MgyucW9IrCCQJ33KJi4kKyD+87Cx8sVd8KrefU2ORcCmpDS33/XSggtTr9nv33gRm8AO0X5kQrQx93ZFVHtwCW805zdlt/IYGSwEFX6HQf4WUqZd+tbHyeNRcmlXy1qCZ6P9ryR7Ayfn3qPiEbrDjrSs9JVjpAEZJh5FRQehoDOqUG5klLUyIACNXgAKxJENO8SGMoEHABOIXOtfgUwuIEQTQCeE8Rk8nBCmj6DpA8LhI4bpI8bjB8TxA+L4L9D4hGEwp0HwaLoAPBit04sQhm4EPH0E538LxP893ICe/Hv0AqDHjwT7iR6ei6jxsn+DbqpD7bsEWRICgRmgGKy75ACOEdABlCdATkA64ZCesN6esc6/YLn9B3n9hPX2W90U0PUK5BVICZRs5U+R3U0vYWBb/QpYXb+NjUfAGewmNCBxJjk8gYmnNamogjakOXEGN9PW1RK9c4rXd07KxLWLs3WuRjmgVVXkOyOdu87bigeuyEMNLk6De2f6XVftiII5Fja/l5qWPbmi2XKg2qm3+ak+34I4+DfFA+GtUFQ77mheC4DgjA8UMqlyRQaoEDtpv6OpGoxZzxFM9s6KGhdAEaAyItOApBFCI1YOkDAixBN4eALFJ8TpA8anXxFPvwDxydQBx2fE8QU0PIHjh13SBwcAA4RcB6CILxUEZEdgLJsx2hSEG+Jz//HQR0JNeI9XULwK7q7/Rp1TOkrQC4AePX5U+49dEgPhXqAWm/TrhkkT0aabzi6kwgEsAdABiCMgIzBOIDnZvHX9iDH9C3l9xXr9D5brf7Bcf0Oezyb9u96g84yUFqisyJpAuiJpQvD5/wBGDIVZbytfmxOhAJRhRr9uBOQn8219S9CuBeq2b/dglWu/h616p5aotO3pe7LYnNu0ShDXjYNd16z77Us1EmQRA9Km6dd6pbfvXLuW1j5AVf5rHwPFjGjfv78ZBai9nkLeK8dIta0MqbUn2mkgbP4JrWbCNkIRtxkWtQRvnz1L/uAIhAihYMwLtZm+aEB2KqmEAxAmcxD0bj8eXxDHF4zHXzCePmJ4+hWIR5BfOBwAPkBpgmKEcjEGCu4TgEbwiHaVH90hHtSgS4S3bppvNm2/IknTl4r2P4Qk9OgFQI+/fqpWfeek8D1Jf1td280gK5te7yBud1DzpKLUdoZlfc7JZcy2L63RNdgdEQgjwnBEkI+QfEU8/QvD/AnT7RVpfoWsZ+TlFfl6wXq7QJcrcroB6QqSGUkWsC5YNZmznNPImILt3IPcvjWYLDEX17fs8D9cS8CKAFI0GX9DBlqdBPMXoF23pUQNfM37LE1ame3kMwFtOz96s6S3yQVXVH5L0FK0CShsSfe+a9f9XnoL+5v3gRdybZXwhiyJO4XhAn23D8abj1H5XNTR/ia6VDgOdc2QWp7ARtLL7jboSxwQJSjs8yIY/BKsWECEcISwyfny+IQ4PWM8fAQffsF4cBng4RlxegGPTwjjCYhWKIBGMwGiwZJ/mRs16n/amDwpaduYb8iJPvj7u0MxHmdz+qa/89L1v03+vQDoBUCPf3TyfwwLfsscQLHZoe5bXqINt6wnIKLG7IUsoapPSbVJ/LtzoIvMEjtcH4EwAOHgkr8ros6Ix38B6QpZZ+T0ivX2CWm+Yr2csV5NWCgvr8jLBZqvoHxDkAVZE4IKSBawmE8AEBBIEEnAFMFkq4Wg7FsM7g6obD4CZZOgMWKhltymuEv8nvClQO6FsV4qh7Dry5UaolfD1i8Wvi2MX4xz1AVlSlLVO+Lf288FWp8etMzBKmOrVsRwA2tTo1dHTSdPtQqy12hji704VFXIa17/Tj8CbRFATRFpr8d4GgFZjLhXVCYzM5QGKKJ1+joCfADxCKUBFCfQ8IRwfMJwesF0esH49H+Ih18RxidwfLLrhyOURwgCqMz43QFQESBONiUnIDJ4t+1XvRu4ZWNI5QaEe0nId7vz92B7/uq/+Z1PAPQPFv49egHQ429RCHz/iUBdtUyxn1UzNpOT9rGaLqSInTR+gERs81ktBjS8MbldYU/LqICj6fnL5Otupv6HOCOMKzjNoMMVcV0wPl2Qbp+xXj8h3z5jnc0OOM+vJje8XLGsM6AXBC82AjICKYQEkdyZkLLPj8uK2LZuZnKvDfwtuu3W0SOC184nzubyTcFUEucGLNDG1C/6vNQOAtoxxAMYvo5WmjvFW5LCngS4h6q9ta4CQwQ1I576vDexYqKSFL0L1u2x1XfoUVbjTcR/e+mF31DgfqIKqW8fVTYoHwGijAx25j4DFAzT4QlCI5QPQHhyyd4nhOHkNsBP4KP9OxyfEMcX8PQEjieAJ4AOAE/ucGBiQRXiVzYrJu/+N/1DsyvO9Vj5od8ZMG0+D0r0wKtR38xgVB9vDxC9Tx7UO4RhKwL0jxf+PXoB0OOvnfzvTwBfMvH5orNf9XFri4CAXSNZrHEbS9TWKrec7U2TZVMHZDK3PSp2L1T8+ZJBuZTMsAYBpBFMI8AZNGYEFYRhBcYV0/GC/PQKWc5Y58/uHvgb1ssnpOsr1tvZDIf0ApIVqitEEhTGC2AksCaTl3UjGvWddS5CL1oyudQujTxz7Xa6eTsO22vfd3KmG7C5xJHe4cElIeqGMBRmhc3LM4Sk0chvmPdUVPVk10GSciPUtMv8Wxbf3d7KElbZjW5aEyLVxqHPQY+6X18zuhcOtL33uWpHWNGXC3qgm12wIkIRkDX6yp6PiXgAwgSKJ4R4BIVnBN/Xj+MLptNHhMMzwuEJGA5AHEFxtNsG6/IVI4gN7hcEQ2SI/TBw1UMg5Q2V0D2XYtOccHXDOorZ0JViwVzHJ42o0/4Y8jsF5GMiperj/Y++JtiDVLUPf/7hXf/7s8HHJwvmd+xENQPIEE0QV+AzINR2q4ubrRJv6rgNRV68m24dcXaWsrVLZiex+waBk/JEkn3ta4XlUu9FEqArIAtUbtB8RV5fkdZXpOUz8nzGenvFcj1XfwFZZ8h6Mcvh9QLKCyjPYFkQHRGAZjAErCZCxKRgKgI/RWZYN/8D2nQCjGOgjaPPvfd7EcCVrVBqurkdu7ua5Uhr4mejCqxVxb9m31bBr/odYDdC2PgEuisASDfhompKhFS/r3P78jhknbLpPLBrD9BG1NvlHgUFMhVIAFkLqS5CiZHUnr91/BFS4f0IdWgePIHjhDgezbp3eKms/TC8IAwfEMYnTKcX8HAAxqONkigAFKEU/HNqPBOb84+WuinULr9qXSgBiJt+P3L9/ItzHtSTcSXDFq6AJqgqmH2FVDfvCLqz8dVagBcJ5lBFrVoR5sqlQes0uK2dQvVtycCMrjLYEYAe/6Dk/4XacA/97nzK9UHnr80MOgO0oCjukUYz1REf6jJB3I0n0oBCmKKda40AXIhmhQdQlOaoLpyVwsXIgexFiDba8y3pSswXgBNUD9B4RJieQPIRMV2AfENar0jzxc2GPiPNZ6xuRpRvhhpguYLSDSoLFCuYVhh/IVY+gCAjlCKkKP+pb6ArO1QOT+BFkMh/32xLVOqkbvK4FVJHA6VrK/vbrpAVFv2WsNrkTxQ2tcTSwdaRjtbnR7AVu3ofnuilrBe6OA832HwxdxIlqLoYPgWvB3wtr5gqiCvzSfZVy2JHHL0wGY2tL6WkK93+CKEDlCdkHoB4AA9HUDyBxxOGwwtoegZNHzE5oY/ji7n1xaN1+yHW5C+e3BUbxG/HJriNkKFLhRxBjRAiS9j+Du7Er0zwKNgRqU6KBGZHsWjjjahmt5zWTVyq2B83bE8lbrY4GKSyFQjapHzfKuD7P9l62y+hCD16AdDjn1giPID+Wwc/vdOV16qoB10AnaFwCVZEEGKjgFbQ3tJ92vCX2r2yujcu2++kpZbB9/Phkq4Aiau63avJoZjNZPcDTL5FMIDpANYjMJ4AXTHkGZpmyPpqVsPzGXmxS7p+gtxegfkCub1C1yskX5DTDUkWRCSwGEfAtAUSAm2eBNsJvYHVic2rQPOmlaB1aLB1gCVhUKXAVXW81mhwL7rkt2fzvddmT7+8j3QH96put6M3+UDvRjlSf65s74VAHZ2hDR5X9gLAu3hHhMroQQvxs2jqI1euA9EAKrP9bEc1B4ZgQKYR4CMoPoGGJ8TxGTSeDNKfnjFMzxinZ/D4BAwnDMMTwvgEBCP1mfiPaUwoF9Y+Ox0vVLRJ64aGJ1fZthWovketu55Yuq3H2FADdVZjUYC04kErf4NIrADKq296ALtSr+ppkyV/158of0rU8j76PL9HLwB6/OiCgNzsZu/gV3r0DJUFKV2Q8hnQhMCMIfgMFQHEwTTXSUHMVaq1GOdU2HKHRIp1Y0Vghzf2shSnuTr/Dk3q32be6p1oVYHzk7KhFQOIRitgKIFoAfMJCE/g4QroDMgMXc7Q+Yx8e0W6fMZ8+Q3p9gnr8oq8XqHrDMo2ZmAkA6Upg5DMXpikaPOicbwHNNdtN2q3KEphRWVzoqgZUuN773lVABFtlgz3KXtj5PMuWVEVHGoIh82If3MXlCq8Q+xCNk1xQoX7UH0X/Gsx6R54B61gh/StCMkqzWjH4XGKjW+Awe+iBssLDUgO8VM4guMzwuEjePqA4elX8OEZw/EjwvTiJL+jretxBLMR+RQTlIbN+pdQV/Ws2OQ6uipFGBVOA3gDUBpxn1rRkcHyVLktBc1vit3yGXAXRJUyOjNVSmCFai5yWHY/UoifNqJAgf+90KA71G43Snvb9vfTWY9eAPT4luTfeNm31reVwCcgTdB0xTp/xrp8gsqCIRBomDAOJ+u4XDPeNgY9AetQzHitsykdFsq/9Yy7m4nqNgy3BFcNVRohIc+Q6l2Zqv0rTtCzPJhAcFIfZ9/1P4HCEyjOIEogXYB0BZYr9HhGPr6CTr8hXX9DWM5I8wW4nYH1hrRcIXlBlhmrzoAuRhqkDEIGN+uSgRtRHxiJ0Jt2S6N+bM35T+t2QV2Da3fIW71hF8QhJ5bZWpruioMNMSi7+bx5Dmj146soSj3qIlXHvnLeiCtcXZQJVRrPBPZVPWNJOHMeQJi2Nchmnc+eQkEMIogO4HgADQeT4x2eweOzSfAePoIPHxEOH0DTM4bjB/D4ARRPAA3O2CeoDlCKtq6HYdNSaNSLC8tfsd97oBZqL+urSo3rYIuaNEROsYJKZPtbUlcq2ISTEiAmR83IIEpQSjVZqwgkOVeCBhCP4GECOynxbtmy2iXvp3n6OwVAn/33AqBHD7Rw5tZp75O/7giEplRnJjxZZuT5FfP535D1jJUEaRyRj0/gMCEMI5ijSfyGCMIRisE+ig7La2WV812qV7Bu0rWqDUBKBA5cE0e1/S1oAsP5CKhEPCAg+5YCYXTo2Uh8SgmgI4gTCKYvANwA3EDhA+I443g4Q17OyOmMdT5DL69ItzPoekaaz5D1DEkXQG5gXayIkAXQVImKrGrSNsxeIAiYtfbR6rNxqsfd9sZLT0/NeqTl/YbJz15JEEN8k6Ce6nW/emja+tjW9XYsg2bevxkZ3Mn5+ope2ebQxhCpFhNFrKc8L3K5XPYun3cGPIrBdu35iBhPiOMzcHjGePoF8WBmPGH8AB5fjOgXj0A8gYdnYDgBfITccRxs3j54Ubgfb5XXRODqZrjTPPAk366ztut1IgWtcXGjQvgsvhdVhtoQIpKiz5BshVQzgASSBSRGbNWsSGvCsq72/HhEHE4YAPBgJEVC9ufX6kVoFVZ6m9alIwE9egHQ4ws9v+rW3emjzr8tDsolATIjrxes1/9gvf4bmmfEGDBNR8TpiOFwxDBOGEbrYig8AxgBn8dDszGv6xKbdYxU1tTq7NMTjkO22qjQQWyunBu5VYXUmSwTOdnLXldlzGvAZss7QDGBOEPhCAAdAV49ia8I4w1BbohyxbBeIKcL0u0VfHnFentFWl6hyys0XYB0geYLJN3coMi6PtbVyIKSMLAA7CRGiK3UaapEOXsunlBUa0dvydfJkE6gI2ITnGn25rWyCe98Bh4kAm7IYXVXwEc3IptIj+7GBwZLq6/nqXMcVO14q0vwFnlcgJDFunzQAGCEBtPkpzCB3HmPo+3lD8cPCMcXyPSC8fABw/QCik9AONolTgbx+96+Yqyo0kY49Hl8M9ZAg6rU4kb9GDq5UZFRJZiBVqwBVdhIbdRkxZVsIwIvCggJkAWkM6DW5VNJ/t75QxcgzZC0IOeMvCZc5wXLvEI1IAwHHJ5+RRgCgprjpdYtibddPCt2Phw9evQCoMeDTn+f3Pf2qgDe6JILys5/haY1Q9MCXS5Il//g/O//B2n+BGZFGEbEwxHT8YDD8Qmn0wnT4Rlh+gAOJ4Nr5QCEAyiMiOxyrWpSPFrZ2bR1VRXyD8iw1TJzdyuJTuosllxueDOxKcmtxX9Dw6Syk3iWFYRgCoA82siCfZ2QZkBnkC4I4wIeLwjHG4bnGXm9Is2vyNffkNZXaDojz6/GF1iuyOsNsi7gvPhjrBAkRDHy4ECKQIrAA4DV4HmYzoGRxhViUjcFg4dwwxfg7T3MbmJc3jpuU3t1JBTfJlM/jrR19z7f36SFye/XoH1Us5tWpKbA5QwtKISvxJlSnxn0AGXP/mAdPB8RJk/20zPi9BFhfEEYnjGOL6DpBB2fEOIBFI9G5vMCEhyNayDRZ/sBzLE+btHn38YkJuFcTYwoNNpNhVypOzElIiAYCaWaWEG3vwMtwk/Y1moJZKuhSFCeQXKD6gzKKyjP7kC5QnWByAxZrljXG5ZlxjInzHPC7ZYAihiOTyAGDqcDQBOgEXCZ422VNzRji3dEfmtBH/oUoBcAPXq8VyFo22dWuPSeaMywDpWwGmFufYXO/0a+/H8QSsgxQJYROh+gtyP0esAynhBHd1QbnhHGD6bANhpxi0JEgI0KrEMMbt5iyECRhVXfhRYlU6bzUQE1nQ8XBT1il2stq4e8N7ypsLavrgFOhItQDCDOrlCUbX6NxUYESKDhxeDbvCCkGcN6QZ4/I69lk+AVYX7FOp+B2wV5uQLrDZpukHyD6iGnULkAACAASURBVA2CBM4zsmQEEgwklZSGssFA0iAbzfolUfMzqfP3YmFcDXVoszRud8LtuCh2gkCtLj82HYfCgi/78gUJUN2UA4pao8nkslEhlcwdjxmgEURPYD4hTs/g6YPt6Y8vCIePCNMzxuP/IUzP4PAEjkdoPIDi5DD+YGMCDV5sFCU+Z/FTACmbgJCiihVtBMO9odEmZ1SKYtqpGlZ7Y3VdBy0aD1L5EvY+iKMo6sp/XmjIApIbWK6QdAPyDZpmaLohpytkvWJdz1jnC9blhmVeMS8Jy6JYEhDjEUS/QtIzVC6AHs150Es8+9xKdY60Yo3vPBXvkb7s12msk3v0AqDHP34I4B1FQQZKwpfa8ZelLa0JKIM5IfKKiRckuiHwBUSLQdFC0BthngPS5wDmERytCBgPHzEdf8V0+tVZ3M+g6LaqYfQ97QgK0fzbm2JAKXqCJoOn/ZkxtZsA8MQgvkJlIi0q+c082BBeqoIrDK6vUxGh4gJDHK2DpQTC6t1kBskCxBU0zKDpBSFdgXxDXq8YlwvW5YxhuSDPV+SrSRCn5RVYzbkw0w053cCyYoVtUthzX92mSFwx10l6VBK+jw9EqoMeq8/uqwMg7UVgio1u+x5XJ17eECFHXcRldxUM8LDB+spY1f4tyRZsRZRQQFaT5M3kzo5xAscDhulXxOkF0+EXDMcP1vFPL8Bgq308PAF8cmjf0KFMtlUgylApwlCEwLHRSPC1QzG0hIvoUCXs2TiD66eFdh6EXOWI23W+Uni5wBPb3L5YRBd/CBOm8pVY8aJAE5At6ZPcQMsZsl4gtzPScsE8v2K9fcaynLHOV6Q0Y10zlqRYE0M0gg4v0BSg8grIFcAMYAAwgBAbzYJmLHc3vnvwV+5kRK7ITpcE7gVAj97676D/R+eEnVK52hYAsIIxg/WGiAuAMwgzmBRZxGRcRZAVEA0gPkDiM3R8QT78gnz6P4zHXxCOHxAGZ31HU3XjYQSimbcgxG1H3EmEosEJXA69avBuyDcA3i7LV5i3sLvh3StX/Xp2nfpNrricOAmDeRBQgtLoxVICMEGxgvgAGk5gWYA8g/KMIDNCmhGXm40BljNkfsVy+4x8+4R8++RiQy5MlG5IOoOx2LaC5k1xEDYmIBKbL2t5rbLt1xdlQZLWbffOGqDOU7DxPHwfv6oaWzFkLntsRRcNZrKj9dnYnj7UfiZcGfcUD8BwQIjm3BinI8J4xHD6FcP0gvHwYoz+8YMR+OLRNwQmJ4mOUBqhXBj6Pvumss5ZUInWcpqqz0AtXJW3/Xrfo4fzS3SHc7mis3stUENNxU7tb/Xk72MhXS3Zw2F9MftpZIP2db1C0gV5PiMv7kuxnDFfzZdiTRfkPEMkI2f7G0EezPVSFIRnMGYQZhfbMvVL1Wx8mPq59kROe57DfgjUfgZkPw7o0QuAHv/4GuAu+Rcuvp9MN1AYxQyIaAVhAekNms/Q9AnABSK2Ax/YhGiYgEDByHXrAuQL0nKGXF+xTP9BPHwAjUfE8QQeDxjGE8bpCJomYDwAwwiOB4BGME8gmkxPQDe1NlZLjlK7OXXjoU3DnajswrcWs7zp7bOtYW0a7OxGOqVpigbLQ5A1OxJh3gQmNGSoCAVnd2MFSQJPCyTNQLYiYJg/I8+fkK+fIPNnyPwKmV+RbiZVnOXmhMDV9sA1bWt6kqo/gjHNpSY8aVMa3cu/6rYYWNjrChCyYwxcdfpdzshFcdgSkxRin0nyZgwmf0Qwoh0Ptq8/nDAeXxCPL4iHZ4TphGE6IUxH0PQMnp4Q4gnER2g4gsIBwjbXJ/8XGqES3J3ZxiHsGwSETYN/ExZqFQsdBYACvG2UgHQ3u6f6qTYjCm22SIq4H1d5Xu/qdYGSJX4S2/JQX/0UuSEvF+T1ClkukMV4IelmF1kvyOsFOflnP90gegOQEJhAHBEwYqUVSQaEcEDgG4hXENnGgPFCEqRIReOOrKtoXmf7t+3+BLRt0WxbDz16AdCj5//GXaxNGqLF72QTibEVuuS65gtIZrDMoHwF4WpiOCwgIgwcEIgRlEBYTDxovSHNN6x8RbqdsV5+A0XrEnk8YJhOSIcjwuEEHC15xNE6ReIDKJzAZIYtoHFTXKNgO+hNslOl5qTPdxUPYYePA1XJ35I/VWM/O7eWjjQjV/W6YPC4+gmaBEzZZt7IoKgIMZndsKzQwwVx/QhdXiEnQwKwXiDzK26X/2C9fUJOF0i2gqHKEEuG6urdZypTdk8O4sJBWjtgrcgF1e0H9ettnaHWFb465xe4iJIlfFHbpVdn7xebXeEDlEYwB3CYwMMJ7Fr84+kXTKdfbLwzHMHDATRO0GEEDUe/HxP4ERogFF0G2B+nDj58Ta9IBCs3ssmFhyCN0qElQCZp9uG38qc1ruKdc6JaIad7Ix91LQdTu7xB5eoJfwXlK5CvkHxDzhesyWSk19nWQnW9IN9esV4+I68XaL7V1VCVGYTV3CZJwByg7KJV2TEPuoFpBWNF0Q4A++aBF35UNxxo//870s42EaJdTdCjFwA9/kEhxYwGrXhIgf9D0xlpY+PLBn/CDGCUssH/kkGSwZpAlBAoA+z0NVIQ2fpTyMa4Dk7WyhqhEgE9mEnPcoGmCQgT5P9n70233EZ6bNENBCXlZNfXfc95/8c7d617uvsrOwdJJIH7A4gIBEUplZ7KzgzUyrKt1EAFycC0sfdhC0076O4Wsr0F7+5AN3cYbm8x7+4te9zcg7b3NlJINz6ud2syrhhAkgwPQIqMFVDHMTBmDwjmStnqTt/Ajs4AV0rp8LawOruglnlw8TFFo+tVc1I6l7I8YfJxRGeBSzMUR4AewHyEpBfw5gV08wyaX6DTE/jwFfPxEdPResVyfII+/xvz+IRpfAHmA1QOUDmCMCGJkckkEj97k7V4iUrvesZsRENh4sGoboOaHTGEGCI2wjcj2aw+DVbm1w1UdwB2IJfK1eEOaXOLze7eJHZvPiPt/gLffjJg3/YevDU+CBq2oLQBsQvvFJBj7mknWH87lR9mqqOHhYWvctxbtTsrNBpHApNjQYhAPlaJxfhikayGgtWqOcoZ0Gg6D0yTiUnNo/X55QXQPUj3gOyB6QV6/BsyPuJ4fMHx+IjD4Sumw1dMx0fMxyfo+IL5+AwcX+w+IAvaEs+gJDZu6oyRxk0hNr3hY61JJ9C8B8no1xVsvFKduoi0BHBzFnYSw4gwVUBj0Q9YTgh0BuEeAHT7qNn+wvnTQplcY/ZAgQteG265vMUwKYht8x1A2DAsaBDrmSYkMKWSxYE2xsRHExRHyJQg0wCiLSRtMR93mDc7m/V2ToG0uwPv7rDZ3WOz+4xh8xmcHsDDJ9DmAXAmuDxCCNpYWZo2tsHmTbKMhaWgPx+U8poWQXY/VeY3axHk+Ik1Ywi8PF3myJ1nIDMoYgbRFkyTMRDyHZAOBh50x8J3z8BkpeTpaFWBafffBho8PNqEwWjOhXXCLEeQzhCxIIxlBrCB6hEFnEYTxBUUCQlSqG6Tjxuyt00MrT/rgFlMbc8CgI2Pa95a5WW4BQ93SLvPGLb32Nx+wubmE9LNZ/DNZ2C4t0rNYOV9K+0Prj6X/NryCQ1iH+EbPBgzoKe4Q8/XXp1W1YbLIVfnMxSQQ4sj9+4D6a9dwVqnKigHaEXO2douTE4GNR8s6JqfIbOdm3F6gkyPwOHfkMMjDvtnA/MdnzBNVurX6QUkhgOh2Rz4wIrNkKsT4sHhbMGjziaBrYRJCIMOSK7CmEda83plIigjDxoKi2Z7A3Pf5Lr1AKBbqwRY5711EQh4ibwRGIkBAdbUYhqnScxgZiRlhyd5ppX7qapOfuL6716iFcxWakayDHneWFl1MulX7LeYNjsDBG5ukLZGFLPdmsb7ZvcXtrf/Au8ejEyGTd8daQfCBkQ7KJs4kaqh/EEpzwou2gLm/EnZq8Fay8rI/7YfUaMsSsJFECf3lW0sreooqPMOEE1e2lYQbywr1hsA955ZPgDDEWl7wGYazfE8/C+Mx0ds9l9x3H/BuP8b8+ERcnwGjXvM0wHgI0hHqwBgA6GNBwMjSEdnj/OuPrkqoTJEgdkzSE1DAfZNNDgIbwsabjFsH0xed2OiOxsf3ePtg1UAtvcWgCWf1eedza07B7/NJ2ZmPgSXnAo7oMDAl7NjMCgZ2x1ldruoukc1KrDvU8dAtTh5C4DItRfg+gp5bj/LWUNmD2TFS/3m+HV6go57yMGCrvH4iOnwFePRsnxyTYjx+IJp2kPnvbUJ5j2SjkjkAlEsXiEyCWmS6vxrRcNAjUQTEgYMxBiIMJBfr6UyEqmyqZXoymBHOhfsd+sBQLeP4vaD86cLFYBQDkR08Lp8q9bpl5EpDmp+mU2NqyMFWYaseZOWwqGeKNMKswPNbLRpxgazbiHzYGNkuoGMjMlHymhzhzTcY9p+wrB5wPbmL8y3/2FZ6O4WGG6gaYe0ubV+c7p1zfiNsQ5SsltBNyhqdTkQIHP+ojbGiEi1n52R8+yrVMAZEeqMfmbEK2tFBW4wKxdeeMtUt8YHj9kdp/f4MYG2atmoPIPGJ9DhK/j4BcPLvzEfnjC+fAH2z9DxETzZuJlOBwOjYQ+ZZxMq0hGkE0Rn5I5xJubJQ2wTBpuu4A1AW2i6ARcefs/yd39hs/uE3c0DNru/QJvP0OHOwJnJHL7qxmbVaetrnPzHK9QU5vKZnaeh5O1ekRHPap3oKG9b1DDglwAgsyGraynMXoEhd/C2vg6g1FyZmnxsb/KRPWN81PkIdecvRwPrTS9fHcH/Bcf93y4G9QyML8aEKc7whwkMA35uKM9DmDx0DgDmTA1dxvHEtQbsGlQejCiZrDHCoTJFjWohnVD9K5VVBAJldrduPQD4YM5fVRZZenX8sSKw0hzAeRqR+G65jJsz35yVeFlZXOhGrUSefHY74wss35sqbl0zp39Coi1mmgwcpslAg86hPxED8wuQniDjI6Z0B93/G/Pzf+G4vcewvQNt78C7B2zuHkwqdjB5WKQbz/y39jMb14DN93tVwKcKMvdtYcYT9iBgqJsqoZT4Tbwn6LFTnY03DgN3YJmdhwB1PMYMAWQC6RZp0MY5ACPAn0CbPdLuGTQ9YXP/aOOE+0fo3mSMdawOSxxDoDSBZQTPo40myojJZ8UV6nS9BOGEOW0xD1swb7HZ3mN7+xmbm89IWwP2mdzuZ6TNPYbNPXjzAOUHW1N23gZsbVRSkzk0ySVrDxJtqLDi8IUKp1HWClCCEfmQlMxfpSomcg1tPaDM12sc+TRwKjAjufAT5SDLdSwIFmRBj8B8BKY9cHwyQOrhEePhC8a9VVmml6/A9IL5+Oh6Dy+AHMFyBFujpIwGss6mDMmKwXv15MEKYUbi0XgaM/V2DV1sZRRICmN5VKcZEOPBQGbHdHKr2qqileCfWsS/dnrgbj0A+KAm1WGfUABHXXOqe2hlhwnl/5UqAIXXaBWHYcrZP1vp3wh2zZcio7aNSIXIygMiAKtB2RJbi0CcuWxQxSQ+oa0TdLbJA/Az5vEr5pcdlDeWtW7vsbn9jGn/GcPNJ6TdvYPS7kymeLix3rSPFZJuTSOeKs2qVQkMKCfexlDxyXifQydmQE3WNff5q9yuMeiRj9RRpjMOmu9Kjg9QgUgyHEXOaJ1QRmiGphHCO5uS2D2A5s+g6QV6twcOT5iOT8D4hPH4FfTyFXp4BA5P0GkPGkfQ+AI5GhWxyGSfSwwaEnjYYthuQcMNOO0wDDvs7v7C7cN/Yrj9BEo3SLs70OYWabgH8Q7EN1C+gdKdTQfQULJ+8oqKn7ZKM+zz9ey0zZK59AP7HjEHtUEtkxiCKtyTHScXRyfV6eX5dx0BPXq7yXUd1GfodQKJZ/vTAZj2kHEPjEbdvH/6iv3L3zju/8a8NyQ/xhewHKDyApoPGPRooEsSMBe2BG83mMQviQEvyScKKLcoMo0wVRpnzFo0A1XtniEPokWyEqFX1GgIfBeBxy8EozHp7xWAbj0A6NZkBsusQFfRwJEWtVUTsyp3laKtLAFUyrk2rsVFWqZ22bk6f1RKVjjJTUZiq2YUQS55+ky3ArOORraCo00a8BaCwYq94wDd73B8uUV69Jnz3QM2N5+wyX3s7R2G3SfQ5t6CgeEGmjY+0mbjaYTBeOVzO8P9i9BsTs1BbKrJ2fJmaw14FlvG8fL3y8AzTbVyUgUOwFxHFcVBXAyA0gwhp73VDYi2IN66aM4R2DyARkOl8/iEdPeCzfgEPb5Axj3ksIfsnzE+P2HaPwPT0ZDmnJC2O2xub7C9vQO2N9B0i2F7i82Nie/w9h407MAbb6GknbUpdIDqAGBn55PY/73xM81AsnFC9dZPAdnlXrxqwWOo91goOrQitoOCp8hldCAD+7LEs3qglcl/DmA1kCTrEVAbp4QcINMBOpmA1Xx8xnQwaWd1MSej5X2Ejk/AvAfPnumLj7rqEYkmQ0oQQjBilQV2Vw6ZC/Vyvl6IM53w7HLNaLgIqAzmVBoiUzSM8MZcVaFQrNPK0pG5HVZwAL0K0K0HAB/ETm/4S9rgp2V/VXVgG1wpLYjFBKEZ0arpLhoEWGDlSqZkmZCgyP1qZGF3+uFMy6oMy6hlKvStNpZnzxncZUjI+IyIx1To5snHy44Dji+e7W/vHcB2i+3uM4abB2xu/8Kw+wTe3YM3d9CNCRNhuAU7Ix2xUa4SUtCVr/DzSI+EwpXvGVghntemRG1xAPsG7SESUxMUZQYDyQQEIK9K1A4vOy0x6AbER+jmYFK5OmKnR89sD5j3e8jLMw67Lxj3z5jGEbMIkBKGmxvs7m6xu7vD5uYetLkFD7cgd/S0ccU92jgT4Na5AJya2c8p1JH8zK4V4BUPrj35IqTDtdrETiXc8O9LBvMpWK0VoKTmbEupSUpZH5iB2cr9BBsJTPoC6AuQgXnzM3R8hkwvmKc9xsMzji9fjaDnYFS8enh0jYYDoCbnnDAh6YQNCZiOYLaZfIaNvCaPbHKJX3S2doXkYM8dP7m8csDl2GMcYvIq0xxpmImqIBYWVFzUiFosxbuw6vCp0//2AKDbR8n2X7PTUSEKldQWce25vGuOLwOIugXlLCWr+AWynRJISHkNaabi9dn7OYPpZuf9n93hVPa65CC8GADMWYOdGKQJjAGie8j0DJmfMB3+xpR2OKZb8PYOaXePzfYzhtsHpJtPoN09ePeA7e6TsdR5MGAlbxsnJNoAunWtPRtZREogzj1eqeIzebwsbNDWv61ZP/mGzHlQLYj4KOXvyy4B6xQ2miCq5hx0MFDlsAPpHWhw5kAdQd77T9sD9OYA3r1ge9xjmiaICsgrAMNuh81ua3wLQ0bvOxtf8h9klP5gvX2nYE5lSsSrIbXj7SJClVLJSgGG48jjfcbd79UUraA+FS/zF0Kn2QNFw42w+nQDxkDHOxqaXydz/vOjoff3j5iPXzHtvxpi//CE6bjH8fCI+WCCPDraqB/5eyaaMfCEgYxfYVAB0wRSc/5GwGQCUZTPp7oqoNosC1FylUqXDoqqm9YHg2T55izcoJWSqNzB2ffncgLnYDrE4Us8L6GhCF7dHXoQ0AOAbh/Z+V+oHqy8Q+01Uvg9NcGE6bCzM8txhmmVkS8UBbKsYJfV1blxnnn2mVR895scXuhZsb+f9eAFWfKFyYITBmNDhvqfIRhlxDg9Yxqdu/5li2lzi3HzAN7dgbf3SLtP2N7+BdzZbDsNd0jbT2BnH2Tnqreyt6nSKc02QZDZAjWL9MRtHDWaUoJhDFyMxlXcoFxaBBpLwnG6naTo1sMrLlDjX2BysSaenOhohNLR+8wTaJiw3Y7QaYSqFokbpAFpcMGl5PK6ZMQ8Sj4xoQnKg/u2zIqUgmdy3INjH+Zydh1ECWnUCJ3Vv1SACs2iB3QqUnQM2KX1RA+lt64YfVTv0P4pR+jkdMvTMzAaiO/4/Lfx7++/mvre4QnzaK0Amkewzu7Y87SAje0NNGEgNVCf/xAmuyYxevVqrMFsph5278tO7mOcBcbbVwV7WhwOaSU8Mu9eg4U6BKCLe5Mah5+rT00hgHBSDehOvwcA3T5MH0BqWfG1p+qlgODMGGHhBag/mVI2o+ClEA1ZVkwkJVsue5Sz65nTd2FZgkGgif25VKBWuUTOeXxMFUKRrpdA8x7i6GlWxgaMgQbMQlDZGGp+/orpaL3ttLmH3n6GPn8CDw8OJPwXhptP4I3hCHib59x3VhnQgztKavd2rU5cAUhmpqM8CZEleNXjBWnoeCmuZSn7Sq2G6GQZcnHACiKnBNYZhI3N77MCyUrStDEHCrJhMuTPIlfRIycGyox8NFTpX61cOaSGR2BUZH9+vSCXrrUEffa3uRHtmf2bccGBVNZC8AwEJQKoIMmzofplMlpcNZU94FBK/fPxEcf9Ew57k2HG4dFoePdfoa7Eh/mAaTwYMZWag08ABlajbsYMhnEmkE4FzEeqIPHevboQk9NhM2m4Q7QwK9q17BLWGaMQHXJWWtAcBJIHgcYMCKpTC2VGl0JQoBrGInPoLOH9q9Sv6npboAcDPQDo9nGjg6vzf7r4HrHEH7MTKn8vOvGqzvA+h60qa64biCpuThkYx2FECr71WvbL5TGmXGq1sTGdtIjYEG2wSQM4baBp4+S4E2YcMcoAmQcbKTx+AZ7voekWGB4w3PxlgjZ3/8Lm5pMFA8MdKFcE+L7IFlugkpnrMi48ArhcUYik4rd8lEs8YDDgY8oweH88x2+OrSBxXvwcU4kHUFN5Hcile/O6klow4LSxxJEidsiFnTKyp47sz98DWtkfrcVCpU+tbAFEHloUcoheEdapREooUw9adOzz74hcXVJ9fl8nr6aMRsM7H10P4QCdX6DTMyDW3pn3X3Hc/439yxfs90+Qg41IYrTgIM0HmxiREQMJBmIkNsefAMcXOI5Aj1D1sUF1id+5EgXVMLTyWZSoD1F7wipXGlQHyzBEoZNWKHsoqBQc/lw0HshrKvEzVLVpur16p1MbCOTyf28D9ACg27t17nqhPUBveD0FBrbg8D3dzlVHJXWK2SBFSpWUREMLAV7mr+V+rZlOEewRcOZub4WIq3Jf4DogNVxAlh8mJgwEDEQQGssIFigLvrCh2Ykxa4LKAJ6fIeMTZtpB+RbT4W/QywM2L/+N4eYzNjd/IW3ukbZ3SJs78PAASjukYQsaHCXvfPeMVPXa3WHbGo6FCpmIS/m24CPiGKHWVbGHvRHCXPAYVlGRQECQvDUR1OKcG75gEpmdEtd58cuHON0sTPGvHAvn0xmvCTL64CCUlN9TCw+FZ/IkhTAJqCj+nKVa6XxyeWkjLwJGA4LK0Xj3x31R0puPT5DjV0zHL5jHr5gOX2x2//iIeTyApj1oeobOR+NBoBmDUyITKTbMSMnOEKkAs2ELIn8A0xx49mZH+8dWhlep1Erv+VJcwm5tksH1JXKskDv9zhQ5uyyvnY98nVatDs3rpgHYuwAA0grRv70f9Yy/Ww8APpplXfOmFQA0/fiG/z9uKFQntlBU4riWe5G81Ozvw4CyQnmG0mg89E7AUgltTGzGwGwJCvG599oTBVHT+a4OvlYYskiPUp46cAc0q+EDiJFScl0CDhvxCBEbL2TNPMTspDMDlHcAJszzAUoDZtlC5r+hhxvI3lgHx90D0nCHtLlxEZwHbLb3oN0deHtnegS7e2Aw4GBio+QFC6ADoGxVDZ/xzmNzlrTnuXebaDB1Q8M1iLqDCaSLxaFqzjtNyMewFU45LC6SowCxCSTldgWDTNPAVQscd9+GhyVDtLUsjHtCEBGICsR73MpZNlm9Vz8VtkMqQZs4UFNKPz3XDkgmQEb7mY8QOUBkNC79g401TocnHPdfcXj5N8b93zi+/I8x9o1P0OnZ1PWQ+/cHEJt6HkPLTD4TPKueAFGoI/fJlRzJMRW51M7EJYiqK2MR0RT6ZuojqtnxZl6M0uKQUPWBnW9mawvpbFoIiQbMzKWgrz4lQa4zAW/ZqEbyHyMYkmVcz1HzIBxHrkj0WKAHAN0+bHjwanH/4kupkgTFbF+bvuXkZdI5gJMsKy4shcpOexuLDrSYaDLUdJEy1cpMYCjxyqWWN98yS132Z6llbBOYN2IiyuN16ij22YiLwGA9QHTAJCYCI8evGF92IL5FGnZImxsM2ztsdp+wvf2EYfcZ7GOFtL0FNiaGkza3SGqStwCDhR3I50hyEljPPXk5JQRaWWwoMwdmrnutUwPmXO37SDkvc6ik+Ao5xiALIlEp7lidQljLdEeu2RQmuczfSOwVn0znm8fZ4CN4NgpH5IA6ml0IykGKmf9eZ6cnHr3XPgHTCEyjjeJNe4zTM8bjM/TwBDo+Qo4G4Dvuv+C4/woZv0LGR2B+AckeLDa2xwRs0owhaVk3QuYUyEQ8cMU9n97Q2askOUDw75xpiX2dhZZZfgTiVaeasaA1kKpTMAmE2dU188gocYLOqY6ULltsDXiAF5gcD1Yy/tBHJzMwNvcdSvYftD56RaAHAN26vbG7sNx8JOuyhvK/IM8BWOY3h4DB683tIHMZiSPlOiHgbHqqlXI4bramO6BeOaitARWfyy6MvZ59SiUxYmJD77P69MDoQQNjVsakjNl59Kd5NKeEAYoNOG2QhhuM6Qbj9h7j8yek3ScDCu5ssiDt7sG7Owy7B1PPSzeGF+Bk3AK6MzyAO0zQxufpnfc9pbDxO1+8t1pUBCKmHEdlDsyEmDSvD4bKNueVgiwTXH0JFQGdUqYvcVgz0GfHRLnVIP57+KRGPgYx9Dtmy769rG79dXUkvQPs5GDl/floY3j+Mx1NQnc8POL5+W9rw4xfoOMe0/hiSnvzCzC/YEtHMI1IPCKx9e0TVVEgqlqCpoaYAxStlREmY15kglWNNAcMtTpQAszQArEsWtqUO5bbOcTHDW+/17eCPgQVYqjlrUY/CG/7bQAAIABJREFU6JalMwlAtx4AdOv2ls0ECFPK4Sc7dmQVNimOwvy5rDCWB8VBIs9ZK+GQ5hlppqLkpqACplKpUrEGGmTPQqVyGcD636Yrl3u65AGBlmoFcy3vMjEGMCZKGDRhkiOEBiRJBpATBsYtWHaQ6RHHw9+g4Qa0uQdvP4E2NxYE3Nxjs3vAdmeKedYmcApivgFwC6KdiRLRLnC9Dw7e46pSRwU5GMYNK+OijYmJK+v5WgaefBv/UytFZwpasbUtjpIaaqPQQ14wRlLOnHNmj/J6xWRjiBi9BXT0P2eQmDYBpoNl+uMe0+ER88sj9PgCPe4xHVzTYHyx3x2+gOavgByB+YDk75doxJZml+6dkTy4YAfhSS1luPaEXRCic6kIsWMjElediio05BUCctrq0qZK9foVn+PPwWiZ4kDBzShOEDU1A89VKo3Bxen99j3BeqVhXlbx+l7WA4Bu3a5M+hVrdMGenaq26OjqfVFHuprtr+5FyiZVG6R0y9anmXGPwniVj9VpHp+z0jU7oY65sCz5a+VzWjiukt2pZdIipj3ADCdwcd16SkiUMLCxAG55gGDyrrYh0md9wnxMmLGB8q2V/5MxEPLuDsP2HtvdJ9zcGQNhuv8M3j6Atw+gdAfwnTl/jIVxkGjwwvlQy9GUkeKe4VLkhavlYnP0VAB+1vYwHEGkHs5BV51Bp5UGkQanPxn6v4D7NPDx5xHOGaIjCAdAjiCf0Sc9GnXzfDRHP75gOj5h3j/h+Pw3xucvGJ+/Qg/PkOMLVA6AHFxwZ4+Eg2MGrKqQMDkX/2Sc+w7cI2fhs8oOG3YiUwizgfWGlCtLHsRkEGUey8wAmDLXgMpPQdT4Us6gCHe05NMQjTPPJFqlmKMl8M2tBbseUSWOf4hzPh3eLRMYfUvrAUC3bt+T/2fnb941I7slVAXEgYJhXImi82k0CsOceWCEbzbc2u/PYLeY6RldMRuwTOqGS1o4B4vz1LLVGwpcSUyueIYD9hjgGQkD2KloxYV5oMkdLEH0iCSEaSbMOkDoGZAdNG0hvMF8vIEMN5iHW8xP9xhuHsDP/4Hh5hO2u7+Qtp9Awyfw5g403EHZ5/dpA+INmDaFPyBn45Ize2aQlOlzGBVyRpZndrmqnUdAJeUpvARV1bBwNkTBKMrhFBUmwhjolbl0NVY8xWhOXw4+umc/82S6BDrtofsn49zffzUe/v1XTC9fIYcn6LwHzUbqw15BYEwYkMmO8nClCfFkECFlFj6/sFQVEJ/RFyn0w3lQU6GOpwhtjkLg4KqFmttaVfWyZvOR96JWSyonvzM9aG1tlfCXrtHb/DFBe9RWOKUF7yWAHgB0e1f2I8U+KOix67n9ounhUwGbQW0DpcBrl2fAYyafFfTEnUx+ec6YMthN87iZp6OKmkVRqC0UHnYXmslwNXbSHKZKYKScDPymJlpDLjdc+PbV6Igr5+rsADpDUtvYobEfJk6mQU8WRYgeMUuCTs+QeQM9bnHYb7H/egN8/b/g7QO2u78w3PyF7e1/muzuzSfn4r8xal/auACPcwyU3rFJ7TJZhUIx+Apby0B8PSlMQJSaCnHNRIOSYx0B9MCBpD5F1UF92SnOhtTXGVV22nn588z+9GLqesevLlP8hHFvUrvzyyOm8QnT4Qnz+ORBwh4ps/HxCLDTGWO08yKVUzJXm/J5Rgbp+XUDZtMPzP154rayIXOoqsTZPdMRoELkFAlz6ihroTCOIbG2QUA+V2WttQVXarxnKONbtPHPSy2P2CqwIgG12T5F6mBaDTAK3XL3/T0A6PYeS/VUnOovCDdOigN5UyqbdSGPQe135pKp55ZG/pM3V65qgllQJmdsnt3mfT5nxBTqAwiZPVxzPWfIlGftw8YtSGAytT1zJQwOc+0RvGV79AwU/brKgsckpVJgjnhyZ8xWGZAEmRNmDBgPX0DDPebtv5G2nzHe/o3h9l/Y3Brt8GZ3j2Fr6nucduDNDTAkICWAE5gGKG0A7AAeHOBHEBKrUkSFeUeWqVJbGKZTLKfGcTd13IHaeBwXZrzJevF6dMKeyUY+5wkqJtEsoynpzfuvmA//NpGd4wvmwzPGlydMh6/QeY953pu8rhyMb59mMAkSzQBPfv5GQMX684oAuqvKfwInOQqiOqTq5zHI4mkMOsNFUL1rqJScIuSNgYE9sASKUlZ5PZVDoNXK2ZmCGpoYrNbLlkFBACESrd2CFCS29KQ5dPrMbj0A6PaOg4BfEQNUMiDWUFJu9MuzI81Us56tNnDCEC445g/RwauETTmXp733ryGZzdKzRBCVRbGizrRX4RW1CkBha0vmVnKVICitkLPxaBjD0tAPT6TVMWntkg9IECSIMCZNAPZQPQCTg9z2X0GP/2XSu5tb7G4fsLl9wLC9wWZzi2F3i3RzCwwb+0k7EyrSyScHdjGlL+VqiPMiQMHMjW48VQ7ZQuRji24BWQYeGk/+ETQfXVZ3X3rzFgjsQfMBMh0xjQdz8vsvmPZfMD3/jfnwFTg+gaY9MB6gs6H+SY8YcHQA3+iOP7PrzT5DN/uIqE+QUKW61ZB652GSysonNiKaY5klBW+ZzVeQcL1X6JQitw5BcgGl1tG6HFz5lUy50sUrBTK52EijVbLtbwvJNZB20creEDkBuvUAoFsPAr7nk1BTEgeUZSIfDwioCN1E2uDamwZxEAGKpVQU4RoNMUSV4Q0br2aymlz+NPIX9bn6JtmVSiRkWutSddfZZIk0fi2tgQDpsuTRViAMWOgz+JnkxbkPxCcLEhIE1iaYxj1kfoGMNxhfNtC0w/zygO3tPYbNLabtDdLNHTa3D6DNFml7C9regTf3QLoD0Z1hFtjbEkWfZ4BydZhRera0/Qu3Qk2A2R0akyJlyV05AuMjdH4CyQsge6PiHZ+h8yPm6RnjYY/jwYh6Di9fPft/BI1PoMmQ+ywzWCYXyTF1PaYJxJOx7jnwTmV2py3OxhdJo7WMNlbHWoPHXH9in3AowU0Qn2rL4dEFc5Fwzsk3LUryecFIUbASjRAvBW2jywn/N9xp9C135vqe0J1/DwC6dfsxAQDXDbTArLjx2ES1tB+lhJWWDH/aEM0U2tRUC784KY8WwgBHYqNQqdaycT1O8Vn42ZnapGAc7PglABVbvfWQQeVIpKl4wEvmmYTH1eyIrW8PhrBNJ4iOmHWLhCMmOWLWPYg2mKeEef6Cw3GHY9oiDTvw9gbp5h5pe4Ph9gGbm88Ybv+FtP0MSkfQIOCB4OL0xYmZ1C6745ISlKCAA92l5r61q9kpBEkFCQLW0Rz+9AQ9/A9k/OLMe48YD18hh//BfHzE4fCC8fiCadxjHvfQ6cVH9g5gHTHoZBgCFiNfgoB5cpBfFjCy82UBgPMMsKMbQkBGqGJQbQBa20tWhInkSa0Yzlp5X4GGNKcOjWgTlBZ2RA34lljDb+Yp6Lsd/8KLn/77tTg/AHjypMKPPahuPQDo9o/Y7yHxmXn1nb42BwLKoRxaZW3zCFbx4VnKtJT2Q9aV3z4T+dCC0YykgpqKVK5WARVCDTzK5s8L9kAv7VNVVaNlDVerRHEst2fRFwoALcpsdxIR4MnbIbYBz0hIpJi9PjBhhmAydzg9Y5qMi595AG1ukPZ3wOYG6eXeNAlun8C7J6ThGbw9YnMLpB0Bg00IiK875V6KByIahi0VXNhqxMF0Bty0zJt1AqYDMD5jPnzB8fG/MD3/X8j4BXIw/n3Z/xdk/IpxPGCW0doSrtiXMGPgCawTUsYREIpcEmE0qWJ3/lwy8oDKzzg+Z0Us5yeXiwL7XQjT7PsVXgo/00GSWB10WmkS7I1UGtx82z5qLs7Kt1jGICkExIvAsQkGvncE4KR/QK/uD1CtI4u9+d8DgG7vLxD4tiAg0pQsGf5ee10uizOSEpIQkhpCHV5OJyVDq4cWgLY8v8URV1hSVImrv1daVgEqikCLsEpWnMv7Ipd+rbrDpqy+V1hW05niaeTF09XvT8EBWKUjU7IazkHUaXpJCkLdXESy8nWmTqbR5v+VQGKvETBIBzC2UDxBxy3mww2Oz19B20dg8zc2u/+Fzd2IW0nYkWkPUNrAGhvmPTmD1lTbMnIJWPJztLY6Mm3gPGI+vGD/939j//f/i+Pj/4Ee/w2dHiHHr+D5b6g8QefJKgZJS9k+cdZCNFU9UmcznOfAF2ESvJlvgDOhU5EKEoguJkxKar6s0rTKfBQuICnnj5vzXFDz0VkWCeOKzm/BpFi8R+D/bUYszrHv0OnlRq/fafX41+mCdXH7UuF26CN/3XoA8G6z/2wiUsFLdH4riQNJ0MDL3wgD6Wnlsal1xuyIQTNjEMYgCZOyacl7VSBz+4mSCcecfI/KGGi0teTZMxW6YGIUl9CIFCKPaFkWq6HYr6UCwV5hYEe6ZyEhdflb9yukrWMAQr4fG8JVYIVLgcDfEwLhrAIoRQAn97czu5yQZfyqI0BHJBpgGHNG8ll/69ozVAfovME0DTjqFhM9QdIzhB/B2wNuPs1gvsFmc4+0uQUNNzBdeztxnKsgGbAZSi/kWsOscOIhd3Z5XaYZcthjfnnE/u//D8cv/wc8/Q9ofgTpM4BHJBiK33ADQHJq5YLUiP5HZySafGZfKveDn8zcEpKg5UChY6GZy1n1Qhk7n7UU3CZXzbygd1AQ/VnF0jEnTQUKLS9Fvk/M4SYPLttA4ZT/z6/jZRAWv0TEk4SpmVy50kIfHPUBeHlz1iMO2JfMmUHURYB6ANCtW+PcW7nQpWY4LuqOU8mgSKM63aXUxsrMdeRMT4MKz5gpYwa0crtnGVXSUA/QKi9sxHd5o/fSMFGYxdaqVY/AENi4fpxklwuvcEKO0FYpUPQJQAQVZzvUuZDpcOm4z4BMpgZnIYChzSk5Et70AiADZpkxizEhTgTQNICHe8z7R8zHFwzTAUgjaBi8DVOxFfXYOSgtcnCSHiQpObGOQGQO4317zMdn0PyChAMGHjE4Kx+RONBQihJOJg6SeC2ogr3NEJ1llijQSBKl9YzQyrVqD8hKrqwlWKCY8QcEPJSwqOhXboBwXcdze1IgQhzXizK/5yL2LOBEJ4+f3DPN2AKd6QNcaBF069YDgG7fGgicaxSsbTRFJEWr9rzVbbXdlDMJvQPSKghAcKqi3o4sQcPoWlA+U0S1Oge6US6JLlH7bVZWCvyk1n+OgQW1zl+DG6DgpKLIsgaHFXEE1vfXovVOJDXU8Nl0KYhHU3JjHgpfvxIwq2KA8RRonr2nI3Q6gKYDaBpN936ewOqiN7nycRIEaKEJNr0B76FraMN4AACJAD1T+BtYsCHFhhWDClIRE86OXbz94S2QgjegSi6VKz7LMfes06DtqF+jZpdddZzxX5zjKst7pjVWWgjhWtBvuUekrZKdXA/n6nC8EiDHf+dwhBeFN23LciviQfRaINKtBwDdPqSLvzoQOBkhvMgE6IIpVGmAtcjcSnDwyzKltplVUJ073TU5UApXMBMz+Ry2VMBhKJFqfixnfDr7OFwpCFtZNojGrHdNa1NAG2fEoZqQ183L76q1MgLTla9jeZ75kvW/UwlosmOcSwVkBkGEQboxwhwkEO2QSCAk2NGEDSYkmcEiwDwDrCGAqoyGoq2qYNHK88CMRb2SkmmR1FfciI5SApL6CB+MG4B0hIr18k2MyAIdbqoOWgKALFW0ZJdUb+O0VE35bFNd98K3EECDTSVAioMljkHowsHS4kq7KqnWN9xS+oYsvpX7bQAw596WIklVJs3qjr9bDwC6lU1Fr3zehW0sOwTVk4RLKylvkZANGqgLx15V+EomH3Tl2xZA7gk7P6BWiuCYkUNasBc1Gz2dHOvSmdtH1xruaiYYkemo7ZEM564v18W6a1VAhokS1eWwteAyey5ldM+4BHzGXDISIPezE4hmTDSDMEF4woYEGxIMPjZXSWAo1NKzbHNsU4hPBlBQe0KZcy9ZPfuPK+8RzWCeDPGPEdCj9+atXWGnWV1YiSrmwPkeUuaACFTPVMPGIO+cfWcNZLQA/Chk2RnEUVkCCeK0zYtzovqDZ+AXcsDAoiJAKw4ei8CAA+EUNTUt/ZZ6PuEH0Qp16wFAtz882389AChoeVxDIdxm7Vqyfy8tkxaVNYSSM8qseQRxx7G5CGCk1dIDxb6t1nG26jOoJoTU8g3EpSgOKb+H1tZBPj7VxUqolu/YrkVuN1T8QYSO5bI6+biijahn/vxMQhSSORFX/KM6b+5HMju/geoEwhHQA2g+APNoSnuYV5xL9gj5rEn4FbvLtT+ZQ9CUy81s53fWEeO8x2F8htITwC8AH8BpNoCmVCIouERwDqiSUmAbsk8rvriSRQdpggXHfUTaQ10FObSJiOt1QktHilqhUW1d8QXCnussVh7yUGBmDVyQ8IaphUCQjTUuYMrXegZuvrHfT79EaqhbDwC6/V4uf4Hi18gbrrzIsgMobpEUxb5poytAC0eLyj4Oaof6UBjbquQqaWTOyziB9thPtcvboCASthR2QERBmFoKjV0MDmXf0koIAMdcsscyZ+SWe10X0YSSNttuJIIpeatK+cECFEfgArwrtLweDEWdg0TOzU/eVxfDAUzjHjweMM8zRMTqBHnyoUkJfV3UWBLJaHkAzBAl4wvIzICqEBEAM5RMAXGSEcdpj+O8B9EBjIMx+LF/iwRAky3LLC2wTeuYJMrntyJOuRIRlfeoEPq0jq4ERY6tqGWWfD7ZLy9psv+TwHJlIuWcq1W+EAScXBktDuEUNxCAjvHQA5pfFyRDFfxPq4dQAtBF4LweVHfrAUC3dx0I/Bwa4PVZeD2DnspF/3T29Yu8hc6kOIvdtxXzCZv2K4QotBJQ1CE0aTIyzVl/JFoiNFK57eZPQWcAFdCmXpaXmt0yBqe65TLut6zaFLfWACXZHcoEpiGjAxwMl8nwuc3iKXqwOiRZZJU1jjwaKZHkig6r0Qwn2zV4Q0iD0ewyU4kzZthIJTuZDjMBkopMb3bkJdgsannaDKauZ+xU5gD0pGy1xKnQioAO3uAAzwP33t420AvXtOL0BC25MNDUCChG4FdUAbp16wFArwaE3UHOPJPPOsympEhYoMnrnhv9l17l6lFQ3pHcRQPGoMidFjng0z3UZv3n5n01HrtKWAtGQz2ocnKURNTsr3LVOjd1CXtMAlltrHD4KCJTMpeulVs+yhwXMCNTKdFDZ6+0uNNnAYtx6hMrOGkAlgc1QM+Gaz6ZakZOcbpB/PN95JBmC1zYqjhDIgxDgm4SNpSQyAIBLeV8KiX/HGwQEogM4JjPr1alCA/gqNWAcP4Aq6ybtoGUccpczVhiLcJ13ARn+qqDbCY9vjtmbm+GdoSWTyYPylUWBTCoBYmC5CpgH50U/uk0AO5VgG49APgojn/Nq9OraUNsHZgoTLut6AIImMuSSrWErHQ5YyI9HcijkPWVvE8rEFBWNm1ZgAaLVDDkRPOcFjwCMcjJFAESxs00v6cHDrqiFGdAvVo5KEOLFD5Lg3JhzvB0cKeu7XnRdTln9YkAJThHgNHrMk1gni0YoMpnED8rA/3s7ZLHRWIP+bGX8UTAA43Mzuez/CrITQViMtXHPGY3G5MhQ0ECsF8/FCj2ZIG2z5MZOSjJyID83XWZG/v3otVC0rkivrSVkHOv0NeqXNc4/cXfL/XtaZn1h5ZUmYzQhoL6QlkrVD1CsH4mkO/WrQcA79Dhv+0mvy4LuOo9c7lZ16oKi41Rl/KqwLKsW0vo7CxmPsdOa/n4AowY+/dR0S0/umBgi9+vxB7LbIlQAGanWRg5ri26q/N0yhr+S1LzcYKJEVEzFKmBrS9/d8MpmEJe5urPLYAqnBPHMk38xzLyMoiZ2wQBYFgm61hcKtFL9zkYFIHOs00kSAB3ilUhGLMJ/GhV7G0gqGQARg1RY4MxoWWlZ0HScxG5TxcqWxcH8d/yizfeT6+0oiiCZ/niyGnUm2quJT0zHxDi9SWp16sJQrceAHR7P0FAC+T73qqCBonehQjegknwdCNG9bDL4YQI3CoZ1Cnfeda1p0UyVWld58rrnh1bRI+xBklibtaMAksgFnoptffKJ6OK8fuSriC6tTpkKdMQtNirT5kHa3E8v5GEPycwBiBn6TqBYap61HAvaBVcylm3ZlZFFIVE0jqFQJq/vnhg4aOLBKhkYiCn+fUqQFJgcPngWBUi7/VLDLAoA/cc9OiLIMjUwSjkTZmbvyI3zo/btYFmXUil68h96qv5YrL9fSblOzdQU11oDgciJS7BIL05TqELtN7degDQ7eOFCd/9MkI7RZATc/aSvsRRcq19dy0Ke14Pptq3tZYnOd2tZ74kztFexXhIl8C9sMk3m2KATa0EG2F8v91Y6YpKSGzqn+zGi9n1wqnfksEQks/DUyMNo42zD7mes/rl9WcoZhgjHzCXNdC4CKVkri1vPKWVFghjSZRTVByVmjUvgsrG9VN/ShAUGRzDdypI9OLSmqkKUjphviU9xWS87gG1IdD558fhFvRBhBM4IyNeIhUdEdkkWddYuOjMP6kJ/Lp16wHAO878z2fe1wcAFEBjGpxj48B0qXFOJQssSnuR3ladcd7xAZqFcxb4LQOpucMnKSNwZcxPqSrUFUSdj9WR1vl5ygJCVYpVzyaJ8o3x0Br1ag1GoNLWKEpRgMr3yAIvBVi57JRkEaGFu2OtK0zOtZ9bCJpHCcuUQMRpeBlZXQRJs0Rw/pFQ1WE/D8kClXAE5Joz2emn8mkG0uPMNaAGWqM8918inBBQqJxelXru2tQ3BACL55zrAPxk71g0DBYBpiLSG8eDUbBWaelSDsnBgl55T4eyXKDm+olTQd3+ROO+BN2uNr1y440bnJ4LOuhCKPKH5yzKF77D+f7rNfhuLNaULr1JM/yR1ePqHPlSyvZ0LJIunJYFWyNaToiS/dNZ4lz8Gj+kv/0tpdTiQEjPsf/SO/jG3XoA0K3bh63Q0Dfepks0OWMpFvN67EAhk17BL1x5aHpx+6CV797Pf7duPQDo1q0bTicjvue15wILfWPAoSWLX8lRV1L3+LkG5FMJfQxtSZuW1YBuYX21R0zdegDQrdsfvpfTSlP5NGv/Nkd4yem/7f109ZE1jfvLxWRd8PJWxsSWhOk8N2QvVusKL0F3/916ANDt97O+M12xQHT2MQJ9A+qszbSb7Frb99dX3X0YN4NiHUCggcDodTGopTcrdL7lo+hNoUivB3Tr1gOAbr9VlqLNdMCPyHbefyyRS+OZM4FbSmXigq5fXVOt6nZR1dAodblORhSRoeXHB5IezWJLQcL4FZcTyWXUU3oRPcnbl+QyVfiGSiCg4nP8QpeUdN7tvbMkqbrE05HPSBmf1D7G160HAN26/eGVgG/xHguQ3xrB0LW389myvl7JkPPac3jl86MwRHdjvSrQrQcA3bp9iADgmqfplU9fov2XP6+ACmM1YOFSGtXC07Q0EOjo4lBXXkc168/vTVRlfannst269QCgW7ePndJlh62l1Lt0+NqIySyjhCg1vCZy8wpXPunFcEUDuyJoSZS0OA5aYByWUsjfEBd168vWrQcA3bp9yK38pEWsP6ClQMv31wuMcFFzoMoXZ79+BWsyFrzRfQSwW7ceAHT7g9PW652ZLgrEdP27vr9la3Xh6y2n37ACtEjeCet4A728yHq+YrCUHz45505dfM6fU89Zf/qd163bj7KuBdDtQgYXSsFYcTzO2b/cqGJHWtiF48jU4khNMKjxX+/Y+Wc1QhuOd2liCuQvJBUZr0t0fnWnRQOhEfAJcbxLJSup6Q3qUmzB+fgVLkDEJ5MdnNsRLv9bT6qWy4CaAEJrncD5/pW06hssLp0iJUFV4pc6L323br0C0O03z0EoloVppTetzUbP2iabQZm1OoJ3n/lH55vH6TQ4VXEHmKV7FesEOQv1GBfTAQiiS/V4dYEjwSJKqO9G1MZexbEHkqIsYdwOsbVnvBV7cAVIF5GiVieAF99HqVPevCUU79atBwDdfo9g4Ke/4p1u5PRjJGkzur4w7uUM3COsaz9BrwIOduvWrQcA3bp1uyJXu8KR0pI851zmv/4RDWlMZt+j00G9VW9P9Go0QEtMgC4qEf9AENlD7m7dfrx1DEC3bj80AHjDtp7n83VZGaBv+GRadxqldYNWe361CnDO82T2wB/F36/f/D27/eDgQpecEN16BaBbt24/yARrMPwKn1sy8V3HzLfcrJfVBL2QQdI1zn/tlVf7fl35U/ql8AvCym7degDQrdvvGgyQrDjLN2TVAfSX5/MXDxekpS5dyLUfcy0+j94e+HR7Wwi1umo/aRm1T2T0AKBbt24/YzvXJv8vf9NYCYgZfhCOocUG7UJAmscLQzqfAYGGDZivqCQs/xIOtwALafHc/AcVQOL5D5BAeawhAOpVgVe8cREFwveFjCvnnLrD79YDgG7dfo3R2S28bvDXlf7rMKbRBa+N0+k/lnV3h/JPXE3duvUAoFu3374KAHfdFzZ3vjK/UxQuAPuDShuAUEcFowTwr650dPt5EUAPArr1AKBbtz8xECite8WSd79xpGcqAo3GvLcDLgkA/XbobpIeKPzQGoD25ezWA4Bu3X7bLZvWMuUlT+6yLfCtVQa08gP/QJDT/VG3bj0A6Nat2wVPrIFVmbAkBrregWuuDNC3ut43iD2dfU0NZih8H9L1d6ceJXznObpwDrp16wFAt26/0kJpO4oeuPRuRMxnBLY5/yz6IyAVkI8LEinEpH2q24zocCaA1fl9dMVnZ8EmZ+M/kRVu5/XNKWfmfoIqgZDsMdWmjJGnFyxUqcfL7KREKuC8wWgdfzTOI17MLX7kuPBcO6QqKOTrJqswUry2CtYjn2+q4lJvPZROBNQDgG7duv3oLO3SswN4TwEiyfh+1DE5E9gh1M09P6Nk/UtgmC7KDGeH+/W8A7rqq8jJx5Uw3/cdAAAgAElEQVRPclXB3BCIPp+0VwDiOWhG8hbjebQaZK4hP7rAUre3WacC7tbtH4kJ6Me/ZfydnnnWT2SV0R8QEHWjMysYGB61T1t06wFAt26/scf3Ur9nyG12vsjUtGbbpr2j50V74tu4I8jyvhoyyAaGp4sJg5/lP3SlDaE9K728ZlbvoZMsvpFkWgkIrlxT6hMC3c5bbwF06/ZTAoBQ1qW4YXOb7SmXDX81sTtXJy8MgPY/KiX7t6j9/JzsVREDkH90HOEPzPj18jMWzI/XX4/duvUAoFu3fyAeWMHAKzfO/y2bN60EARSz+7Mxyc92BAYcvK7CQH37KScmzEzoNY68r123HgB06/bnZXmOsqdC4RuDAFqNGXRlvp9itb1Q9tNpAZno9D1+YHJIl4KB1WfTh78UItpel4Eina5YAXuqXnkGFJ3mv9s11jEA3br9pMzOBH18dCsP65laj43XkQZoPIFodsep9blkGbUqwODqMohASo2zbx0/rnK2eaRQIwnR66lo48SICFWnyMfVyrHIIvj56P4/TG+Ef9c1XQQH+XzoMoSLz12OdsYSTBCh0u8lmurWKwDdunV7g8U5b5+Mz8C4iy0AXXG45/vp9Kbs/AdWNFajitcyfe6VgJP1urSuZyijm4CKL7y2W7ceAHTr9tvkgSUYiOX/JYGLk+eUjI3Ws7dVpj39J/d/+mWhyPu4Fs49JrgOUPHK+nbChW49AOjW7Xfc/JfZMr/5Hc663J+277/ljXk9uOn2g4OGbt16ANCt229qq1x5K//Ws5t+7PV/l0/u9vs59FdomtcDx27degDQrdtv7vpfK+OeEr3ogom3dgEcYPcKzFvo1/qJsyTDC/rf8jvqmMC1FaSrIjpdBAKviAT1he52xvoUQLduP8Ppk6OuSQBn9wcECgUpFwS/RMEgasf1Gv6+wu7n4j+FbJAKI+CaC8itANILviI46NI6ICpJKenCxWvWBiKoKIgrtz85iaFSZrgTnzKon6EkHy4EtH7+ab7FGb/h10k9P1xmKbLgT8aBEtT4FjgVMSbCDGBjn0FkEyaYbQplMS3SXAPcg4NeAejWrdtPDwguOwhdzYz1bAVB3/D++HktglCqoAvfee13PTFdnBy99hzqyqpq4ZhYXlPduvUAoFu3bt26devWA4Bu3T6MXYkF6Fn573v6ThL+bt16ANCtW7dv8Sa9ONytW7ceAHTr9sEsY/rOZfu9CtCtWw8AunXr9sc591YmGLpGE3jmNUAQnDEMvxYOejoRo2mfG6MLDzBUzx9ft+vPqa6IOb6V6ZGoCkOdFRbq1gOAbt26/dnp/RViPicA8tc8UHhLLUJHaEb8rnLw3e+8PZjLgdzqedErL4pu3XoA0K1bt+gaVloBuowIonxtqChQ0CY4ySgVq493Jbpu3X4f60RA3bp9BFtzvHQmT9TorKn5hSogqiX7h7YSxHT24wldpP5nRXH6Y57TrVcAunXr9l4cw8LZ09L/Z4a5RYYPnGrPU+5F13L0alUaVetePVDo2X+3bj0A6Nat2y/N+t0pLwbJ30oaSGfVh1okGl0tZtPt++I6X/sIDbgyw48tmQ4E7NYDgG7fnVw2GeaFSnOEiymdfdJ79cNtNk0u2PPLXEaA5xMtnHU8PEf00zrAjE7cu9axwkXJocvQX75rCKaLYJhNRiH7hwCYw7MYVchBQ+xFNRQjPnc6L4Zu3T62dQxAt7N71VI7psnvqIrN0GJjiRtM/j2ruFiMjyARmWAMhXJyRpa/B6fvvXFdbMRUBHx+wfdsBOG0nsMiLGROWhvnbwdGouW4TcCovQqYuAj+lBE1zfGFXTm0CDRI9WQ93v1tRNHZ1zsja/DMcGEkTYAyVBVE4jeOCwhp8iBA642ZMRVMJgxE5H+vWgC0chyIWIzekukVgL4E3X7WpveRNvofUkX5hXWIy6mivu21V2ae/Zq4dBW4YiS9dg706nPc3Xu3HgB06/ZR7VoP8E294O7F/5wT3K1bDwC6det24vtbUFgHhnXr1gOAbt26/fHe/S2BwFtf17PPP+oEd+vWA4Bu3bp1x9KtW7ceAHRbyQRf2/xpxV2sv2ZJMpP/fUoIsyCjueCA1iYN/0iCGXrbcZ98b1oCvl5n+qOABF8+v3m7q45LX/1tbyfgzPV+eu3WM0JXXg169jxr0AggonKtLY+jn59uPQDo9hsFF9/kCv/YJPst6/H9s9txJlC7Kt9vGBB269YDgG6/s88664Z+mHPqe+GPPmHR718bqXWP9Y6vg27degDQ7fL2vla2vOQY1rTfV1Dlr2W9RYCmr/8Pbm1QdxIfOQZYuRe7NkO3HgB0u3oDeS1pzCx3rz3fJGX1qvd9t5sxvmHkTvVtM/t0vYfXK89zjxi6desBQLcPGwic8UtNj/k0cNAV6dmzzoZeczzvwPlc8RXoWzL5cx+2fno6EOw3MLp4Pej3nfoeqHW7YF0L4OO47vAnve7kaf0d7GEJLPeFDd4/QsCZh1wUAoWQQggQBkQAhto7cObLDxzn+T3JFHNYguBJEarPJQddxSW0lKr/RJkzCLcsYmwti6uG/M5fO3PGK0CZoJ8IKWPDFVAK2H2l5qs1VP209C4L1L9qwJGH94d9ZllTys9VPyfh3JwJIsgPQP35Gr6/hkP/WPcdnQ3iWMn4/wFAuego1MBNoCQAxAWXsiaAADTXc6v+OM0gAqRcL9LzvG49AOjOP5acw8jdimKICdWoj4stMv/gqKr3UvcXajuPBwWqYj9BllZZMWt2MGzaZyLmMJiqk1GAwKaHQlQ+R8lFZdxjZYEVoqg1WI+b8nf6BU6nfFb+PArOkYI70KrjRq6ARICJuYiCzdsXgR3R2K+l0D6xTb4VeLE1aUSciH3xfSQs68hqdvgaAgV7vagimXqTRW3xWqK2ElS+rxIY1KjVabmeqI6nUW0Tvfs+dBY+UFoNAEjyhUIgV/1TiK+RBc8KgZKWq9pOnZhYEGlVEiQFqdp1SFpaTSVAz8Fe7/136wFAt+sz2WU8cebx5WuXAMCTvEhPA5Xw1qoKBpeKxDJrvb4d8CvaBrRI41+rPtD5FQ5Jo2WHniXS6eu/55tRCEiUrjmnb+WIIPQS9LmlpCq9rKdrp2uVnRLQVbwNrdS/8AZGgW4f23ptqNuF7ZwWzi3Wly+h9XnVIbx2sRkwrjq+t7my36PK8nsEbd3eUaSwcnrP3HuxFdOz/G49AOj2oxwJnWw8tKgIrDWfz2ci+TfXOvrzz+OVT5B/0BnH3E2ufzatf+dcuX9zUNT3/z/c7+e23aXTWtn+LrMNXr6vugjUx7XeAuj2iiNhEGSxQVAtW9LS+fPphhUq4lTwgrQo639rgHJN2XoJMvwZGzadqQZcAbpcPENf2bDpwk5P2SH0COC95f7Xxw3NXdKvg249AOj2HXUA1e8AD0W0+qJSQIo3ofO0kg3Eo3t9G81gtp+6UBlGzzhFO7wtJdcrwpmzIVHf799VBJDxr5blnwuCX7uB+1J2W7feAuj2akZhJcJFCZooPuEiQQ2BCuJfm0k+XUli6Yp97ZqNTw0l/ctNgquWsnGrzmfLrBRQ8WVdQ+k/gwB1RUCIypr9JM9PXBDpywglEzoRAJV6Dfx4FsOPcJ9pc7/lUcqM+MuPiWhznWg9GeW2bIS1VLswU7deAej2s0sFuS2g54MAn3svOTKdiTjOfgR9QzLzCzc+0lc/t5Rk6bQooWdincjLcA6s/+vcreKf/PT3e/v8KNqnfi669QCg24/dntDWEhdgQCJ3ZnTWZ9CiSlCqASsMgT90C6Nfmfno2T04ahwYARChKYngtBuSyZD0zbX9rvb3p8fSzRWl38sG2K3buvUWQLdvCATWdqNIVIPQ738lEb+yVPzHlZTf0IJQAELn87hrv7k6uY/+1InE7oF+vvNfwfprX/1uPQDo9lvYMiOxHv+1lxVp7RNTdzRvSwmvyP27/elBtleJlniPjqvo9oOttwC6/cCqAK2xBDSOf/2X643tixuexib660p3KvRLloLy/H/uZVSS/YsrmHFdy+S9DFH8BDT3Ok8jvVJy1leCwW4nZ1evuYdOA75S/u/r2q0HAN2+a7PXdYAaLebXGyJRd1zk2X3xZ0sO99yrVgI0eRnauM0ZHJxh4KEvx3XJPVFAyKMg4KzDoE0AIAA4UAMo2hlool9DBaxeAckc/2WEMgdIus7ixsHxEriZKFQTPQDnwCKcqYjwzmtF2nzz2hMoa8CVTzbrKqBI+Hj2mRdy2VNY8i9ou8YUqxDaUBjn8rZ+iIw2CGCcBATxd8HZU8WFFGEmLfUAm7TIrxApIJoi6+BvqQ0Jl6zHzuGM9/ZCDwC6faxw4Gz2kV1sdFuqFgTQIj9V300MnU8hmCDn3aHghjUw2uWNKS12JMarKPMMg6d6LFkpsAQvZEl49jyEXyAGVPj0yQCPy2yaaBFsnauOVH1EwLABpFpWktRElM5llRQCjrJEpCeZeqFcXvyu6AJoKE28qfSg5Y1a0qKP2Jqgq56z1LcIWkq1skZZMIiyl2/Cdl2EZhp0uojW6zb/qGBmtx4AdPsTKgfBaV+1UVy3m3y/O1hmorTCxgeXSf3VG77+pHOhJ+MTFHgDfvACt9+Llu4GTfAVpxzW1+WjBQDrctAhyqrnVBu3X3g3QnJegqnCsXBxvbt16wFAt7jnRLKZH+DkFCb1e1pa13VnT21JVFf8QpaLPR9onNNV50VOoyEg+L03yYtjj1qKKauteOIKGPvh+IAiJbt+XETt3+nMNUf4eRxFf3Z4oA07NXmUvRyNpVDiX7sLv/XcElEHjHbrAcBHDASuF+CpYiHkGvNELSgpZ6XnRtVjtbK0BDx70ahj/xYCgKJDsHxRbEHoH5ElxaIFaRtCNZk2XaA0+FkAQV1i0HQFs5GvCzobBHQu2vUVJkQ8DUGlrigRe0sJDdPmOiXw20PMExxPtw9pfQzwA1cDXjcJP3kzqT/VGcTH6yZ2OcNonfP1LiK8rsEc8OI5/Mdd3krrgdPa5v32c/nmNLEpS2c/tBYkrgZbip9/jH+EnVemzE6YVnA4QK6sUFOROQl0zzl9+l3kqbv1AKDbh9jcNG48hIIuX3fi3xXC4CLKGvRu26Oq6wFTC4m8HGy9rQxw4cHgqXou+e1XMgPgoJ+Qg4K4qlVyQ70Kd00T4PxV0v7+unHabu/Pegvgg9lyZOx6SICGrAWQnL0QIereUxj3i6NoGkVudMFuFmDKzOwTAq8dmJWWS/nUBgHDbxdZ0q/Y264YNVyuf8yS87qUtWE6QTaw91oyvYBqqMiInNETCAQDK+2b1cyAGaRy1jeomtMC6p+nH0veRtC2chHwKO+qOpCZH0+ApwpVASidrs+sNYDSGsIR5fBaW3GlEstJ49BzO0Ed+t8GD+J/toBRPanSnKP77tYDgG7vLhB42+Z7XZM+t+f1TPYawX/fx/uvreNthIhWpgHo9z8fTUGD1lde0bflb8+1v7v88fZAcG0y5cxZpAuB2WnDTEvgHdttKhYESB4ZFWkAf0ulwIgJUnS2wR4AdPtg1YBrbvgylb54LMKYdVXYJ07pt82CH9R9WlXg+5M3MVpd/WvOVNtPpl92fH/Gmn7LcX9rEHDKs3GKul8AKsu9eI7ggVYzdy11AvFfc5EAplh5oTMBZ5cJ/tDWMQAfzuH/WhM6BQN+32HkzGfh+BvhnWtaCL/JOSEj+4lH/F1ZWAaO9fm73/3MA+60aVEc4JPQpVIprk9b6Nnrhvj8WG0MAnog0AOAbt2uyIJOEf/VfQkuQdHqW3AVDPypl6D+MUu83ITPwbVeKQGEIOC7I60/e01/2/vn9FyvQUcKljazZAb63kLjHIIDaoLHliSqgArPEDY0GINuPQDo1u28syecK6m2Gxmt0sg0POXaujpSPZle0hOCgcpbn3v/GUlNK8eupBdogPWK77/mjl+pTjQ6Ba/47HBwGrmLymYd8P20mvA3eSL9sF63XioyrFwH782BvPV76co945Upsmvi3CWhZ9iWKLTYCIRWVIEaquv2jC3uo8zVcTJdsDiHPQb4cNYxAB/CqqjI2e2rAQXSqdNTF4qhjFpe8t4LoAJWsa2LzCWzAqmEAglKA4gUSb13SbO9zllnVMSFcUywpmAFXD+AZwSeHwXlfidWHGnZDM8S558fI8ybd2TgeUVQgJbtCWIUGSWPCXhlKkE9WNKw1kRqlRKdQc50qMzwZQMxQ5UrDIMyF0KMIrgQwysZnwOV70zFj2icxlg4odyaJiWwEmawv57rWin5uWqxCvZ9JZyX+hz1IOfsoOibCg16mSVped50SR6lZz6UVxiYDNFv+lhapjfsLM7V+TbBq5+/4IA1KGtkpkyS8FUorjAVXghlwpzvZwXYQX/2Ii6vN/0Iv6/yfap+DMR23EQQjeH6t4WQ3XoFoNt7ChdoZVPVV7LeQl6uIdNHyXx8aM+3JCPpoUVOnzdcWqQjJ/UHdZep1zgLafkISkYmAObFvwO6Ov7+JJtbwRiQ2vMxo22JvB6c1XVgP978Rdc+Z1HxWAw5rME1i7oc1pLadTQ6NaqD9Tcc1rwGldRSPJ9x6PRNzv1nZviMiwDBKxSk4hjm+o2yhllZrjuVrZhcNIo9w18qXosackDV/kEiIEhD2sQAuGAJgjx1/rdoERaqLYPuCnoFoNu7tNcAPhEM1GSBGub1olKfXsqBCQIyYFvh6hHTDijJlmctmjN8hShKj7LMP3vuWyRmA/mJYsmgJq0vJg3uKzKjrZVq0ZRU1zfudc3212qn+TtnRUJZbv26xEycm8Wm1eDmpNysttZFQ4D0AiHTN1xLOagqbZtQsVh9Qc5+ddWvkr69AnDql+nnyD2eHISEU7FEaGTlBA6HQotqgt8j5HLP0oTKRZ6ZyYPkHAnqSVkrHF+Ua9Yg4R2uI10XlKCgVUR0+Tru1gOAbu/Q+Z97zbIcfLp/aGX+K5rvVHr8tcQZ+vBOVBL/DmLjB3AUPxUt9LDvhQ+3f6+UcJVKEb1xMOVvc/ttlqnViXDQgk517fc1wUYpqZ9x2JmgRUsrJTqvk/y7buTaYiZqcCMhKNPy3k2AQz92LFJjMEHaBCGro2bhXFyjCHDJ6Z/XWbxOcvdcKHM+oj0ncrWW7efvz2c+K1y81F5WTORleikzAevfMZMq5bn9WHWDS0jn0JhLOV+DPPRS0jN/DucglXoI0AOAbh/S+S9JQRaSZCebobojannpV5IyqhuTkBq73LmtlhCqBCUhqn3qk1nm8JxyAJc2c73sfV5dLj2zxrSSsS/WAs7IloOEhZqennhAOvP/7HTpxCHRSStG6zq+Pf1dDflOM3C6+BZFwfiKAEDpfCCgbQ3qjQHA9efz4u+pbXOdvp7Pv6+eSjuyKtiFf3IAq0TGAOmleSGv2CsgSkgNXWSOAysnB+VCkK8NMTefWekG6n2uugai7dYDgG7vJhD4tjEfDpmzBha/M3zzerp56plsuErbe9+cpEKQMpWwViAbe89S3J3UlqacZOJQqS2AApzODk0ue5+zj/EFJ+HvLSsvDWNcgLdFNOCvXWWxtEYWGHuN2X+bW/uahbxRPXtUvS6t/kanuRSBovJj52n5mVpAqNJ2lYBVQqi8LksT/YbR0bWo4i1rQqfXy1LhsCXViWftNHYo309zrcyv6Eyb7PeAgiBEUGUIWSBA5LQ/Z7pP9crhet1pqA75cavOJcAgrygoWbWgjwP2AKDbO7Nvvalrdl2GkkMooKvOvxKb5I0oQR34p5r8lZO/fwbOTea0uXLi2/ulwB/MVs4kqmXowCtMy965ttWEtgzbZsg4mX5YyeRO1Aa1KVsQLbPxlSJyk/37Kvoi61r270EPGuehDp/UMGiZPYfWiYDwXk3xRHVxbk9DmVjNX3LQa1N18EaPT2QUzyTt8hVnT7QeIAbZWyUrixcoqbZthPqNLlQA9K2ZPtYz9nKdaaieL+sZuljpGsyBPDnP12MJkrQERDFGEUflKxGUCRMTJk2YffqCySYAJL8+CwR5W4yC5oOdQ68kZOzMEntBWSegO/0eAHR7d1n/jwgQWmIRz0I8e8njX3EDyShmCEFnhkiC0AaTKIawuQtNxlIGAWS0zd7HkwpYKpe0NSOk2f0n1zQ6V9VVgh/P1YIm1QzBjDusUtKNskVkuIQTB0Mlw/NirTu+sD4NPztqraIUCYq4a8nURbnFLhSxn1LENbehWYAn+PecRSpAuYJCp+KyRkN72gcgWvK/axMP0SoDfa09Z2EoUrXjypK14u2kkKzHSpCGSUhlPvHl1i7x0UkSLDs86aResPT1sZV1vv2z5MVvyXnEr0+CSM2gmWlRAVkiQ6T05EnzNeIjscDCSWd6YMv2ZwUmYoAYwowJjIkYozBGIgycPPiz52RUacXoVkS/jflJQw6Fk7pM9/09AOjWDVj0/2tPWoMraEBPJ06C3XEyBAmKDQQbCG4wq4A0gTCBaAZwLJkJEUPUnD2p2MbGKCME+XO4RCDhsZLFOBAxljCJLNPyZE6yo8+tASUPGvjUf2hgW2uCg1jxUOT+aQ1aqiIhaXCX4XgzMC5n6oqo4MdhnVt6o9IyKOl8C4qg0FbgON51gjFsH4gBzMWQcaHA3BS5qZIznUAp8poznZSqs5phrgxwEx7pCXhdS3AiwdnFEj2XtWl4IXAGzZ+DI20ZDLJ6Hp0JFEowunxM62xKy7tBYB4CoNMhewrMZJUupQETEUYBhBJUE0YaMGLAyAMm2gC0A/MG4C2IB4CG8n45yIC3C3JUQIUDYnnOvYWkXKpXvfzfA4Bu79Shv/15nu02NKRtVmkzxYASW35DDEXCrANm7KC4g9ADZiVAByiNUJqgauVMEJDSDgSBzBNmCi3zRICIZYiqmGGkMnlftdKwnmDu1QMBNAyAYU49b+6ll6znvZ2eB/dVAhjCqxh3pdYRKS5Armnh3C2QiQQxCGsAIltLXTj5k7HGc+e/AsNKmKe6ciUsk+52TPI1iqTL67PWulhPXEkB4uX5iMddwwW9aggiAvuo6ePXUIWaihBzlNLW8ndC8tn6ILftgacIFeKmSDA0s4B4gPIGsxImAmZlCG0wwn6OusVIO4B3SLTF7O00kxdOfq3yScBql2edFGkcfCQVXASC3XoA0O2dBAHLLOV079UzwYCe2dzjjHHux2cesQGKAUIbKN9A+AFCL1AlzJqQZITQEZNvWxqzVJ6cK8DY6sgzFM3D8zpjdvQ7aSY6yWNVtrlx2WDLiHXIPJfTCm3WR4v+tK5QHhOtOZrWWHPxIjAleq+1RRpozYJPnN51nAsUmfQ0sMAV3vd1kuT2pNKKUt3JGW/jKG3L33RBqvDceH7xzVqrS5GxkbCugEjQ00mVghFRhHrRZX/mLaDyfYhKS6eAZnVZr8iXDddjVC04FfXyPahWYHILYZ7EKl0KMDGIEojJJmN4gPAG00wYod73t6x/xA4j7TDxLRLfQPkWoK1t3eqfh1QqXfkY8ynK2AVunL+cVG+68+8BQLduIXOpTlLbDu7CCXGZbVdiYNhis3vAzd1/Qj49YyKFTo+Q+QkqzxiVMOmMhAnwUifpxjZEmo0a2KBOpa5NrFDxzVYcaS7VVRLINtXgYilkXyD1/b0FC5qTrMDGEgRk+tySOQFtX5nK46oovXAgAt0Ua0lzftfXk/NIy1oZ3OM3jLzu5dlKZ1ztpbx6GRAuSHv0dBCxffv1IT+NRQ6llgzoJADIQUAIv1YIgzSMlbbjl1Kc7vUy12idPIUAd7EOOTBQVYgE0qmMWwHses5kQE7XTOotraQ+nueAWKo8fSoDZk04KmECYaYBwltguEEaHrDlBwzDv7C7/39w+/AXbm7uwUMu/0fK7MrBEddfifw2OK8aGK/hbj0A6PZBTFc2hZzhKwIifDk6VfrpIVfjAWlzi93DXyA9gmnCYbuFjF8xHx8xHr9gOvyNeVSQKGYkbImRaACTINEEpsmmBGQCwAUSABbbeAk+D1azZfaMi2FD0yp5wiBXJrQcZcY8W7V04exOMBD5cWqdUVMSju+65gbFkeAVeyBUCX1IaX2UK2e1QOkdl6Cs9Jp5pTbPNetXKpUB0KWKPJ3k3aRGRk+y8p0IbVbs2fs5Vbs6iVd6N0HnSFoQnQbnX0QKpLQ8OBDmhOgCTcsmgCkL+l7r+SjH26IL0Ia+izUJayYiRUGvBHxMEHGBX6/CQAjsDpqH5OfC2mQiTuurBpQdQdgrMHMCeAfa3iFtH7C5/Rd2m3+BNn9hd/+/cfPwv7G7+wza7ADmWIfxYHyJtViR5FoZ1Wyvf+rBQA8Aur3LzL6ZWV5mAG2JO+LbT2hz4eh8Es+CEkgGYNgh3TxgiyOUZ+B2Czl8xnx4Bu+/gvf/xnz4DJm+QOQFkx4w6wEkR/B8AGME0dGqAGRwQmWBygTiGUwmGKSR/hYKiDRUwQ2/uWPQcs9WdbZ4hWM7ICaFBCmer7Y86v4YyvmR4Y+yxoEUZL7CZ/XDqGHyP+fZjytkkxn5ZqcgALuCDyKnWZbMCpczVyQQJYh6jxgJQgyljEDPtQ4BUVqvipfyeell+Ova59tImue7WZ/AiaGotDyCZG2YaqAoQMMEVWmpC7hd16iwqJrHIO29pQIYCpxSPQOPbYOoxmeYRAKplOuelJoxRUVyyl6qYNhcfSifyXVe32pWXiWwagARGyBTGYkSiLeADJglYVTCjAEzthBKQEpgZign0O4Ow+1nDLd/Id39B2j7F9LmL2xv/oXN3X9guP1PKG8hnMv5UnAGmQsiQ0woBl9ZzOtMdajTAfcAoNsHDxDWS8W6yPjbzKk+NwHYAGkH7O6xYcFwcwOaJ+h8hB6ecHz5G/P+/2fvXZ9luZLrvl/mrqruPo97AXCGQ/ExpOwQHbJsySFbph22Ff7gv9j+4AjbEVY4HHboraAkkiJNDmc4w7jIc6AAACAASURBVJkBMADuPa/urtqZ/rD3rtrVp899YXABcHYiDs49r35UdVdmrly51hccD18wjbf48YZ4vCMe75mOd2D3qa+XiAanE0c9oigiU9qD70Espm4fw4z8uYwK8vw7LPpx7o97XeDJ2beUzhNdNunlVZKy52DnbIQkoPO+teWVPKkMjZ5wqzv52fpyfbKqOK/gy9xpzuSwc8/61P3Ra9En1qOEV/EQyisiIxkLB2K9t+/k0Q0nxkC27NrPr8N5pn5+da/StKG2tF2QmYyYyMlzKTC4LD2/VMdvxlh8Ld2La3piovPmSblBI63vmcgMxadxWAeEvJmSZvriPZP1jN4R6TAZ8P4K6Qe6YaDre3TY0O2u6C6eE3bX6OZDCFdIuCQMl4TNNXQ7XIZl5FDcCJfKqRJT8hPPDOXNTKpatAKgxa8EIvDq9Z+nVNgXDf7F6jTgMuAakd7ouoBsR8QM4gTjnuHimrh/xvHwnOn4EjveMu5vOT68JD7cEKdbPD5gHLNgUER9QgioRxwjiCd0IdsBRyJqEbOJNWfB5/34yALD54ycLth+imyUy2QNCaeLaHztMaqJg+cLgnSsdFEwlFrKyFcJWCrd+Nd7yS/J9ewvvUVjV2D4X0445x3rmS1vZ8g8/9sKBG2lY1VW3hOc2DPPhDute/5VcTWzP4rFMxUB8ISUUdMaijQvrjPsn1ZXHXMhmhMLUkBi5rsGjIzEoGCaGftD6vh1g3Y7pE8wf7e9YNjtciGwo794hm4vkeEK6a9BL3DdIt0G6S5w2SDSp2K7FBzuiFrCl2qDqTNrkS1atALgVzjxnzL/3+FWWBTz5qk6pv2i2+OC0xE8q/xFgzDmC98lsn1GP93j4x3xcMfx4SXj/oaYEYFpvCPGBybb4/EBsQP4SGAi9U8dXfY9dY24jbgqapHiVufENJ6ok89MCGSBlnlFY1++EEeNRb3v0bGou+nHCdpWh9mqyaxWGT4sBYrXdsIniEtRQ/Qax1hY6nIO2z+b6F9FRnwTISl/7e97Nae3qsteURcLwa6IJXk9qpJ8vkqBYFXhuXTq4pqL0AWJWOqEMkbJY4ksVmAss/BaXGle0yvci1m8oaApHdFJwj0ILnklT/q0py89jhJNiS5YVKIryAbCFh2u6S6e0e2u6bbPGS4uGXYXaLdFugEdrqDbJSStuwDZgvSI9rgMGB14h0gHHpYqUhzzWBH+lh3PNtNv0QqAFu+EENQJ4xEPoCQwT8xmk9JpKdATPaJuqBjIBLpFwgVhuKbzIz7ticcHwu6ezfGG8bB8TMc7xuMt8XiDTff4tMf8gHPE81KgExNvACeIQmcIU9I7z7B7mk0vK3lpJcpWa2dnu+BHa5TyxEa78Jjaf5LgqyS5SAQtbO2VYnFOhpJhbCnJs9I+WIiZmouBE04EeTYs9thf7slz+m7uka8vG3z9rMvhck/z7yoDewWLuGtV3hR/ST2pXE7HUOVfsrYsnpmfT2wIzF49sjKaFkuvHc9kh8K2j6aMrkQJeb+/A9kgusFlYPRA1ECUDvoedIN2W3S4ot89Z3P5AcP2Ct1e0W+v6IcdhCElfdmADqAbkAHPBYXT4d7h9IgI5pnwmaEiI858EK+4Fi1atAKgxSuT+5td3XPHpo/HASnlSOpOZpncABhRDDdLKoC6QXWHMIKPSB8J/RHdPEB8oDvc0h9uUwEw3uVC4IbpcEM83EK8g+mOyQ5EPzLFI4qgTkYGIkGy57rFJclLJr9pkROSbGMsJ0Y7S8Kweqe+yhLqJ0l7Zd3rVVJfpaGTTjwZu5icqgOywNP4zJJ3rUjxUkPfRjFTSnJJcfkehhLzPfEI4v5yXeGpTPCJzO/8Y8uz8cUg2ijFjM5rJlJrIkiGrFWqAiBrQGAVCVBWhLz5kdnJgyiW1SyFx5LxtTom63FB/dpGFCN13dGSRv/k6XOC+/vUqcctph1RhwzxX9JtLuk3V3SbS7rtNWHzjG57RegvoN8Sug2uQ+7yN5j3uPcIPeYhXaZVUekSudDDspkii+X2opDIvBShr1rhbNEKgHYIWiHw+pHBkm/cTwmBp51wUjxz7xILWpKef5S8AZ0TlXjE1TKEPyJhRPyIDPfI5h493tNNDwzjLdPxlni44bh/iR1fwvgF8XjLdLxnmh5Q2yNyIPpIlIlO0u2jkZDFdt3inJAKS1+zhkG1L7BI9GZWvz4i4eV96Wp/3Yv2e9bH9zOOiVbWzqTG6X1Gmr0irS3mvp7Z6oJbSoOdSDXiKAuOpQhYPkQWFGBhrttrRwDnlCEXyaLl72pDqHNNtVTziCVBPXYfSluKjzt4qr3/+meFbFjIlUWSd8VZ9DMaDNTrgNXjzkqTUnEIkkZ/IRKm4iJKErnCeyaUqB2TKRMhjb7CBtcL6C+QfkfoLwjbaza75wwXzxi21ynpby/R7hK6LYQByWQ+MqxvbFOnL5oKAQmoBFQUND1Gz/K9ngtEK7bceQwgs3eGzNoQNaL1WPipRSsAWrR4bRHgjxTzanhcKcm/9GhaaepZ3femWaV7WiXzHtXUvYteEPSI9ntCPOBxz2D3MN4xHe+w4wvi/lPGww2Hh4QUWB4RHOMDEweCTwSJBEnJXz0m0iCWCoMsNBRwkCnrpZekIjPlLCVuqRjn/mT/WzKKVMtoy/81CxxV6+mZOW5SqcPOCexUdriyf1cnlGNZdN6lcueTtH6ILB33zHXz8za7j8/3Sa5+hBR55dL4CoCgFj06hzbl3cQ1H2K5T5vhmMUmGlfcFhc9cXlSbXA9IvCKHCfzMdY8tgIliOJ5Pz/NXJQoimnApMO8wxiYXHEZmLoB0wHtt8iwg80HaXd/c4Vurwnba4bts9T5by7T73U7PAyYpI7fJSv65QLA6dNnD2nrQDpUdX4PpjXDsKBac1L3M0l9WZFcI1nMQldN/78VAC1avGGUC7SdkLAWiCBNSANlfc5tgSbnPWMrgihJ6tfd0s68epIBDob4iPoEPoLtwR4Ypgd8vCEePmA63NE/vOSwf8Hx4QXj4SU+3SeuQNzjTJn0ZQgjmjcKkmJcRGzEiIhPGZUo7m+FbU6eAUhe4WPRePeiSJdW22a0Pkus1iOCxU5Al9tdEQcl8yYSHG1S5vxrYSGrXIw9uzJKLQ7Em/k+wHnPd5Fa57cyCHoVT+Lkq5lYebYa0Nl5UIqFo+fdeTmjYFj5FVs+biLpVnwtiXjm7tYOjz4bMy0Qv+WVPZNkV40EzAOexXUMwT1gqpgok3QpYeuW6D2EHdrvCP0lYbdLCX77IWH7nGH3jLC5JgyX6HCJ5m4f7XHpsYwmuHRITvRJU6PLl+SQx2dhlnR2kgCR+TKkUBWQLr8ObC2TbIXsmjQfVnqL3vr/Fq0AaPFO44JMPHu0SbDosNdGKCKWN95SEaCa1P1mq19JBYBmqHr26GGbE3YEO4BfgD4g4YKuu0S2D+jFPf3xjvHwxYwExPGO6eGW6XDHNB7AJoQR4ZC0A8paoYyZPJiKg0CCzTV3zom4GKtRwKLEU0PJs7HR/Izt6Za6hl4reHZlKVyZ/pQ1tjNWRCzkwlxMmUConBlXK4mPTWDOpvP6NPqZdQJ/rJmwCBFVHfYjh15fnm9VSPoyxH7i8VSCTzVxUReFv8KRkCyctDIVqrYFC3nPiniPJ9c9POSd/Q6VDieACJMGjA4TYSKZ8xC2SNglAutwRdhdEzbX9NsLdHOBbp6j/RXd5grpL9F+l6B+6TOhsUvKfxJw6WcDrUW9MaTiWUIukBM64pZfWXGuSdPkwrJao4RlTCM+r5jOds3zwGitc9GKgBatAGhx0ik9lSnWksGPzHNyuytlbapsA/gCv84ubnl2q/PFqszafU5eRY1PMNCsMhgSm1q6SwJH1I50lngCcbpjOrwkHu843r1gf/OCw/0tHkewI8QHYjxgdkxogB9QP6IyohzT+IFI7gvpmOa5tVQe71rB2TIT26iIZss6W8aY5676rEa9COqycilwlzkf12OJNY+wENiSGIxZmle7ZXg7fxZfVPG8GO6cI8H72mjnjEDi2X5/df7PJP0Fn/CsrVBB/l77HVQjk5kYSDXa8Iq4mGB/L8v+Xvk8nBtRUdj6hamRunqTZKlr9Ok4ep/2/QlE3WAyYKEjSoCwIWR53u3Fh3SbZwwXz1Onv01zf+kvkZDX94pxT8i3beCW7jfpAnRZZbAcg4SaJT5AOmeV5UCeuFRaD15JNovP/IWEeEk21ZJHMstzfZSlsxsW0AqAFi3eBAOAlRPbuZ+Xzqzu6sqqklX78zqL3Ojs/FcsUiUzrovqu2V3tYCEDvEBZ8IZESbwy8S2nu4Jm2cwPTDsbhkubjje3xGPBxgfiMeyVniP2T4VBPaAyzF1fT4iPoLHufPuirUrybVNvZD5fFEHLH2aQ6x8AYRFL8BnBkSpFWwuomaJ1ry25VKZGFUKb7IiHdqq0/ei/OfJXMkt5OdUks0aAaiFfvyMmU+BzOWpPf/51/0VA4Gie7h2aEzHapEY1spkSTzD/Wm2ktEgWTYDfL1QudxHGRHYQuWThUwZvUr62YjHCMQspmP06XHSI9Ilyd4uCfEMw5YwbJHhgn64Imyu2WyfE4YrdHMFwyXSb6FLdr2QdvVdhvnr1NWn5yKzxLPm9UKpeBAndr715gcK4rnc81mUKB2aes9fZjfC2sHQTwqBmUTYohUALVqcRwQqBPtJpKDOLEsz/Lg4CCcOt1liVwTXKvlnAxvRRMpCCtQZEjlKIpAMg9wj6JSFUi4I/YjYkW7YM2wPTFd7xsMDtr9leviC/cMtvn/JON3h4y3EW8z3uO9x2yN+AD8iPiZSlQgBS0iER4xYtsBzR1uZ+uQDNrP6Vzk3FQ8zkXKuHSRvSZzY/85kL8/kL0ljhsyAd8tJI8/Qrepsgy9GQF5lEM+qieaLEFKxfJJVJ++VtK88UpDz3H2W57RS5PWaDLkAIPYIaVheR1o6Vi+9+kJcXDQMFgXHtO9gyxiBAu9Xan+lRMukwSgh2VQT0mKk95ikxO90RNJsHt2gYUPoL5DNM8L2GZvdNcPuim57Rbe9RvtLtL+EsE0JXjfQlZ39dHsiXS4E0iqfVHoGhUfiwozaLOfrMf62IG4QpEhIL74X80bo3M0vupKzpddK5tjXFdqj92mLVgC0aMHT9qBP+gYU35bVt8tAOzz6fRfHNHc/siSdldObk4oHQoZNI8gxdVZeeASGdhPYiMkRkQnCkdCN+OYIu3uG3S3hcMtwuGEabxgPL7DjS+x4g483+HiLyD34A9gDoylRnKBlNDDRZXMitTR3Nksrd65pt9x93UynBGT5ol86exCvrIvdscw1qEjbGTUpvxIxXVTpEpSf/OTdyrKfzMNhzcWTVvvxdiqjW3JA2dGvNAZShx7nztNrUyVnKXwegQJeCSYvYwwVlh37zGKcTZg0H6NZOyLxRvAIHitfgSzCo+Ux55FHLYVbEr8ndT6XLheOinpCRaIFRnpcEkwvskHDFul3SaRnm5K9bp+nrzdXdJnQJ/1lFuvZzgx+kaT8h3RZsKfLhM/ML8hreyCo1kfLUBVKT1+vXqjXKM0C5c8rkKKLSdJqJJSdDqX2AZTspniqeLhoIHCGZdKiFQAtWrz1kGC9yl2p08mpaIxXhUAFc57rREQrCdkAMlStZOn3ImjaHnBG4Aj9SAgR7S+Q7RXdtMfGe+J0y3j4gunwkuPd58TDS+LhC3y6xeNd3iQ44HYk+ojKRJARdyP6RJfvV0UzazyPKopzXFlTI62ZzcJIZd9cFiTAy2ihXq3L+cCqzthNT3vxxYHQC84g2ZnxFSTAp5q/R7/x9EmWlfHOojuYOlR9XEgWY59sgETelihJf+Y7VAoIRQyorGjOBWZGQ2IukhxNib58zzUz/AORHiMg0qGa1vhGCWkFL+yQ7oJuSCY7/faa/uIZ/e453e4K2TxDuov0EbaI7rLPRY9p3t2XkMcG/TLTzwVJkugtpkyZgGj1uqZUibq8nhxfFYGFPFleN2+66XF6CoQmC9iiFQAtXnvxeHcp2LU8a23cIidGK1KpxglVcpdzu12eZ95LBhJ6Hs8bshiO5wSoitJnUfgjeE/oNoTNjhB3hO2WeLxi2D0jHl4yHj7Axhus6A0cbpIA0fhAtAOREbUjRKEnCRsFhE66JL6DoeKYGyYxdWOSNP+TC55lR8Pc2ZnPXSueyIXLTrvkEQlzd7uSInbDVRaVw8pMx82T17yBWm0t7NU5Ppfw/RVfP1HsrVjlS9Ehq9dDDRPYekVvLqSkIvDZzIuYw8g78ZkbEjPbQiQR+TQnYE8s/+hK9OTAZ55+rmGLhA3SbenDBTpcEvoLhs0VYXPJsHtGv32Gbi6R4QL6S9BdkuSVDTAAHV7ui2L9PGQDnq6y05XZ8dF9Ic3OQlqVTXKtFlFzR+tqeimO5JVF2pdZ6W96AK0AaNHiy18IsuANnvFiKrKRLzoC8+wzlwAU2Pv05rxO9Fk6zs5BlrpoE2jIRcKUBU/yWpX26ULe94RhS9hcYxd7fLxnM95jY5IdHo93TPefo3efs3+4wcZEHIy+B/aAEW2iL9CqREQds5i4CRKT2iGWtQ7i8sx8sWPVudutpIBV5qbdgBgraeHCC3BP44+8JVEEYswsfcT8YZa07NcetugsKkPexHjV+TQescgeFQP1CCdUKoE+ayPU51BYVkdDNbMuhYGm+iiVkU5WvgspkYtgFlCE6F3qyn3AdcNEwCVkmd6eSXpcB0QHpNvR7y4Zttepy99c0g0XbLbXhD4VBNLvQLeZxb+ZTXhSAZDm+mjAskhQmv30OAFd2eyeIi95HKIyKxfW2w1lOHau+J7fG/MWhGYZ4Io8KafvHzt3htbvFXlczrVoBUCLFl8u+btV0q/l4rO2g/WzpjmvAhcSmrDMPau9edEKWsh71WKk9TgFi4s2X16xUkLqBvuLJDYUDzDtsbinG2/pjvfY9gXj9gv6h4QEMD0wHW+xwz0+PhCnB9yPRJ/QOKJiBDFUegjJkMh8ysZEpdNlLmJU8mqb+cxwr8mE6TnorHlbNgl8tslNyTlJKRi4zez32T6nYuo/Vm5+jUWsLB7EfvZUlfnyssWQ+AZ5FHIqxysLp0SqzYOyQeGlW/ZFwJiZf5BIfFiRyHUmFyI9YxyIuiXSJ3KfbnDZYN0W+h1hc0kYEtTf7y7Z7K7ptnmPv9/SDwnip0smPE4/F4pCD5oSv5GlgAm5ji3bLSGT/NbMzxm4rw9FLgLKKT41iXpce69/nuqISOLEvM7C+00dP1vybwVAixZfOrIIzmxK4oufOifEPp4oAHzJEMUStnSTCwxeFRY1XlrVAV70CMhqg3kNa5kwZ48CBkQdZwuyQ/sR6a/QYY9sPmS7u2c83mHTbdIXeHhJ3N8w7W+ZHm6I4y02PeQNgokuEwW7IKhE8AMWD2mPX8oow+YxgOCgVhU2yc5VBIiSNx4y1Fxs6TPPoBxWK4gAnpQMCxcw5+OkJFcL9nC2oxfOjYn9FYOCfPyL/kAm5UlGOFwW/QMRR1QzuFHJ8pZZhTseZa3Bn5OchDRjTwS+ZK87okQ6RumZZMckWyYGXLZ42CWm/ibN9LeXHzBcXDPsUiGg/Q7ptki3RcMAOeFLGDCG2fDH81olnlYDvRSUWc3Ay/P3RXsgSWD7CrqvD7u5Z/qDzwp/58ct/lhm+sz75enELmcKCmkFQItWALT4qqMyxKkGAHW3aWswcp38F7TzpKHxhTxXuszq+jX3SmKVe1zWEMgWspK900VKYeCIZfEh6XKi2hHCCOEI3QHZpBVBn+4YLu6wwy3H/Q3j/UuODy+w4w3H8Y443oEdcCaixaQrAKgrSofbmLu3VAiEeZ4/pQ4epSgJLLuA+XgKM2nM3CpdN0e0Qy2hCaq501YQdVQrl0AJudu2pXFf6Tr4I6U/t3xbQpZrLk2/rGu21Q56+qazkPeK5kP0AnfLrG8YSoesqZM2lwz/B0QDqkNa2bPA5MrRIGqPhy1Rt5juoL+k76+hu0CHK7rtc/rdM7rdder4Nxd0Q0r69Mlq12fVvzQ2SKz+Ye7yU52V1PvcMxLhS6Wk5VkUZKqWuq7X+eSMiyNglrcdivRF0evzxUCJ1RquV+8YP/n6fGJfrRXKuUKiJf9WALRo8U2cJuQrX33x9LzmtBjEpKQ5X8h0IaCl2Xv6/bSvrnlFKzL7FHgi7WEhK/hZdmeboDOQiIYj7nuwPWHY47s9/XjHdHnD8eEl0+ElYZ+dCg83xPGBYzyA71EGlJHAgcARJ+I+0fkiioOELGBjGcqf8jpXXJ6JL8Q4c8+FRGbAE7MPfNYpyPyD5ApoS7klZyDlJ7tMn8cIZ4Ce4i/IWbzAZflLLyuIuSi0pOCgktYUxUG1R0JizZuHbCaVvO5Ne0R7LCfmKIFJOybpE0mvv0D6S4btB3TbzODfPqPfPUM3abafGPwpyUvIyT8MaW/DS0eviOcZP2GRFM7PQdAKxl8Y+SKLCoHPJMgzr+VHE5GyEhhwj486+VoX4fwNOq9xQGrRohUALb6OSJdDqXbh5QTy13PdhywKceuL5+L7LkVRcL5oVsRAWK2mnSY28SwqVFb1cpKySnZ2tvTVafZbd8YkDmQHpDsidkSnPbp5oN/dM423hP0Luv0NlvkC4/4ei/e43acRQbzH7IDHkclHghnilhbGZETUEocAQyUAMY8onOjZ1ChrB1iejhc1QvPF6S91oml/fiYMvqFRUF1YFc4Fudg4e1SlmPhU3/cZAEhGP7JI8XrlC5lW5ELib2QnPiNg3hHJLP78tVt2ztMtGraYbgmbC3S4RrdXhO1zum1O/JtnhOGSsLmCfpeV+LpZZEd0mPf1ZxTCS6GSxKqELr2Gy069Z1DftSIx+moRspyL5av6tbeo9ImsX5fLS1jmKkFWmzMn67JV/meFp726m6+9Jlq0aAVAi6+oZ0/z3xXsSb0Y9ngvfSGEPbYnWRJYdTH0ikntJ+52XrOul99zTwbA5DW7okC4SKYWxN2IGO5TWjtTRSTifoS4SSJDOoEc0HANmz0a9+jlR2yOD/jhLssN3zGNd0zHl0z3X2DH2yQ9PB6w8UCMI8QIlooL9YlOjS44ncQE3TMlIRyUSBET0owiWMYw0tqbedLTW7sTnKgSPdHwv3mBwCxC9PjmKvfAsq0g1SRbFNGA6CJZbBnBiGSBHk8fkwVi2eHPid/Dlm64YrO9ZtheEXbP6DZXdLvn6OYa7a/Q7gLtUpEwK/Tl/fwyt0dCMoG2tCZaVPmkIBeeSaSmleBSXsksegtZnVDqbp36Jb024pkLYnlM/nNPlNRFC6F+n/gZ5qY/key9xs1OEn+LFq0AaPE+wmuXOpsvkOWCiOgK5jwPPy/J/zxELblLY1ENnBnYRcFuEd9ZUqHOPeiSnBTRbt6TNzIEn2/fM39ARCEkO1g8IlqcCpPLYG8HunjExwP9tGeYkvfAeHjJYfsL4uEGxjs43BMPe/y4x45HbNqjtscYMY9YnDAinU4JCZApk8+mpImvgpjODAfRMM+xpQjTSMicB50d5R4lDKfyBPCns30+3rYy5jktCNK3y++U8zZ3w1mUR+jSsbakjGemWZa3y/a4PZEB1w7rNnjYQJcMdkJ/xbBN5jvD7pqwuyIMl3Sba6S/Smt7eWUvsQx6IGv665BOuC2vkbQWKogWLwLLsP7iq1Bsd8kriIuAk5y8tgtJYl10Lbk3VsWt8hSpr8g+M28O5G0XsTd98/FmBMEWLVoB0OIrwQCK9vxpx8M8O328EVBfOPUV6IKvu/2Z9r9WD0yiLHbS5oZkwerLeqJl6JnKSEVKwiwXXYuzXa9qn5jsRXCImAoRzyxynSBMdDYS7EicrujGpCPv4y12uMX2d9j+jnjYc9w/pEJgukXjHotHJtvjfsCiEDI64aUA0UwC1Am3jLJkO9s58UuH0qWEVdQAXfNiRnruC/nPXnG8nwIN5MTPoZyWGq721eaHuyZZXk+P1SxgUXBLTP6jDnjYoLpB+h1dv0vw/uaCsLlCt9eEzTO64Zp+c0nYJJtdCTvot9DtIGsBUAyQCpQvHXiXX2/5eIhkVCBVL+b5HHtt4CQE7WYxn5U4j4SK2S+VD0HRdLDH63y+FA4LKlBhMHbSvXtZb3UST8AqNODdEvuag/CmK4ItWgHQosXbTgJeu3J0Cm0+Nfuvf6ZVAVEno3Ne92XOXFYJk7mQn/jdGyDmmFQyq7kwWDvK5Yux5lm2WzIEkoB4TDayYtmDICI+Ebo0p+42H0B8wMZb7HCHHe6Jhwd0f0/c3+GHl/jxjnG8x6d7YrzHfM9oR8QnRCbUYjID0lQkqZDn64prwKzDJXnXk6WApRDZMkN9tpmdpXilWg30WXJXvOZN5MLNPB+vBfpORyAl8SDZq4EOQTNJMBHsDE3kPnrMe2KG/9EOkw2xv0SGHfQXdMMV3eaSfvucbntN2FwnQt9wlTQbuoQKELZZ5z/r8BNw77KlbvEDzM/X8mqiS1YTrGyq3TCrfAaKD0KW5JPHU6lZyc+9KkxXtrvy2jfII8di8Sf+tip253P1+oTdknqLVgC0+NqS/znf+wUR8LVP+Vlp2noEUCX80wvbE6b1y1Rbl4umVT2qZTc7qeRq84XYq/ns7NMuicmuhQg2r+1pNtlJMsAw5dToiF4ke+FwBD8gQyIO+nhPGPfI4Z54uMMfXhL3t9jhJfF4i4+3TOMdPt6nv48H8JEgNpsKK5b1gYptcmAiMFkajnh5AuZZmIllvp10iMkUt9W5KBC+1AVWdESL0NDiyhcluexF7ZlkQNySq2NeZZxX7PJ8f/KOyECUAemGLL6zo9t9QLe7Sgp92yu64Yp+8wzpk/mO9hdIf4GEAQ8drltMdhQdRfFCJizCPJUfQeaEmBtiSYY5ifHEee1OfdExWO3vz+ZE6w46rUPK6jW6BrPk8Iu8kAAAIABJREFUDZKyPwYHWPMr5ATOTwqQb9rt+5kioHkBtGgFQIuvMN7ER+Bcd3LOg+D0e2/S1cwXSjlThHhNJfRlO6EyZHFZ1PFm3/pcIMyObPNt6wIYzDaIOrPn0zx6Sqtn7JLFcHyA4QqNR8LugI8H7HBHPNwS9i8ZDzdM+xfo8SV2vIPxnni8JY73mIwoaSPAfUrLaxpwSXP0yTtMOyZXJks79zNA7dVeuS/OhC6O+9IVMx+XdS6TFYwsSYMfIWoguib7W+sxDbmrzmwLz7v1siHKBsIl2l0QsglPt72ku3hOf3HFZntFN1wiw2Xu8i+SW59ukwOfdEmVT/oM91eQPrLoPSDJIKl0+eLLxsJ8uivOvoZV7k5jl7Ov7rOvw/rrd+m8W7feohUALVq84uJ4Wgi8qtCoi4C6m1o3Zjpf8M2XpFfWq5MKbq2gV/gCNisNrqFcA7rs6JfTixsqXXIKFAM/Zsh6RIIh/QSbibA70E0PhMMdw/GWaf+SeHiBHW6www3Hh8857r9Iq4T+QIyBaUoEthCyy13oMdsQZUeUpIE/ZX16rbkYbkvLKVWfWRvUnK5wkAl+hfAninti6k+iSaVPHIKkDQpzTB2z5NooYYd0l3TDc7pN+uiHLNCzvYLtjjBsCEPR4U/Mf3SbXB9lk5K/dBXJMbCao+fkXxQgKzwjIUxSue/J8tzTmmOVhOXdC9sWLVoB0KLFV9DxlL85/fwmaACcv7aX0WsoCmwzNb78vJ6FF6pXTo6eOAHJpEZyUiTP2bN7n9g8Hkg95YDLlPf7Y1H2T//2I93uAT0+EI63MKaRgB1e0N19Rrf/lGl8SZzusDwecC8OB0lAZ6Rj8gG852jJEKfXLhEFVRGrtAIqwd2l+62ee7VVKfO+vGR/+ySqY9IxsQGZiEpW8iOv1yUGvoYd2j+j668Zdh/Sbz+k335Av3nOsLlCNxcw9BBCXtnrSYY7Q/56yIVV3nZAEdKWQ13QeYWje93Ol6ImcSipIJt5G+TxGt/TxefX2bl/2ftrSEOLVgC0+FouUo9dy96+83/bx7FCAXy9jeAn/ENZNq8fP4aqZJi132c4eE2JTxN4qRjhpWYw0B73yORp1VAy5CBiec1vB3pAwiXSPyNsPoDxhrD9gGH8gDi+5Di+QPc3yP6eOB2J48QUnXE0DiYYW4JtmXzAyyocIT07TfC4zpKzq3x4egCX7pja6CbZ3pr3ROs5WMekG4J0IEYXOrqQLJf7/pJ+84xh+5wwPKMbnhP654kY2V0i3QX0A95l8h0h2+ymIkCkT8esMPuzWI+jaWafZZLl/ILiggNU3f16c2GxWp6xkNqP11sybdEKgBYtfimFwblkfp6sdP7vvtRFd/EKymt+NYHL65xQ/UlKlGsVNcu3JY+KG6pkkghpZV1MFivjLDJknnX5hcQTkC65CEqf/OXDDomJBNcPl3TxGrdbwvEL9HBLt7/nuD8wHg7IcSQeI6pGjB2mVyAX2cK2n9fvRGup2qdY55wcgdL9K2IheSn4gPuGyI4oVxAGZHBCJ3T9JZvNjs3mkmGXkv9m95yuv4ZwicsFErL7ng5pg0HLfYW8ntflIiOApZXGIsTjGcJPpkGZiFm9htJnmycaUq2NLmZSa0xoxRkReT2HvyX/Fq0AaNHiy6MDb0KgetcL7qroOLn4l5XqOrk/HhE8LljE9WyzXP9VLRLjlTmMuc+QPapZj8BQNPsAhNSAdgrWJ/KgD9D1iG1wu6DbXBIujgwPe6bjyHg8cjyODA8HHvYj46T0m9RpCxeIbxBSF+0umaW/pD8/SYBJcyD9RJ3EYTBHLJvixB5ng4RLwvYDNghhMDZbZbPt2QxXdMOOzeaKfnNB118mYl/YYbJBNcvzap8leUMm3eXO3pOWQUr43TJSsdLt61yuzaI8haRZ7X4UIZ3ZhCrL7Z4bCWlFAkwFwOImwVsXrdre6C1aAdCixTcvnLcTUTmzBP7k75XbL78fUzL1bOnr9ap3dsDLyUlnOWKhlAQiyx67aUhCQ2xRv0Jsou8Mm5JyYBwj+8OB7f7I4WCE/oLdxYd0wzUiG9xS9z8jAPVow1cDjlXvXwoXyQRHp8N1QLsr+u1HXFxFht1zho2w2fUM255huKTrt3T9DgkbRHvQDS5DgvOlR7SbGf2SrZnJyoVJu0CzqNEi47y4FmbzpAq3WQ8AqgKgfP1qwcl1Up9fIo3016IVAC1a/M1J/uKrJPfapO5v+ttrISKZ5+uZWmg+y8jO9vFLqkryRrO5W20xk4hvJkXVbovKlOx81QidE8zotk63Gem3I2N0VDd0QxodaHeBhH4WBzod+IsWoaTMglhJK5cnlAyBXAY8XBC2sDWHsMH8wLDp6DZK13d03RbtBqSs7RGyvW4HGvLX2X0vJ37N3ysHR6Q49MmquCr/JVOeZayy7MZbhRhVaEBF03gdmiRVUSQVvPOu660tWrQCoEWLrz39l6RgJ5f7N3FQ89feen2bnl0Hs+HAvGMwp9aVHkzx9Qvzip5V+vJJ/KWsvm0We1/NGwT5rkIwNoPTG0jo0LAh6Cav1GWIWyoHOh5J0az36MsNuyUxH+2TmE4P2nVs+oGwuwafCJ2gIZEsRMuu/vIh0qXxQ1md9LV3w3Kf6Xm7FcGi8n2K80ElCM1yOxRhHl3xORTNErp5HHTiXFjOsczWhmfAAlkn93OFQEv8Lb7NId6WXFv8TU38xZjGT5N/7rZFX9/VvwUc7CfTgKQJVDpTn1X4vCgOSnbRqTrYxT9R07e8KADGrCeQyYRWeS5IUbzLzykL5iCJQe9l9bB6Wrbeb6gkj1My7kxQT/6ILhHzEfeRDgc7QkxuhapJothWRUTAc/IX6VJBYSdHt3K6m6WDXRcPA9E5sbsvJsiPhXhOuR32KFknjQDOCksp4SzR1N8wr7cCoEVDAFq0+IZjAOe/97Qhjpy0gf4mOqy+OOcVL4EkWmPzOqBnpcBZd4CwaA8We1rPrHgVMEeIydTGUufvSXKnenSCaIHxNZPnQjLiyc8lke0WUqTMAMSipOfzsUgIQBJJSjv3XinouQgqfbZVXubt7p4QDA1pjY9uTuypOPBFX9+XKmnBWRL877kAmqWKJSD5tj37Oi6hpZOhuPct6MrM9sz3LWfle1dJXGQxrhJeKzrVokVDAFq0+IYjALWG+xoF+OVexJOSoFRJiZzwLe/fx8qVb72JsDZ7yfvv2begePikW4pZYXChwInqjAYskgdFvsjWwj9F1ydrGpjUPvS5Ly7KgVLSu6X7dM/jCme2Uih/b46rLMqJZOg/K/SJLCyHet5edi58Hn8sfAWpKAmz/XARV/LlGIoXQyefNQzS+kB5bk8UernYqWf+b80XbdGiIQAtWnyT4/2saEkmAMqJ/erstjdL0ZZkFTPqrzVTICcvQKv5uRbjomX2vXI4zHvxjj0ae8hK92/JbnbWpMayBsI6UYpJguNtSc6KLpbAmnfpy1qhC9FLb1+RIV3zvwsi4IvUcP0wTofyThZO8id+sfzbZs8HmZ0JOZvVHV95Qjzxay1atAKgRYtvY4i86UrfVwJDUNsQnWYZr9wKk15t7tdzkaAuq/30ec7uVMI1eTQgVkHWvkqQpzifzyWDlDX5s4XAGt2Q2V1YkRX/YEYtZLk9L3JKnsYGafohFTKvCyJRIQIuNmv3ryR/Z4TkdeeyGDjpjCs0nLNFi1YAtGjxHnO/r8x2Uv4KmaiW1wU9LMnN12m7/KnIE43uLOBT6ftL2WuvIH1/AqlYaooZ9V7KB1tW4tamiqgmsp6WXf38XJL7sM0jAOFkxMFiTFT58SyPQ9fWzwn2N04fxHyLImcOij+CDry19C1atAKgRYuvBwFYJ3DJnbTI0mMv8+3cGWfY36tNhZIDzW1JcOKzzK26LwkZlvVDKZsFFWdg5XVQS+CWv67n//UanKdOv8IYzBM/0d2r51ghH1VellOX5kW3d+FFrNb/sqMfTxk7ycmhXg87lsJLVpsAjcDXokUrAFr8qnfoX1EicJ52kfMKmk9qePk7K0JgNhVyS5NsEdTPtfM15F807Re3P5Oq4/YqIfO4ozbW4wOpVhO90k2w8lWWD/asmls4CnX5scDwCxGw+CS5V7dVp+1ioEQxblpzGWohpdVxfaT1/6qvW7Ro0QqAFi2+0jiTeFbMPXlsb/sayLoULkUPf73FJis5Wy1bCb4eJ8y3UXXJUq0JKmeKDanLBVbchBAkr0qWmXsxP4pZBTHMbH10gQ+Wx1ueuxVCwOporEYTb0zoLHfUNPpbtGgFQItfrdT7hJtg/T0zO3GTe3d42D1Wiec0CVkS5am6fanW5bR6bGcsaFIizDNy9XSbi8jQiahR2dn3tH2QOu8wJ+16Fq/F+lcqqmL5Xu7ChYCKYHPCX5ULy3Eru4oFA8jjibntd+Ydfy0ri7VAn/iJ3l9RHnhcjIifR1yKtDEnvIjlOMmj10iLFq0AaNHib3i8jZTrL10eYzYBkNmqds3kX3H2HwEIKqfbBCdz7trIxpe+3jMbXguxriTkpdnPnblnbQBbkucJ616Wg7auNeokvNpCsLz77wt44IUIUK09PjLgWT8/OVsQnS/olqJv0VaoXQ9b4m/RohUALVq8Tyxi6YJXKW2d5IRFGXhFepNT1zs5ex9SM+xyohUPr/ibJYGKVMm7EtRZEqkvNsqlTCmrfVApCy53n4iNnv/GKtEdqWD++ricS/RPP/qFlMgTx7Uullryb9GiFQAtWpxLn+8lKZS9d5tTfu1WRx6PW9UFa+nQ66T2FDjhuqQ5l9XnlCx1vk9/1Ex7IdxX6whacQXmPr66jwWKl8c5O+n5F5e+mb6XNhy8oh7KkwUAZ5J7Wa+UkxXD+lzqvAr5Rn7ALVq0AqBFi7/5Cf4U2n8q8T9mlb9D1//kT87D1/U+/5w0V/B4nW3XDnblx4nx/2qnw7o3Lm55hUxYz/VPLXSlQPh4NinSefUu1RFaPc4yStAZ8q9dAFdMwHc5l/5u579FixatAGjRuvzX/s7bJg13fZTQXF7N6ZcVql8KgDXkX5bvVjP4E/4AgNuJYs/M7HNEdVVDPJa7z+p5aC5EtLIyTiY9skITSveeu22vPABmMp/VxIHHPruvLZ7y7Z5A+k6tjniqA1AVK60AaNHi1e+0ZgbU4lch1tbAy2dV/QqSxMLQX3e5tSa9LFiAVJbFcvp3ZwoI1yrxLZ21VXe1Qg6SAH+VuJfEKScEvDJXF4nVY1nfTzp0xYVPz3rnJMOjU83+ZRSxHGt7ZQFw5paXjYY3ON8NCWjRoiEALVq8v0TgvhDpqvW0+S69KgTkfAHxZPJ/dd1RPTc/e3vLXvxTRjrntwwePe450Z+m+OVvFt0BeeJx1EXRq5CA133v1aJOqzHLVyj+1KJFKwBatPiGJvzTi/9XA375IxXAp+/Hs9PfaYLz05y++rmsXAOXBKqzFbAt3b34E7fz2iPGSsPfn0qa9iiRr50I6937okdgv9wj/sTxPUV7GgLQokUrAFq0rv+9oAB+0kmf6z5rQRuf9+RfyRooGn8nDbGcEAr8xDZXnhRGevo5yNmuu4wN1nm3VuizJzvtpDGkVZEiv/Tz2qJFi1YAtGjxdZQZOdnXzjdPd6jyaorgE9/TV/y8JPx6DLEm4L0+YZb7ePV+vggn9sPLY3r6PvK2gct6LPKeCr5WLLRo0QqAFi2+8iLgkT3tTN7TCp5OybOWxPfX3GaS6tVX1AuPyXey6t6XhPjqMcjpfZwpCApR0Cvm/hObFOvk+3q/gy+DADTVvxYtWgHQosXXVAB4Frzxyrv+6d9PaAAs0nqv6v7fJKHZ7AyYZPnCY9OgN3kOZysMf1xEyIly4Bvcx7tqLZzO9JvFb4sWrQBo0eKbUwIU0iHL/v1pgpqT/lwEnCAG8jgB+ysJeemO6gSZdvTL99NtvCpPyorVLyeP4QmMQmqFwK9KWOlx8eLulTNiS/4tWrQCoEWLb0Tyh8dz9McKfe6eJHdm75okpJNy9um63ZskuXNkPznRB3h9YhZ52pXwNf35WRTg8X18OYneJl/SosWXj2aU3aLFV1gIrNcOHycvfZQs35YU+PqC4G3/Tl6Z3F+HHvgjFOLpJP7ljm9BAFox0KJFQwBatPiGoQBF9e6JFcAnbHVfm8Qf7Q6ev/9TVOD1j7V+MKccAHuDHkKefK7nSowvg9qfkvze1OOhRYsWrQBo0eK9FAGn/36UHM81r57n9ELlwCdPtM71lsGZckL8VZuIT3Txp7fiJ1+9WnjnXHJ/1Vrgu3T+NbrSEIAWLVoB0KLFtwYZmJNXnSwrxbzVDv/jFHiSPE9/T16LELxhqv2ShY/zbmOLdzumLVq0eMv3TjMDatGiRYsWLX71opEAW7Ro0aJFi1YAtGjRokWLFi1aAdCiRYsWLVq0aAVAixYtWrRo0aIVAC1atGjRokWLVgC0aNGiRYsWLVoB0KJFixYtWrRoBUCLFi1atGjRohUALVq0aNGiRYtWALRo0aJFixYtWgHQokWLFi1atGgFQIsWLVq0aNHilxvNDbBFi29h+Px/Z+3aJ6u6Xk6NA1u8zQFeH1aMxQxZqo92iFu0AqBFixbvKTulZGP5a6t+pvnrnJxaVvryIXWhZfmQykmx1Q50i1YAtGjR4r21p1Il+/pnLRn9UpK++8mhrI9tKQBO0ZcWLb5NL3N3b4ehRYtvYf5/43d5O2Rf2XFux7bFtzgaCbBFi29jd9riPVUA7Vi3+JsbbQTQosW3Li0ZIicktEdItM9EQTkhq7V4kzBcLB87XR+/fKz9ZDwg7Ri3aAVAi68lKbjnpPB+/u5X9bh+/cfLcCynm5TYhcf53TNjPf1bkdMk1uI1JZbhRARF8ux/TvBS11vlbJCPsX4jrwHtfd6iFQB/g6O9uX+Vjut55rlb7vrFYH7c2tL+u515nDAfY0FIbClfPksmYYrgc5nwzSxg2/WhxdlXeSMBtvg2duW/ykWPe+5AnfPgvpxMrts24FuHsVqmRPzxMfS8BFCYAkG+ue+Xb+p75cu8l3/VrwOtAGjR4omLwi/rwvA2F5n3dkGycxWBlyc9Z3yvvvxVvbi+6/OwfDhnQN8Bt3LVzMdYZkWG+dB/A5N8g/9bPBVtBPANTVhvUpf9st7U5b7qC8WrbvuXmWRf9zxfd/vn/v6rKgLeOHmYvdFxfLcHk0mApRKQmD/bScYXxAVccAmIhkfP6TQxnHus3+bk8WV6G5nzvAMxHWeJuQhwUE0IjOe5vyhu6fP7Kpzq9225z3JeVbU6z+mF800/j+fO1+ljfpPfadEKgG9NmKULipAgxZnQ5ZnHXbDe+bcEEZ3f7E+/Ad5MA9bMlvvCZq2TdNNy5raWlrI8hi/zBjybwFd9FSuSm3t+vu44nv9eMBc0P47T23zXx1cupp7nvjIfC3uyWEl/I7jLSRFw/nyk8/+ajF+towkjwgh2ABtxH8GnnKAKYz19iHQgA7DBpg1IQDSfPy/3/7hYyof3Fcft2yA25I/O45v9flb7kwk4gh1xG8HHVAgQs/6SgGv60A6RDe5bkA0iiqMrcEbk/HuxJOovk/zdDdwxYnpfeCJ+IoK74ZYegIuu3rvfhORZnxf35fi7Wa5lZYFW5mtiukKILKTLVgO0AuAbd/nxmT08b2YtCUTAUKI4nT2g8QZ8nzo5VbApdXASwI8ghocPMH0ObHDXXCfokphK8haITInG5EN1v/k3NeYZZ35spigRj5+iepu6HFHwkKuSCAHwC0yfM8lFpkc5sZov61suQuXUOl8IFMXEmWQkEOmmB2S6B5lABdTSmz6GfFwnxCLeXWP6AdAR8nM1DJdAmLHwdzmBgrlhajigGJ0/IPEFxCnfbswdYfq3+IDrRzjXiPe5IbT0HOa3nOaHZIilAzhl3nlQTSJ0lp9f2CPcI/EOxgcYb7D7T7DDDdP+hulwj9sefMLdEAmQE3/otvTbK3T7Ebr9NaS/hGEH4RJ0B7IB74gmqTAQ5iSi5YUkihPSDLx0wxgQsPSiyL/7RvXmL+F95blA1OU9Vf0j/b88RgHv8o8Md2WuayWm45ULO5WI+B78FuJL/PAZvv+c6eElx4cb4niP2xFlwj3iEtK51IG+39FtrtDr30CH50h/Bf016CXuGxDFXDEPqKZLrrghYlXhoXPZu8g8V/uGotUhjvk1rkSH4EeC3UC8yYWKpscmirjlomWL6XeIsiNoer+ZT4SgFYpRF7drT4mv7iqZzsvkkpN4ROyGMH2G2AGkT9dDkYy4xFT4dt8hyocQwsK9KFW6Cy7ptaLv40XZCoAWp41yfmlTloMWOXFPFx+RfCGbsIe/5uHjf8308HPwEekEmw65i9uhfg+9oR/+AzYf/hfQf28eQ7rl9+nMDJOqACAlxPK4DND0jSm/PdSV3kDsyM0nf8j08Ef00z2uHWaBzhRjYuyVfvu7XP/6P0J2v5PTveEOJiE9hLd4q63Ri9LdCiJGlAd8fMHdT/+Y7rMfENgTB+EoR9CObuxzZzDhNsFHf5fuu/+IQZ8jdJQdbkcIHt7t/W/5EuiSFu/EEdtj93/Fzc/+KfJwi5ohesDUiEEJvsf0O3Tf+e/ZXf1+eiwieZ98yicsXWw9X2zFQrq+h6ThH32ih9SB2g3sf8bh/kccv/gh9sVPkbtPkYePicdb4vEWjw8IR4SY0Zh08TfPyWm4RPoP8eEjdPchev1d+me/xXD928jl30LCh7heAD1uAsFxIrggaL6Qaj47DkxAzKz38DXgARUi4rJiQ/oKK8uIiHWpS5YJp0dFUwlhEdUxHTs7IoeXTHc/Zv/yLxjvfoTc/BS9/4xp/5Lp+BK3OwIjWgo+lOgBY+DQ7dD+Etl8CNuP6C5/A3322wzX32dz/Zv45iNcLoFdKuwkLK/7GVqK4CEVAaWo9pKQtZSLueDKxYEEojg63vDwyb9hfPFHiN/hdIh1uIApIIHds99j+M7/gPcXpJoz5itUblLK9aSyOnof51IwXIToQhCw6cB490Pix/+Mfv8xxgbXbm6n1CMqwvY3/0fk+QcJiCnXV6pr4FwssiqrWrQC4Ku9NsnyWU4r6AJpEfL7PtL5C8bP/i03f/S/4PsfoxwSpKeHdEN2iYgzas/mtx/YXf4WyHfwoIhYAgjKvHfGApx5/augZyK5iBZivnALTieWur94x8PLP+fTv/jfeBY/QX0Eg633RIw7D2w//AdcXz6nH56BXwBCJyUZz+PPtwpFcXNU0ptXfWKrezj8JV/86P+AH/1LtuGesXcOHBEBJeAuTA4eevTX/4DvPvs1ut3fAa7nC4GLLGMV3q0IUISAIIx0dsf02Z/yxR//z3SHzwk20ek9o0Qm7Zl8YLr6z/nes7+H6JjPDXjuolOnHOZix0SJ3TiTyQJC8BGZPsHvf8D0+Z/w8pM/Zf/ZXyEPv2AYXyB2g8kdwoSKEySlYvFKH0ADWCKy+UGJx554O+BxB3JFf/FrjM//FvL8t9l85z+j+7W/D8P3Mdsg3oFOOAH3VEwpPo8XPGEqCDK/it7n9XXexp+L7bSGZ5QOkfTINHWypkZ0y8dqAhPUA3hExl/gD39O/PxPuf/4zxi/+DF+/zF+/AVwi8iRQGQjEc0du5phnrAzK3iIKTIG5LYDvyD6NYfuGYdn32P/nd9l8+Hvs/m1v0938bdxrtJltxuI0oMYhUq42jQQTc+tJHsPqCTUzuhycjN6NYK95LMf/ysefvJ/suEX4KnwF5xJnXv9iKvf+Z/4znf+S7rgRI/pKqCyDEp8QRqeGnF9RTMAVJxe8uuMW44v/4LP/7//i93tnyWkSRwkNTTmHcfub/HrV/8Ju+d/F5WuQi/yhdeWY9jSfisA3l9UPiFnZ9heElO6dKof8P3PGT/+Q/TuD9n6x2wUzMD9DtEJ4iXChtu4IX7+Z/jLHxE++ttEUSYmVC0VGtJVhUdKklrKAZEE1ctSd8/TYhshRpAjV7vAvd5yNf2YbnqJOnRxQEJH7x3jzQX+8gfIB/8pMAB9mnd+mRYwk9qwnAItXbymFz+me/nH7Pwv2Po9x+PEM1VEIhMHXJToPTFe8fDZR8jtD5Ht74A+K5BIrkve8cHNsI3gJqg6EvfIi59wdfwr+vgxwSPBH8AjUXbcho84dpGLywEJTnRjMqfTkNAAX+bvkrutqFOS6YlGmO6R/V8zffzPuP3pP2V8+cdw9ylXtmcjjvo90R7wjRKJ+Zhp7s09X9Ads0N6c+cZMOIpn8gWsQ67+yHTfsPhF8+4/eTfsfnun3H5G39A//z3gQ/AAi4BQ9Hy9zNg2yEZOVqSsOMS35MQTun6M/ERMAK2QtoE6BBNI6oojrqjHCEeIO6x2x9z/Pm/4fbn/wK7/VN4+BEX/sAWQ+xADMak1e35kmPEDc1PtSRiBToH9XucF4yjcvzszxlv/y23P/0+xw//jIvf/K8J3/17yPbXcdtiOhBlIOB0ZcPgRGVQzvSwhV+ixDQmkj0DL3H7hJ3/NYFIb5HgE6MKhBGVO9A9ImMa3wmYxUfk0PfrbpiLyjz+E5sQjXT6wDD9ggv7WUI75IhyRN05yDV3eg1+h9sthAAJM3sai2r+WK0A+LrqgXqe5wimtTDrhN3/lJvP/gOb8DFdvEHiAN5jPtLpce7uBoHbhx/y8mf/ng+f/0O8G4jEcunPcHOBQWUpAMQ5R6tTILilTikAPrC7+i678JzueKCzI6JbzAUmow8w2Q33Nx9z6SOx13n32TLy1r31+8wxNSafUBeCJzIVY+Dw2Sdw/zGDjqgbnUEfA1ikD4qJEB1cDLt/gfzip/DhlAhZCELMPZqTnqC+1eNysZzUAhZJXePxwPjyE4bphs7u01F2JXjAvGMvyubimr7bYYSEQBSEhrBg1DPJzjBGeje68R779I84/OifcP/J/4Ps/5wLu6N3JcSIs0dCJASFyihPAAAgAElEQVQhHpeELGr5vGeI3iG45nFKgsCxIzDh8oBJgBBQ9gx2w/GLj7m9+Q8cPv03PPut/47t9/5b5OLvoMMmJ/6AeMp+lo9qyL3/PGaXREDT9yGGO3eq5FEEOf1WCxBOJuiRukdIRMl4h9//hOPP/hV3f/3PGV/+CbL/MRu5Z9A9ne0hWjrXUZCYy+R8fMvpUw+5/kgQ/qwW6ELEcD0iImwZ2R7umA6fsr/7AZ9//mdsf/MP2H3/D+g+/G2U50S+m0YpwkpbuH4fzyqOnt5vSX/AEifDI8QDyohSRhqRml4gYSJwj/gD+AE8JK5IuRK5fE2WB2lDZTJHVRIXwRwxT1C/HQhEhBFlT8AxOtTvCPJA0BEnJrSqxodqJ+y25N4KgPf3evYVVLlKKBhRBKfLY3iD8Zbxkz/B7/6STm4RmXDZIDIgepHStgjYRC8jm+kTxk//A/bbPyJsrjGG3COky6BJwPLdBi9zvQSRdiv2ui5zUjc8DGnUcPF9+ovfgxf/DuMAIugQ8GiZcPeSu5ufM4y3MPwGk2tOrT6PHd7qWi6eOlkg5mtQJ44fbzje/AzscybZJ3pc36ExXeqjpFmpmYEeUfsce/FDfHqJ92NivrsgVgBjf+vG1LCc1By0S8zjh8+4u/kZQ7zHdU+UwERHH3NyCM+4+vB3IDwHG5JSnJTyq5KRFXCJKBNbN8Lh54w/+Rfc/8U/wT7/13TxJwxyRCVxMwjpdWASMINgmXOhPnNNErhULoCpQ0/1naAW0hgpGLGDmElgwQ5c84DEex5+8Tmf3/yC65efc/m7/xj98D9G++/kkcqSdx9VuCsM+f2O2nwmzkn+V0Ir0ExRdQgeUdsTjp8zvfz33P/4/+b+Z/8UffhzNn6DBsdt4ugTroFOBnySlFglF1d5xJA+0uy9MCNUFlmAgwumjuqUzoSBxID6xIV9yuH+n3P3w5/xcP9Drn/vv2H73X+IDte4XCToXW3Wc3hSWtjKlkaZdzhoKsCiTEwSE2nVBHVh1EDUhBSkcUNCIt0SX+Tr9YnI3AwBE0FDvkap4Qqm6ZyKOF4VdMFHVMpWRl3knzpfNKvmVgC8dxJATUyuGCoS8ZyGwZF4gOMnjB//Cbvp0wTnSbqaTDGCBqINCW4UIdjExfSS+9sfcPzij9g++z7afS9fHyLOhIlmKLQmSGUC1/w4fJ69lb3xiDB5YNj+BsP13+b402dsuxuMPRMj4pEBpeOO8fALfPyCwIRaWC5P6m+NtSW2e4KnHUlIgh+Jh79mvP8J6i+xcGAiYERMDvSDcIjQhwFCmsKKf8Hx5i/ZxM8w7jM5TVFJndy7vfcld7+W5uw2Efc/Y9z/lB0ToiNTmHBP58zMsc136Z79HuhzPPZIEIKSOATz4fHclR5R7giHLxh/+P/y8i//V+TFv2SwTxCBKXeeGgzNa09GRwgd7ikZRXfcFFPFEsY/dz1lrhxEUE0wjdsR8ylBrp4g6yEewR7oukg4/im3f3VgPHzG9d/5x/Qf/X0I/xHIsLgKSFXazp2WPOa7fOXvNM0UtpCdDtJrwcXTupsJYhOdvUAOP+fw0z/ksx/+79jtv+TCf0jntwQPRO9wDbj0jJZeg70WoqZlpn3ApMelz+O7NFoRDMVQn/IYSPOmSswFhNKFgY4OiQc2/gkyveDFzz/l8+MXfLCfuPj+NXTfA91ikhKiEhMXw4dMIs3oRsUxEgmpiajEiVwnzMekE6GCEYgimCYKITGm17X0uGniBenpzNLe61kUjKDCZEfMLffymcQrTpTUXKimzZhEiczPJaMvEBKB8tFbfSEFtvzfCoD38HouxJ2q58t7uq5OWb4LPoHcET/7AdPnf0l/vCUMA+57kAMSwFzowkC0PYkgHhnMiePPOX7yh2y+91/Rhd9gigENgsthHgVI6YY8v8lnenRgtSsIoGnWi3ZI3LL7zm+x/6sPGfc/QXXKRCOnt1SF7/efEh9+zvD8AWGbC3Bfuuy3eqMpPT0eDRVF3FG743j3p9jNn7OTewIx7+FHYjhi6kzS434k5A5NzZgOP2W6/THd9e8T5ZJo0OVO7e3ZiWkc4TjiR7ARplvuX/yA7vhz/n/23uxJjiw59/u5n1gyszKzdiyFxtLL7LwcksNL8hrvXNO9Jr3oX9WTTC8yPYgSJZEStxly9ukGegEKW+1VuUbEOa6HcyIqC41eycEMxyrMMNNdQBcyozKOu3/+Lbn5VKQbjBoRJUiJG9+B8QOMNUTjUaYSf3aJjo0ZNBZQWaJ2iL38f5l8+L8Szn9KHk4JzoNmNATMGnLfkGkOVuAp8PQJrgDtI1kvFg4tCZJ11SGiNTWEisovWDYLcp3hMqOwBmuMLGS4oGjSi/vgKbMLQvMR1bMpp7Jk89s52XgX2MKcEFiSOQeWGlkzRFOjsuKb/xu/tJW6pgm2I+YLjRnBKaFZ0JNzWDxk+ej/YPL4/yGbP6SUE1xY4nCEEHDicaZtPUlIS6CWnFr7oANM10DWMNcHLWKLbQ1CRbAF1kyxZkLZTHBh0aEsYg3iF4lTAUEKUKFvp3D8Y+bTObkP5Pd/SJPdxGfDOAT4Bhdct1czicoMleQ70N3mJPmMP0VyM0qLi5osRDmpE2FpAZUckTzKIluJ4Gsx8gBvEBUQU5zFz4+IRX8FlCxEgnKUXCaugypp44WQp91/jnQrgFeHsfSHzV3XpusG4E0BAFH29Wo8qDfDVKMK3BZI/ZLZ0a8Qf4Cpp7EcIWq5vSpFsY2vG0yNJQ2atSzycxanP6d39oiifAen65h5QiJFCZaGcUvNyIoMTl6FxFyCUdODrw5dW8cNNwnLEheaSB6zgIQEt9Xn+IunyM4E3OblRuHSOu2rbUxWinPs7I+xs/cpwgl5ECAnk3bVkeMTciE+qekFsiD4xYT6+Dn57hTNt5LpiV9pSvRrHE6SoNIK6hNs+ow8nMXmwGe4YBg5QkZwm2Trd6HYApcnsCWSz+Kk1urqBefAURGOP2TxwV/B6U8o5QSkigcecReak6HqWIaMRraR8m1kcAc3vEneH1OubeD6YyQbgCvSpGNRC94saZYT6vkFNj+hPnvKbPIJutynsOMo9ROhMUl3vgJrKOUMR83k6B+5+HiTjQf3kGGJ0kOdYqGJhkeAqSSipSBfV275tdZsoduRS8tADQLBoS7HB08uE2z2AbMP/zcWn/w1xfR9HNPIgg8RyXDmIGhEnkSpXUGl63i3C/07uNEtBqNt8sEmWozRfIi4XnrOG7AloZ6ymJ7QTI6R88dU5x/R1M9wYYLakmAeUUsIXUCCUoYGDUc09c84e+hYz5Vs74cEl2H00OTP0JEPCQSa9CzLpX9Hq983h5hDQ4YzRQ1ynyHmECnIsjz+WctSA6ArZMNVRCe84XVOq4haIW+EAgk5ag4N2nV7IopaFhEfc93UH2W1r3z0usbGrqf/6wbgzfcA3SKgg+vaD7JGGpVNsdljlke/QO0YyYxgSuF6NCGg/Rv0dr7N5PCUZlEjXKAisY6wxBaf0Bz8kmL7j5F8ECVQ4lAsypVaSLDt6RNRS5M3gJEnrkCUD8Y9WwTXdLBJObrJ7HCNMhV9tTTBiiLNhOrsY8yfIzkEswg3ylcHACw1Dd6ioYHYAqueszx5SOYnSIgHlkiOojTFkKzICfNjcl+Tm3X7Q1/X1Af7cO8czUNiXYSInljgkin8ZTkAl3UlkwqrDmimz3BhFuFGXyBiuDSVU9ykv/kAyUYd4VKTNO9VP35nHuYHTD/+Ec3BzyjrF7giIgPBEqXJ50CJdwMYvMVg5zsUN/8EGX8TGdxE3QBxJeZyguSwIg1rS7rzNS4swU8oly8I04/whz9n9uInLE4fkftzcnGRDGoOC0tEl+R6RlEb06f/QNl7l8E7Gwi7WHCouqSrF4LYbyFk2K7ouwVDgnYKCwfR0GfxmIvHf83k8f/OYP6QwhaxENvlfynisFDgfUadj2hGd8i2vs1w5w/Q8TfQ8iZZOQTXS4Y0Zae2iV4JDRoaBqGCMMXm+zTnDwkH71O/+BXV2SM8J7h8BlLH59M7nGU48cAp1fRHnHzYZ6PcIL85wFyBWHHZuEv7aQyJdXBJ6I1hhK1hVxbXBmltiDkIOWgkFa86RK6ub0xW7YfeNGMuNpJeVoqRZfH1WpYam6RCsdgAKDnWGpTZyvux17kBClzHYF83AG9w/X8FRrPExo6ynWgK431F5qcsjn9NM3mfkhNybQi1I1OhYoCs3Udu/wlSfUKYPyXnAhVPsAZVofTnLF7+hN79v0DzMeLWCZahpt3DbLLi+0OcQEhmNLHExEWBWtS6qxhiJbgddPA2phtocwI0yXzD48jJ7QImj7HlKVp6jDy99a/+oJmAN4/HxV0gE8Jsn2q2T48ZXtKOTxo8io7u0FtfZ7b/Y8QvUQFvNSqKkwXh4hOY7sPwnTiVB8M5d3XK+Qo/ztBtShZUs6c0i5c4t6Re0YQpFUsbEAY7ZOM9TMoka4ooUDAQ1Sh1NIkHWnNOffwrZk//kTV/TKYeC1FgJ65AzVGHgqW7gRv/MaMHf4nb+yNksI2XNZyMYom3KBntEA6JJDWxFfxJDbIttHcHN/oe2cafk9/6FbNnf8v5k/+bfP4xZTOhJwJeMXJwnlKW+PnHXOz/DcX2bbLdHxD8GqpFRzRVU/S3NGC59NkVs2iqpEkFEWZo/ZjZ/t9y/uFfU84/pNQK8xkhNHHH7iKSVElBo0OsfECx80cM3/pTdPcbaG8HZB1CufJca3QS7CbOPDl1RhKesYkfb5OtfxfZviBf/yn64u9YHP1/VItfkrslJj4R22qwDLXAmp5xcvTPnD3aYqvcwG31MduI+Q0CIj49sXH6DZ9CsqTjCXgNeGkIxM+TBqjUIldFVqIjbXVYSTA5rbsmb6xoGoEgDY0ImvhR4jymDV4bgvrkZEgnXA5EouVr4xm7vb90BlauRTuue4DrBuCNNQGt9E5C3E9Zy+kVnAg0E6rDD8maF+TS4ELABUVqwbshOnob1r+DWy/g4MfQHEQZUyKT5aFhNv0If/IzdPwAWMesiHBoIvZFxDmsNPsaJwRhVdBEx6C2QNT2b+BG76K9m4Tmo8gw9oEgkcfgqAizF9jkCAY+EfiuYG9f4QqJ5Jh8BMMFy7NP0OoUseQ25xSzGtOcbPw2eusecvyEqp4ioSFQp0lmBvVT7PRDZOdPELeGkHcH9lc1C++MUFWhWlBNnhGqc1Q8Xv1l0TWP1x756C2k3CZYgYZLtUXEXQA8KuCkhvkB1cFPyWe/xslFLAzSRJe6oFQhZ5ndpLzx5wze/R+RGz8gFDs00uq3M1QcqpIavPbjl1wBOnJebECCeRoTzIZIuUXWv8lwsIUrB0we/RXV6a/JZR4lnRJNqrSpWdMLLiY/Zf78bUYbb+PKMTUOk4BaKsDQUUrezBmr3XpGEv8kEBnjTpZI85L68B+YfvLX9Ofv02cBdRPd5EKDJDnj3DKsuIFufIfh7b+kvPWfYO1dLB/R0KonokZdnMTPwZUGX+OayVoTrBIvfWqErNglv7fN4NYdio+HnHzsqGfvk/kzcqkistRaeNYNI3fG9PBHzPdvM1zbwfr9aI2rxPY6JK2Nfp6rRUJGxENaN5gSicHSmkQlaWxrK9wZDekr91fe2IEZiZSr5k7J30EsrkwSsTMiZ8kyW9LXPvX6239fkTjCdfG/bgB+u11BuzMVs2jOcfGc5dljcrvAmUKjOPLoF55tYRvvwvA+xY5QPbsNp8/AL3EZ0NRkEsjsiMnzn7Gx95+w7GZEGExWoDVNQKkh1u47XefYJ+Jj94/jSvgGa7jxfXS4R73oJbvfEJ3lxCF4QnWMn5zgNisoBqjJ15qyxSCzEGFZ76E6Z3m8j1ZLtA00CS42LG6IDN5Gtr+Djn7C/OIQlTm4GnMVjc0wf8jk+BPGzQSyHVyyt1X9mmWmDSqp5tj5AVm1wBl4iYeohES8yzYo1++jbjMqN9r/NhEBPQFRg1DhmFLPH1Md/IyePMV0TkgU70BNbcLSrVPc+BP67/33yN5/pNFtGsuj6NM3ab1jKe1Pr+6eWuGJpunOIulUTDApqVEaRuS9bzK448jqgoulUi9+ATKNkiscagHHnMI/ZXH0S/pnn5DduB85A9Ka7ugVtORNlQ5pp7q0pzE1glY4TgjTXzH55P+E039mzU5RHxJCMIt5AOTUVlAXNylv/SnDB/+NYvvPCPkDgi9QDxlN/Hm4uFoLXN5nowsCJARLaoD4jLuQzJhyF5Ga4gHZ/f/GRjFk8uivkNOf4/wBTpsoflWHNY5MKsrmMZP9v6e3dQ+9s4PpJoGc3LLkaSArjdYrXJ5WDdiiMrjoBRE0/ly0JcR5Vg0CrPMnsRXDIXljE3PLHcmtVSrFZqcVK4lcKgLA8KLJXyOsujK9Vooq11X/ugF4w+us5BkiKHk8myz51UsE3zNzSHOKf/ljmH2Io0oTjCKqBA95vk5/fB/Ld9GtEh29S3P2CU5e4myBSY2JoHZGdfqQ5vAj3O09LM/xKri2KAS9aozC1UZfk3lJ1NhGpnzAEOeQche3fof6sE8v+QF4VTIUfKCxKdXFC3I5Q3St092vOm98OiXw6gMp0kJ6GebBWYNNnuJPP6Jkimm8b1o3UT6Z3STb/QbS20PG72HPfo3aNBoVAY4aswnN9AVhcQjlbtrXfvmP+OprbhPcvM1x1SHZ2VMI8/ROAubSfbMSn+0g2w9Ae2BCozEnQZOrIWlC1aDg5/jzR9TTj8mpIkIUjFwcXgKNK/D9Pfr3/xLd+D4wRE0pcKiProRk0un+r9xZWfHBuSIBjYYxcVUeIfOga2j5LvnegHK+5PzxPkObk4U6HawNIXhKelSTffzLX5Bt/jF5PqLCE1CyNxQA9CpqFN+cRkJ8q5u3Gqn2WT7+G5qDH1HYASEsURTnhDqESCJzG8y5Tf/OD1l78J/Jt79LcDcJlie7bEmNckhKDrniMbdK59DOHjkkS9uUBikWSXuSI2vfJLu1zlo9YFItaBYXWJjE1VlwZM4ITIEZ9fyXnD39J7bH3yIfDmOQUOvUl/JwLrUWqb2XuL5TC4j5RBko4udjBQlq7YQvjfNT0NhrdvJvjjeXDk2TS7dUte5rGiI5Uy19hiWiGNp9tq9aj3VmWAkpvbRCv94BfD6edn39236sLcmrkiIgSIJ/aWDxEjv+Ga55HrXCRLe4Wo1GMrJyi7LYpWFIKLfIRu/QuJ0oebIqSo9oUJvC/DmLF79A6wNUZgSp8erT6iHCmJ0Z0CoHSNpGJfp+t8XC8MlFdUg2uEGj6xFqtQibSgho8HHvPXuBhWOQlF3QnjGWEAOs++fPjmKVFIoUYrzt+SeweAoyJ2iDaUNGhVCmHfYe6BY6foAWW3EHbxkaXNqO1rA4opk8gXAe1wNfofh/6mzCwBbY7AUyfYYLi5XDMWnOrUT6u+jazWgYJEYjJNOnqMhofdlVHNQL7OIx4k+jbFMcLijO55jPMbdJufVt8o3vQH4brIgcjZCmOBeVG5iyandicvnrSkdgipGBZHhpnfGaiBjpJtL7Nr07f47b/ga1Dqi9xb/LWXStDGDLl1Tn72OLI9RXHdRqEjqu65tetcWgGyGIB2miBe/hL2me/iN59QSVOgY4qeH9EjMl0GdpN+jf/AtGb/8P5Ns/IGS3MCmjnt/FfT4u5TesrM0Vi4GUstoI2KUKIkV0J/eI9GQ5vKxD712K2/+ZwZ0/Y1nepNbIYs/IweLz6tRTyAn16fs0Jx+g9RQXEklOiWsnmq7It/c8tEVefOSdWExADLSmYOHyhnUYTVhpHV+H2xhvhhB4mThoiUtBCvFa/X0J8RnREBsdZxZVJ7jXtIf6ChgQOqTj+rpuAH7Dn+dwBd6W1d2sCBLOaY4fMjv7GGdVkpmRnLkaljrEre9BsR1jZSWn2H0HWdtNpifxQFeR5J09YX76K/x0H/V1hPlJ8b0SD6wvW/y6LG4R0IxytIMW25i5jijoQ3xTjoZ6cRAn7bDk0urYr3w/+zLnOF58TL7zF8zPn2H+4rKwN9EkyGs/QuzFJuiQbP0uMrhBI8kCOWjHzG6WJ1QnH6P1NB4Y8tUe/O51C5hUqFUsz17S1EdY4hsgcT9MyPA6oL9+iyzfAFwkbUnofl1+CFIZaWrqyTEuVLhgYPPk5ZQTfA+vuxRb30MHd7E8MdA1x5ywzCoqN8c0pDVO+8s++5cmtEWyKH2Lr5Koiiggy8k23qa/+X0a20F9j8z3EOtRk+Gd0eiEaf2UUB0jbnUm9q/Ojm+g+LfGLym+WAxlii6fcvH0pywm+2DLluLaYvXgHHMZY+P3GL39F7iNt7FsHJtLsgibE4t4l467gmDJazgk7dckIQdt46+mqK2hrEU+jstg9BblvR+ioz+k0RGEQGaCCwO06ZP7HpmvaWaPmbz8J6iegFxQSU0tDZ46RjW/tpjZ5xRte03R/bx//21ApyuvVT7vT3zOa78e8K8bgN/u1e7ZLkM9xFrJjkODh+ol88Nf4JcvyMWTWTs5RDiv6m1T7L4L+RZCjmqBbNzFbdzFZwUNDqRIA71QuJp6+j6Lo/fR5Rz10azn03vCr/YwijiytRvo2l6yG44HW4hYe4wwXrwgTJ6DVfH1y2c7iH02/y7eL5UKWx6ymDxHbZqmZof6aOTj3Rhbvw/ZmECfrL+HjG6x1CJO0UFTYxQwf0pz+hEsL+IkK1/c/b/arCRjZYJFeVd9/oIQzhCpOxlZ3L8XeN2kXL+DuvUIsYqheLTdUwopuCXCrxYq6uUFGR4JAayJzQIS1QIyRMtbkK8RVNMyX7oUR79yTy9/pQIkr349NgHtFzQVf5fyDVGwTCAfU4y+CeUuWhYIDm1KtC7JQkYmNfXyJc3sAEJFlrTm0sXw2pufsuQScVI7pzr5BfOjXyP+FNUojdBEL1PnqFDq8g5rD/4c3f0DgmzirReNs+wyKyJExX6MzO3uq3zOZ3vlz6zWIxM0rZ8aMYL0kPF3Wbv7Q0L/fozi9ktcaMgD5E2gV1f0wjHzs1/RzJ+ALhGJKxnFoZalTAn5EsX03+sxal/rzLq+rhuA35ErXOkHonWoomEBk49YnvyczM5xobk8RDFMCmz4Fm7zHdBRcq/K0XyXcvsBob9BbRkmWaTsmCGyQP0nVC9/ic0OkNBAsom9PCO+3AMV4Uu9jAQttsnH92mknyD+Fq43lCWuPqI+fwxh0cFs9ppDUeTzXcViizSnme7jpy/IJE5vGqLhR2OC9XfR8V1ggFkP3A5u/S3qbCMW/gQVqjTkck6YPsFPD6IhTkwS+MqHUPyvKmxxhJ+9QHSGqO9eMW0D0LuJG76FMUjlNXQSQGuhTUmcCwsRxiWGnLgAqnHfHKyO318EyXodidNWuE6ODE0NmX3m3Lf61XDl85jQ7W43GhSCC+BKyvEDrL/DDGFhAvTJwhANBS6AVRf4+Snil2TB4j1fQVfeJMDa7eONSK5sjqkO/iXyamSKkmz9rBW6OWod07v1Hyjv/AAr7hJ0E7MiasqDXLmRK3ftXzXUtmQ2U6HRjOC2yff+lHz9e/hshMmCwBQnUWobnR8q6uk+i5OnWL0kR6IhVMiQ4KC5PrKvr+sG4Hd8FXDJjgppGyhhyvLw54TpQ3JZxsmPgIWGYEYja5Qb34De7UgQMrDgMDem3H4Xt3YPr704fapLerCanp7jzx/SnDwEP00O6ashIl+hAejygjNwY3qb97F8dDluuZh2plaThXOqsydYPYt7/hRKtAr/f5k1QFy1z1mcf4QtDsglzbjBcJIRpI8b75EN467WKDAdUa7fhd4NgiQyowlmnkwWsHiOP92HMItl+HOsgF/3Gi+jjRrsfB8/fQZUaeKVbu+KlrD2FrJ2O+n/tTNWss6jPTYN0pq5a8CkAatxomB5LPZSo66OzZXNEFui1iYaRiCjMIlkwM8Eei9JVd3jvcpeew3K4akxyZH+HjK6zyTfY9G7w9RtUrkRc+lR6Ro1OctmijFFpEk/bem6CXlTGoAVonorsgyTpzQHvyJvDshtubKJizyUhh7Z8F2Gb30fW7tHZQM8GRZWiGJydZXxtd+JBpCmOwNaDo2XhkoVLW/S2/kBdfmARe6oCs8iM5auZJmNmLNGoyWz6QxrFkgTcCbJUfKLCBe/B3tu+TqOHdfX172uVQD/hieTdV77vvUkSwzXGmsOWJy+j1TPcBrSBG84DTQywPIbrG1/G8l3CE4vp3FV3PAOOnqH+vgDLMTmIWqJG0oC0/lj6sOfkN/6D2i5jqeIBVm++Hkye81xJwrZGsX4NhQbWFWC+bSqMMSM3GZU05dQnUGviUqAlQeyZdTH///sIzXuv8/xsydoc54iP9uptaTWMfn4FtrfIEiEa017ZGt3kN4e4eJharEUM4/TBmtOaCZPKMIJsPm1lyFiDeFiH1u8iDLF7n7Gf/AyQNbuQrmd4lVdl/3QIjEqLTNbEhnTCKI0yUHRewWN9sCYIPUcWbyE+iJxHloWuLXBjp3Pw2dNxpdZD4HXaaGtTbUjysYIBeg25fafUPvUGlQB5xQNNXneULoCRvewrBeDhyxS3eKagTcTBdw1Zz49VwHxU5YnT7DzTyjDFKfx0yOJUe49VLKOjr+DW38Xc+t4y3EGubxyb5Ltbhso/dVAo7RuIclr0w9LgkYOgvqkv++Tb3+fMP4xF+F59AOwEaobaDnCF2PW1u9QbL4L5TgpS9KL1K8DkV9f19d1A/BGYMl01OOS2UYb/O6YRXbv+YfkTJK2PcPEY2Y0MkDX3qXY+AamY2pryNUR2kAQN6bY/Dbz/X+iro7IxEVlAQKNkIULFqc/pTf5CBncThag6dxR/YKjTHDOXc6QrTzPCmR0A1m7QT3tITYhBI+6OMlqmGPzI+ziABksIet3ASPtVH25O5XPLLLOPDZ7iZ0/pqDCPP/IyLwAACAASURBVJjG+1ebEoqbFFt38HkvhaEYZoIrd+mN36Y5/Pvo+KcZqFH7GtUls9NHlNUzdHD/S0/+l19PYUr1jObkEc5O415cDR98hHQRGjdmc/c9LBvH6N+kFdcghMTF6PwRLCXWuAwthjHAJxFBI1Nf8JUjK+ZUpx+Q3ziAfA9PSZBAJh7xITYSLuvS9+xKI/cqspIMlsSnDNmkTOkMoATxEbUAx8ad/8LG3h/GBrMNjSGuLTbU0WQ71DImUKBCkgE26e/TNwQoRj27IBAqrDljfvSYvD4kswa1iJkEiw564kpqd5vxjT9CBm9hFGRtRkNKE2zzdSSx6J18dTRDhLQGa22KQ7dnURM0yWwDBW5wn/6tP+NUPFqs0Rvcpje8Qz7YJO9vIL1NyNYxGRNSxoK51NqZfc5dvuYAXF/XDcBvtQl49XOpBKiOmB/+nGa2T89qVAq8xcjOJmQ0bpve1nfQfBezAnU13gJOsnSQrNHb+A4Xa/fxYR+rKlQjG1utj2PBfPaI5dHP6W+8hyuHtEZj7TH3WW3AVYLTipGGKxBG9LbuMz1aJ7MZ0GDBR48bPOonLM/36e9OUTYi/L/yPS519Z/W4ZpFWpv4Gc3FC5g/Q/0ikSJj4arI8b07uMGtyJEIybFQgGxMObrHNB9TByX3JAteh/cNYfkcmz6B9SUiw89836uNwOo/R7/+U5rFCxyLKJkMvsMtGivQwU10uAfZ4KolXpog25Cl0Eq3LCD5gGywx0JH1H6SlsTJfEdzHFOq45/RO/s5bvAWRkmVbGBzcZ3uvXOjs08jp1elz+2u3nfJcXFdE9JriqgFmRL0Buh2lIPiO2hfLKZTenWYZN1HxVoveVtJqZPfRE141VOihUKW2OwZzflTylBF86jQOvNJykXs4UZvk42/CW4j9mApEyNa6WsK17GYLhkuTXe+2nt5NVyrjWR20QvCFIdFzkGxwdren9G7cQ8t+mi+hWRbUe2BEizv1ggSLH2niIyJWEpevL6ur3/9dc0B+Dc4nKxNqLuCJhrBGpzNCfN9Fke/xjVHOI1TQTycFC99fHmHbPdbkG8k5MDwISQAwYP00eF9yp33qHSziyQlCBZcyqt/yeTgp9hsH7Vli2fGw9O++CRrdcyrhxn0yTfeps62U/RqgnoliwYrfsb8/DH482jXa+G1xXS1qb8qEYzyv/rsCSyeI1ZFMw9RvECjfXR0H9e/hVCk95JwFlmjHN8j9HdotIyvzPJEqmsI9Uuq44fQXCDWdH/vq79e93ojp2CBTV6ynL0Elkl4Hrr0uYoh2egtZG0zpRRyyfpv09pW1gVtQRIZka/do85usLQsSQUTUVE8ahOWF7/g/MnfEk5+grMjSubp/raWtClvvg0aIqI9ttrGvWbnjxmES4KgEJL2uiHoklqVJQVLelTkNDiC5AR6QJnkbT4mSXTpj+E13e9v8DnroHqDMMcu9mkunsTPknQmF8Qchuh6WKzfxQ32IJSIjwidStustpS/2Ca/4m39FQeA9glJv9qERNHkDpCjkoPmSP8e+cYPcMPvYMVb1GyxDGNqxgTtxXhu8emX4fBEdf/n3exrDsD1dY0AvNHifzmThBRPms5mDZhU0BzTnDwknD9iIAskGBY8oorHUcmIbPQ2xehBgtHj6S2aRXKy9+SSgwwZ3vw2k2d/R1k9x9mys3xT8eQ6Z37+CDt7hI6/jboMT5FMSr7sQ9VC+ClwVPrI6D709giLX8csgzRBxle5wC+eY80Rwr3UT7rX3CP5tNTOYgsUmiOq833y5hyVuvP99gi+GNHbuI8VNxAr4xSuadssPWRtFx3fppmMwEeYPkQje9QuWB5/TL86RtxuKmKv13J/eh0QIMyopvs09Rm5pCjWtvChmNuht/EAyiGiDkfOpRvSpSSvLbw+BFQzJKyRj76JGz6grlNKXRKfITXiGnLzzF/8A06HrFmN23yPLNsGGxHzGnxCDRRTB9JOnm0K4erhaMkVTpIrYUAtJijG2IiAuZqgFRDfh0s+DBLN5F+ZF6RLN0aaywNYfvPP2GXxd7Hj8UvCxROkiZHal1EYKQ3SMoLboD++gxTrQJ4cZDNMpfPIv8wR1FVvmq9chjrDTbvCA46WwmpdVoeJEhIqpdIgouTtcyOpUbMMyFesnhMvqIV35LrwXV/XCMDvTiNgEZ52WJTsiKLaYNUxy4NHZIvnuNAkhnL0hg9kWL5FufUA6e1E9zEBsRxJHuTWyuhCgVu/T7nxINKUvJFFex7Ao75Cq5fMXr4Pk5cIi5g6dkWe/Wnh2Ot0ztKGnFCgxQ16ozt4yzEfiLEAcTFhVtNUh1TzQxT/mc3764o/7X8/ec7yYj+yt7WOTmAmeBQ32KC3dRd0PRLVWvc7yaLNam9Eb/MtGjeM0G9QvA+INORhjp8cYBcvIBXZ1UnydSjAleO8Pmdx8RTvZ8lZsYXxjRAMLXZx63dBNaHtbcCK7w7yloZnCZIWzTEZkQ/fYbj1Dj4b0YjDkhcEEpn/fesxqA6o9/+G8x//T1S//F8IR39HWP4aCy8wm4M00UDJPGYN4DHzmIW0a27/3aeduGIhQPApa8VF0qo40GQKlDb5LkjSxq+y4zzph5/QjcgN+FcK5r56I5By7c0U8zX1+XOcXRC0Iah0jnJRgpnj8h2K9RuEvEzNUgFkeHM0khE19qFb2cR4Abti6vWVh9i2E2mzGdRoqJPiIn4+RCU2ISkt9PLxtHRfYwNgqlfdHcMXrSH+3R+mX/VuXxegawTgdwAFSA1ADOVRjAYJc/x0n9nJh/R1GWuDZKgLeIMgBdbfo791D/IRPlnoSjLe8RhOHaEJaFYg7DLe/Qbz52Ooz2P5txrMo2Lk4YL50UP6k8e48S5CL+4Qr5iUfJEv9uoDWKDZFr3xHrNsiFXn8Zg0Td+ywqoj6ovnlDsLRAct73Hl8byaB7BqEywsqS/2CZOnqDV4YmpbCEJDjhtsUwxvITJIiWhtzHK6S3lcA0zyLYI+jwe5RIta5yvC/JT69Anl1h9ANro6YdGGkbSqudX74qE+oZk9i3I8IoPfRFK8b042uIWs3wW55IzLq2dSZ1YDTmJzgmVkvV0GN77F8vhdmtML1C6SeY1hQVHL6fkKtcfUJ0dMJw+xg5/A1jvk6+/RG71LPthGekNEe4lQWqSY5zTJWvIgQLppP47+dOk9oUO78wQuC2oSDf403XJIeYaJGNh+kXZ61jf8rGnXqFhYUk8PcTaPtszRaakTJUKJlZtof4NGkvFB4k14YcVyVi8HbyEJab/ehC2vJNLF7xcINKlBzleeieTvuZrXsWImFkjikZUm5brgXV/XDcDvyNXCxxHObt3hAJcyv5kwf/kvVPNPKNSofUah4KkRr5iNYf0P0PX7IB4nYN7ipGgh+ntLMpMPAVinuPGHVIN3CYuXYPOkf48WtL1QUc33WRz+M2s33kPd9hU7AOu844XX8vNbslh8E4DDsnXc9ts0xS6hOcKHJSYuRXVWDJeH6Nk++AvEjTFyRCPsHEIMSBGUNiHXRBD1iF9Cc4Qc/oyBf4nGOHqCBjw5lW4zXHuA5NtpJbIEKfAhpSyIAmvo+jfR3gOq6fvkbgJWRcMcA6svmB4/orx3SnA7IDnePE59TGEMmqRZnmANKkWa8mvC9DE2+YgyLJNhk9IEQ7Je3Ctv3UeKLWDUntIpHEY6nXrML0nHtxiqRghLcIpsf5/8zgHL2TGy/IBMo+ZfQkOwGU7TRjlMyaoJ1dEh9fmvabItfHGDcuM25dYddP0tWLuF9HYQNwL6sRkQR7AYmNLa4QRpd/9xSg4mXWJhpKulwqfW7dMvHSVd/JpeljolqRHszWSux6Cd2OCJzGF5hDQX5EJMpKSJEclNNDv2ksNoG4r1ZKB0KZ/MgGApn6FNOJRVP4WvFx8dHRb1ymbEoTiKjhTYtsUuSYelk/glUDYle7bhP5dJY1/0mq45ANfXdQPw2/rkxsM2GKhHwgKbPsdOH1LUBzjx5Gbgm0jGlgzNtxjc+Db0diPph5heZyvHbnsmGIrZEFfskW19i+XF+2TN4/ibLkLPGiqseo4/+wU23Qe3F3Xk6UASeaX42yvP0CvugQGHSEHW3yIb3qKZf0QmVfIYiIhH4ac000N8fYIrb6bp3laYaHFhrBaXFSZgoUaZY5Pn2Nlj8nAep50UX+oFyG9SjB+ADrvvE5KSTSykeaiH6A75cI/6ZIBwkoooODOczalnT7HFIVI+SIZvydGwc2FMwUlJwoh5CAvq2XOoXpCHJpLfVPBieHLIt8hGu5ANgV4qjiu55CvycpFWIR8w8fFHISC926zd+XNk8gHT/QW6OGRNFWczMhqEuAbBKZlrUDuirA+Q2iHzAdXFGpOnm/jyJtn4Ltloj97wNsXaDjq8gRYbOO2DDvDkNMmnQDUpFCwgBrUPOBeXSWpGCCFK5FS6wJsuMMZW319LFNVLsoP8pmtDmqilicmMy1N8NYmKja5ARu29tEZNg03I15CgieRH9zPPVt/TlUdAvvYJ0DUPK99C09/26T//it+AXJ4jV7/FK9n21zXv+rpuAH63kIAWag1mZHhoJoSXHxJOPmKtPqPHklwqvG/wusaSAW58m7Wde+BGUXcvOT7t/ELadWuSe4nGouXyDdzN7zF7/iMIzyisjjny0kCuNMtTmslDiqMP6A2+hRW9RIxqC7tdkvhWD+42Uk5WYwMBUVw5pLd+m+qwTO1B6DLvjYbF7Jh8foRbqxPpLeqerc3zNhDJLmWCAVQq5hdPWcxO6GOR3GcSJ3dzZOUN8o37yQgnJpyJSWe20hKi1K0x2LjD+f46+ONoAysWGw2rCIuX1JNnFOMKj0fUpSBkH21kE1wrHQmrgWZKPTnFqjkuFYwYwWzUQdDeDsV4G3HFK1LHzxpo4ucCM1Q1oTuObHyb4Xv/lSYIyyf/AovHlCKIX8SGyOXUmab7PSXTBSoSvQ5sQdmcYdVT7OJnmPRYujF1uU02uAWDm+j4Fm68hw7foixvxoJIBlLGNYY4nK5ICU1iE6rtPU5Qdhsj+2ox7ngPAXFvDp4WBCxQzSc09Yyi45+0q48A4lBXkPXXwZVpbWSvPLO/j0PIv/PrmgNw3QD8u/zcSqARommLGSxOmB+/j1++oJQGaRRzUULnfcFMd1nf+Rba28YsA3PJY54uxc+SIU27q47j7xC38S10/W3q6ufkzXnyHHd4EfIsUM+fs3z+AeXNUyhv4CHFyFxqirtVgMil7jnNK1fQNQXyATLcI8gQkaOVfHFPoKZZHBFmL8Hq6FNjLqmfQnQ6azXrEpJZkIKfsDx7TGgmHRlKiCEzJkUM/Fm7myJ2BUK7O/XRQKl99F0Pt3EHLW8gs5eoVSB1WjXUSP2S+vwxxc1zxK1FHbYl2Lt1ZAyxqERzpQZrTmmmx2RWR7mY+S5rPFiB69/C9XeAvLuHxmoAk3Rn2eV5pmn6joFNMeBnDR3/IRvv9pm7TeYf/V8wf5++86jGTAFnlhIj82goo5ExHkJL8lumsCHB6ueEylGdl9Q6hGID7W2h5U3ytTtkw5sU4z107S3o7aD5GBhgmiUUQ1Y+d/YF52ybCWgrTeHXpNB/Ceh/9dLkAljVUywsExG29VNIayYBNCcvhiD5Z37f389G4Pq6vq4bgDfbAJB2+xIT35g8YXn+PibnBFG8CEJByIzaMsLgPtnO98CtIxRx758C5OKOO2CdF7wkT3EBK3HlHmtb7zE/uYnUC9RHmL0xKDJB/ITm9CHh4kN0+FYMELLQHdUm0h3znbRolYlMJHxrSnpD++TDOyx729j8CWYNaslOxhrUnxIunoGfYVlaMrTFT0PyIbC0g7b4oZsf4c8/QWwC+MgXgEgyK6LJj7htguSvQKWt21qyN9KSbLBLPryLn35IFqIngdeA2ZLMH9GcPcaqI6TYhdDrZHE+efRHVzni5GsL/Ow59eQlpVTJ/Cf58YtD3Bg3vgv5VmxKJCkiItPhkmP4qtFQ+nuC+fh9BEIYgPTQccngGwPyQY/JJyPm578kD8cpF8CT4VDLo8MjBsET1X+OIEYwjw9N5Iyo0UPoyTEW9vETwV/0qI9GzHUbylvI6AHlxjsU47coNt9C+ptQrgMDgpQEKVKuffpASOCKCf+nmoCw0i3+5gr/5doq/a1+idMmOfjZFaQromiOLFuLYH9C6ez32kr3mgNwfV03AG8QrVrxu0/BJM4EqabMjx9Szd4n0yW1CpplLKzB1FOLUGzdRzfeBR1G4pxkaWpNRddW2MGWtNxmkaXNiMHmN6jyezA7JPeeTASVgEpAbMF88Yjly7+nv/sAyR9goUzJhBYDiiSsoA32+jGvPe+lTz66S752Ez8rI3xOIBOo8Ti7oDl/gjUTNHvFAMgiocyCEDS6/2lo8OfP8RePyZh1FqpJxY4rdym23kZ0jCcDMzKJe/RLDztHQFHNkXwdt36P5sWgW19EY52G3F+wPHtMM3tGtvYOPrkiekle/UhXOOLrXdBMntDMnrNmHgu+E9YbGWSb5FvvJlc5h2hUBlh3eK3QyOTya61yQdLPIP4Bh5lgbgddLygGGwy37nH++B+ZH/6cfPGEfHmE2gykJlnKQQbBAsFbkohJ4uxFSL4xxYImRYCQyRJlhrdjmuUTqsVPmR6NmGWbDNbvUmy9TXbju8jmt6C4Q8UGLq1cYjfqOxSnlYhKaAl1yfxG3hT8367xQ+SSOI/4Jqox5BKViA1AhrpeRACk5cFcT/zX1/V13QD8mx9MQm4ZLlQwP8SfPqKon8ZIWhNMYvFvJBDyAYOte0hxA6wfYelUbbtAPmt3nWmvGX1XY/lzglu/DaN7NNNf0mOK85Fl7q2Ou3R/wOzoZ/Smf4Eb72KhTCEyrbGIS9Kpy1z3rgFo9cutnbD00d5N3OgOi5cDMua4NNGKBNRm+OkLrD5HS999C0vWQdHTIBnLWo00M+rzZ7B4gZM5orEUB/ME7SG9O7jRLYKWmGSXcHQ3iWadn72JINkAHd7C50OoXXJgi5JAbZbI/CVhso9szVDd7Nz6VsVVtP7wfo6f7OPqIzTUUZ2Q3ounwJe75KO74MZcxgJefgqMq7Cyavq6rTgDdnHOEbxGcwIjXJ5R3ByxPbzH/PC7NIfvUx//mnryMdK8ILMpmdVkFiJprw0FEjB1+OC7gmwrBS++r5rMeZyrcJxj4QCpS+qX7zM93Eb2/4Xy5vcZ3P5D+tvfgnwPC7GhMqeE1CpFP4TEYbdLVYl9neHtaw2IrcTCo61jZou8rH6ELTpKipa0krzVn8vvJxJwzQG4vq4bgDeIVgkhtHGtgloBzYTm7CHN8Qf0/BkhOJxlqFVYVhN0gOvfp7f9LtgYo0Dkkoh1xTa3TZRNxT9mi3vQBvpjilvvcXH8N7jwkp5vwJYQ4p5adcby4jH1wYeUg29hupEKhiSIuj1MU8JfZ3yiHSUgWggowTLMrVOM7zLJttD6DKSKZDZVnC2pFtF0R4dLiLS+BHvHKVdUk495AH9GffGMLJzhpEJC7DSCQOPW0LW7aG8D75L9sKQkvbS0iGqJ+B4ChmY9iuFtZLBDc5GTNUvEDFHDBcj8KeHsY6gvyMqmc81rf2VCahg8oT6nPv+ETCYxslljMTHJaHREPrqFK3ZAeslI52pKq3xpZFM63mV0EVZM+kAOgzGDO29h29+nOX9Ec/o+zekHLM4/ppq9oKjPyVKDg1VYqAmNRzWLBEiiHl0ExHxU9UkR34ePP+todzynR0XWLKnPL1hMn9Ac/oThne9S7P0FuvZtzO1CGMQm1YG3OloBG0kG+GYK/6eO/JZQGVo75LDSOGsyuFI6e8DU5F4jANfX9XXdAPxmjiUDwoz65Cc080eUvqbUIlZSE+rg8O4m+eiPccPvUemYTDUFwoRXZHhtnjidwUkb8duQIbpJ7+Z3OX5yl2n1nMxNcSr4YJiU0VhmeUr17BHlzhE6vgmWR3Z0O0SFz65Y7UQnwWLBpY8bvQWD24SLpxjztB6OqwerTlie7zO4cY65cXK3EyREcpkl2NbZkrB8QZg8JQ/zaH+bdvDmMqpsk+HWu5AP44qinatTrK4kUVUX5mIBJMeNb6HjW1QXAzKZo9KkH4uCn1GfPaZXHSPlHLSMIS24y8lcPdgcu3hOfbFPGSYYDSZFzHMnp5INRhv3IB9HuWbHnbSkUHjlBn7GsLL6W2rtDN1GCTjM+ngt0cEm+do98ht/hM1fMDh/Qn3xlMnJIxbTl/jpAVl1QikTSllAWKChSXG0llQYFh0mnUufI8gsTvPOLn8muQSqMKM6ecnZ7CFyts/62/8d5c5/ROQuma3hRdKaoemax0t5WoA3ZFQTxGIyJJrQM5fkt9ZCVt3qLPg6KkNeian+/byuOQDX13UD8Fv64HoQT6ieMTv7GcohSB4NcIIlb7I+5m5Tbn4HZLwiHwuv8faOD0Jod+MrQT1iGWJ9XP8Ww+1vMDv+FbVWIMsICSuoGmWY4U8fYecfI+P7aSIvuwla9XVQWmLsk0iATUBcjkmOjPdwo7cIFz9po+Bi4VOwZkp19oR+c0LIbuIpcCIxsCgGxsep3ObU08fUF0/o2aKDxQ2jkRKf75BvPIBsLYL0ydEuurMpklwI2+ZIQkxw13KDbHyXi6fr9DnEYXgzEIdYxXLylDB7jhu+E6fsZMMiAsEHXKjBJtjFc3R5SKZNzHRI9ztYQVPsUm7eS/p/SXWmZRJ8EQbw+mNLrNWD68rvOVAhmGAM0WyEjG6gw29Q2oQynMLkBfXpM+rTp9Rn+0ynL5D6BGnOIZzjbErGEtXIr/Cp4UvBw1Hzb4omBYGqoVKRMaepJ5y/mHHYzNiczOnf/i9o/x1Ck6F5cmK0cFlMu1Cgrx6j+3VKXCSmOkzyyMsQl6yRSY6cbShPMl5q7Zl/r+H/6+v6um4AfouXBw6pz3/BcvqQnlR4zfGNx2kkfxk9isEO/d2boFNyzsDy16y9LrPbL2eqxMY2j7PkzY6wvnWHOtuiqU8QU1QCwRaE0JCpUS8/YHb0cwY3v4eUkqbN/ucc1tK1Ae3ZHodUhXKbYnyH5bOSYJCpQ7yLxsXa4GcvoT7C+osUuJrhOozcImDczAnnHxHqg8TedsleGDw9suGtLv5XQuhcVWN5cZeoSMLdlTy+PjegGL8NxW1C8yHOfJymVaNccXFIc/oxbvM7cX9PmyyY3ByFqJ6YPEWai8jdUCUEjQVHSnR4Cx3dAi0IQTDXahEsyTS//AQTjZQkIQApSlYvs95SsGDnae9xmA4Q1nHhFrL+DsVoQbE3heUJVh1TzZ7jp09pzp/gLx7TzF4g1RESlul7LQksybQhSHTCC23IDIqEgIRAEZasc8j04EeczQMqjt5dwWU38b4fC64R5ZhiVw1wftMzbnujRVJ8bhbfgyRvh/a9WLRS8iHmJtA6dv5erwCuOQDX13UD8Fu6Gqx+xvTlTykWxzgfa6bLki2wBQgNmUyx5a+xcBqd7Cy/LPAr3uR0YSyJsd95jEfKk0hA/Ak6f85aEZDKIx4yyahpYvELhnLK2dEj3OQpvXKQ2NAOkTISC+X1D5TIK6sNFNE1+pt7+GJImCc43jQVK089O4TZATae4yVLOELZpZmLBKyesTz7BOEiup+ai4VYBZMBa5t7SLmBUcTiGIwYSqddYSQl0cV6G21TTXsUo7vkgz1sLl0ug08Fw4UF05NPKO5NO1mh4NNtj1Ok1RfMz5/hwoJgNeoKQm2IOUR69Df2oNxIfgyXvvFudWvzKZvFzzm0JGCajHqFFYJm6P7zeI9iymIwiRa/GCI5TnugI8h2kLWacrOGZorVJ4TFAWHygur8JfXFM5qLfVgeQP0cwjHOZpHjIJfTsohFt1/zZL4i80ecnf8zJ58om32ld/OHOL2DD2X8TEoD6rEOUXkzMLclY6bMlWRZH6tbg6jkOtnSRq2hqecQ6tTE/Tbr2lcrbNdchevrugH4XWhI0/+2ITi8UhdNQjLiqbCLx1QvfkW/WeDMYxjOBZqmIneG+iXN5GOe/fR/JnNDtJHLOTyN2pbg5NDtMtMY3obFIATJINT0NGCLE6R5idgcrMbSflc1o67BFTX19AnNxUewcRuyQZqI4nrCuVUkQK7A03HS0ligxTDpoeM96O3g5zlQ0S6vhZpQHRLmL7CwQNwandzNDLMqxv9Wxywm++RhlrwJotOdqhKybYrRHmSDZI5EIufZyuYfzHwsPAHE5zHsxgTX2yEb3MYfD/B2EVEXa+WZC2YX+1CfYCFNrhIuxQ/WwOKQavKMoQbwdCx90Zzg1ijHe0g2hhCdGQW74i532ca9YoXc3drQ0RjVop1ya0YUfz/J7dJqQYPGdYW0wseEEEiI8k1zsTmQMqYRCgRnaHkfN6xwW0uy+gKrDrHlMzj+kPnxI/z5R9TzJ1Ad4JhDqFCrUdq8AsEFo5SGkZ1wdvIjLh6XFP1ddDwGemkho907fjMLgHiHgxnOHC4fotkAKkcwUI12wHE9IRAafH0BfpEklO1nyLpnOrlPfJYQ9mucFa9+j3C5upDYLGtCnCJ64hPJ99KPw2T1e1ln1HV5Fn3RK/j3DGJccwCuG4DfoeLfPr7aPagCGtImFYL56Py3nFLvP6SYHRJsQe4axAzXZFhQgvo4zFcn9OsDXHCoKeb8lYPj0pn3VUi1nRTjYVt4yENsCRqtCS6gEo15xOKB6JxDfE3PPqF58ffY9h8gg9tYFjV++v+z92ZfdmTXmd9v73Mi7pg3JwCJuVATZw1ky6R6tWy1Wu5XP/hPtd/aLbuX2m65KVmiRFLFGlgDCihMCeR4p4g4Z/vhnIh7M4FiFVCsEqmVlysXMRQy7xBx9t7f/obMYo+dKG5lDdyxE7xDQ4NYxLSPDK8hkzeoD94Be4pREUUQNTz7nDz7mPH1BaUKatrth4UKOGVx9AlxJ3kaKAAAIABJREFU9hk9KjRC7QsgUiPE4W381tsggyxTFMRViBieNPkGtexqqHn3m9FgU8SPGFx+jeOH28RwTCmCj4bGgLiK5fwB8fAubuNHYD1Qn0mEDcqU5eEnyPIJ0tQ4EUJoiFrSSEHoX2LjyptEGaOxQEIKj3GaGzSXDJbWPBbzG5gKehSXnAbFUgNhCapu1Gepfb2KQ46SLIglTf5BLLsUxlR2TTvjm9b/vnNRkDaa2CHaQ8oRFLvI6A1k60eMbh1gswfMn/ySk4f/iB1/gF/ep2ye4rXOhlYlwYccTezR+pDlo59S9a/S++4tYrkJLXrVZKdg+e2HAbRTcOu10TVYooj0KUZXQEZJaSNKDIYrPJUt8VqicUF99AjqU8R1BtbEYKjGjDx5Iq5L2XXr4I28ylmxskOSLFc0iwT1NMnCIfEvSCRNzzKFUlnReUNgmj5zAj7GZAKFULtEZizlIsX94nHRAHwzDek6urvmmd9q6FUFjUtYPEk75uYp4ppkextbW1KXmdmJce1lkTeVigU7+7Pk7CjR7eDz3wdNE2AvT0FBPEEipsm0RqKgUTILvEYM+nZIdfAB9dOPKAd3kFiuFvzdXKRnnsfKdifnA1hexusIP75G7baI9TM0m+RoNJQpcX6A1Kf4XkwEyJYoJylid3l8D61PUGtQaachoZE+5cY1KLaBYqUxFzvD/j+b1nYutFVL/HgXN7pGOH6UbHItWRaLLdH6kOr4IYMwR4pJkom1CYhhRjN7gsaTVITbn6IQpKTYuIr4DZD+ylTGJE/B69eLrTz0hQTZx+xc6FLSu8MjMakGLMQM8jigzPB2Itm1Coo2LM6RbItNXrRvX0Uct7TC1p7KSJ+3+hH4Idq7xGh0m9GVP2bx5OcsH/wd9eHPkPo+RVzi0JRh3zQUoaaUSL3Yp3r2AeXRR7jLbxClv4oW7ibdbwYDSATMAnobSLmRVCAowSwLbmJWPFSJzxEXtBHU6Fp40drapkVuIuBeuBr74nNC1hDD7ht0MdYJuUAEi/l8ECEG1+UwpusmEMSoaTALuNY4KmY7cDn7k164Wvq9nrouOADf5OOilfzcR8w+/OupXSvDnEAkJjNZiDOqo/eZH/0a4RCnATPF2ihWETCHs+w1T0PjGhqXPeYtT4SmKcks/15i/rO1v2/R5TQVxmQsJAGjgWzX4szhzBAakAonDc3pI6aP38Ga/cTMB0yanDm3RmLLrw5iR0RLi+GU/CYUFJvX0fISjRUJ1sxWxS4GmukBYfkUpc4M8VW2IPN9Fgd3cdm/PYWhJiJg0E2G2zeQYgxrZL8uda4jRbZBRSk7If2x5KS3Aj++RG98E7MBEtIzTm+j4eIp8+NHybFQIjG2K4CA1afUp09w4TT9vjtehMiI3tYt1G2gUpwLxtNVxKslYmFXGS03UaKoE7zUOKuyU11AtKKUKZ55zlUoaOhh0gN6XX/usmgxWSHka1LkhV+fd0SqRYQ6Eyt74G7C8Ef0X/tf2Pju/8rwtf/Asvc6dRjgo+CzBLMl+lmMzE/uM93/EA1zvISkLVDWEgC+fjg23QsZryoHuOEmjRSJvyDJJrmd4GNskOUJLOe5AFfpPtGWW+Pz+xNz8c22wl/hMHW5iK/eC0XwOVy7ybyJmCKpY5NSCi3lZERJZ0pCpAQVlxMsLU9rkhMML07ni8cFAvC1gv+JUdwS3TLO3B3sqUAFGhwKzRHL/X/GlvdxWqWbOqaAFbMaDZIDclIkbLSaRg3Do9rCwV+u2XWAs4hntb82bVcDRTIBsoKokSCBoA4xo4ynNEe/guOPkd07NDGirnUf0ufBzJwAp20D0HYe0sONb+KGezTTEsc8Ac4miAXq5QHh9DPYXiBsrQppCMSTh8jpfUqpaOEBZ4GaHta7gt+6kSR2pp0WQSxB/baWhprWA5yx8E2mLwXit3HjWxibeDsCtSxXDxSyYDl7Slwe4IY3O0hYraaZP6WZPqZklhAASwgNpkixg7bRxOaIeq4gdQrKNKq37oKdXJEGiYeIPcA5w9hMKoN6DlRgA0R2gcs0UXFdoJJlOUAuWGavVGRbr36Jvit8hk/DqRvgrhQM+j0sKsuP/x/i8iOITdLaqxFNcOrQ+inzZx8xWj5Fi0myllbXhQfJ1ziNdesABGI+tlyJ29hl4YZJrirJF8JJO5HX2PIpYfYMt50SA/NVt0K2Ms6VzKPrJJEV92r7wjZeuvNEyCmKoigBL2l1GNVwtoTZUyzMkbJAesO8+uojoYdQpFjsDgps+QC/KXPhggNw8bhoAH5rTUBX9PIcRmsuk+FfBNSW2PQ+dvQenqeoVFgUJHrUCZGASIHEfgas6+wdnzz5g7iXgrEkT4Ixad9oTGhiSaTAonYHkXZBQonE12fOfPYhyye/pD/5IVLudgSoL0LUWgJTqrQlrreH37hBfTAmxEN8WoGjClof0hx9CldPoZeep4pBtWR5+Cl++QhPnbX9qZkxHeHGt5DxNUxHRGsFfytQfZ3C9dw9r5YVDQpujG7cQXt7MLtHJKafFWscS3R5QDN9hNt8G9N+hooXVCcPYP40HcwSV+ExePzoKm50E2QjcT8UxGIX1bwOJ5tpNqqxtH7AUI5ZHP6K+slP8UypbAMnFS7OKXAEt41sfZfy8o8RGXde9qtQm/T6nWgXDvWSY3OiHwafGypJhV2gUUVti3LjBwxfa2iOj5g9eEQZF4gmlClETShEPGV5+hnN/CHl8CowXu29f/sUgN94D4CB61FsX8PKLWKdX1ZGYiwzIWz5jObkM1yY4srNjJOlC8jZSmUj3T7DvtqR0U3sMQdtdXIRVCKNpOvDVUfMH/0Dx49+Tm9c0Nvcoxhew5WXwW/j/Dau2MK0XFuxXBS7i8dFA/BNtqPnbu40CSeWMXhRNB6z3H+P5vh9PIfAEjGH5imjUSPKCGMr7WUzZN9IKkzO5KUkP2qWfPhzfHAlDQ0ZcYgBZzO8HOKY56jbItsUL6nqh0z336G8+imut0Vt/oxcrZuyW7hdknypPXq8WEqkK3aRjWuEckKzVJw1uKzNd+GEeHwP6mOsF5OBj0SoT6kP7+GbfZQqfU/NUQl+jJ/cQnqXiPQyoa2VPcpZhZ2d+2QkkCKCU/EVHeEmr6GDPeKsAKvyOj7JMKU+pD68S29virodojW4MKM+voctD7J8MObXrUQZUG5cw/Wv5QlNO/WHYki09VEfRFPgkCUoWGmQcMJy/1ccv/ufKJtHLKxH3zdonCGxx0x3GN759+xOXseVfcTnlkeEKEqTX7aq5JyDl5ucQ+arOJQ0VhoiNV5rgpFcDm2bcvP7DK59xNHxz9HlMd7qnD2hoBEf5oT6gGb+iDJWXfjQWtDBN7GZS5esKmiJbl6HwRXirIdSZYtjJRDxLmL1AfXRXcrFI7SYIKQVjqitampsh/68XnrVl2JtDgP5PW5FPJbvp1by20C1z+zhTwkP/itznXLkx5TFJUaDK/Q2rxCGr+G2f0C5/QOk2Ejui7gv2NpecAAuHhcNwG+p9OsLkCbNp0WDZp17rB4zf/IOrtrHq4F5XPQQlcb1mcuEYvuPKUbfATfCxCVUV5MEzL0krNsm5mElEFGdUaJoKOg1U+qDdzg5/u+JZS8COsCaBpWIt1NOTz9mefou/clruOLK6gaSLvQWJy2SENcgaLqT0nREuXWDU7+Nq0ss1FmHnaDNevaEUKdYXqSEFmI/eUhp00xQTAyAgCP4bfo7dzA3pknbbpIOLyTkZS0rcJ0SmSyN8y66PbilxA+v4sfXiIdjLExT49IezvUpdnwPlsdQ5MTF5pR4fA+NU0QVi+0M5wl+Qm/zOlJsAuWK1Ehr35xbE+36lQ616LyWBbwaw2ZKv37MwDxlWCLxNAUt+ROYfwTNU3x5hSomWaTgVzyStW//MkeedQutiMd3cbktx8MbBFOCFeA28VfewD28SfPkLj4uE39FDGKFp6GOp9jyGcQanGY5ZZbIvgJ57pUnbRSjB4M9ZHSN+tmIHgBVfu+EaBXOauqTT2kW9yh6r+HdkMblPb0KNHlKx2XMQPlqYIbmazVdl7FVeVjKxVAzjApbPiAef8BG8xkqU5aNRxefEo+F02clJ+Ud/NUnXN/YRcpk4d1EyyjQBfR98bhoAL7myb+lNcVMxFuNoaKZphaXhOOPaI4/YhBnKefdFGeOiCNYSVVcZXT7x4xu/DkUW0l+Fl0ygNH4FQ6aMhe+4zRdhB4yf0p9b4NnH36EVAuKEDOR0IMEPAGpHrJ49kv6l/8NrricEwYTLNoWGDPJkOiqwEl29DMTopb40WUYXsIWfYx5glXNEGmIi2eE+RPc5gxUkbignj7Alk/R7B1gKI0o4nvY4BJ+fB3TAVFS1p9Zu0s9x09Yk5utsuizfXFei4jfwG/sURebSHwGVqEIDQo2R+aPoDleGTQtnuKnn9GwTKuO2M5pBda7hJ9cxfw4kc8SOWCNOBa7gi9n9NuJKWgiCCW9ckzwfYoq4K2mCHOUJcGMwqCaP4DlM7Rf4bQluqUgJMeaFfKXHqRs7Upec1Fo0wNxYA4f83NVBSmRwS7FcJclPYTT9NosO1CKIaEiNrPE4XDnsO9vEJRrGzR12/Qmt6j8ZVxT4agSKqOGWYPHWM7vEQ7epxj9MbCJuAaRSIyG0stviDubiPmKz60F/yUThY0W6bOk/KDBMWN++BG2uEfJDLUGh+FsDiyoAsxqj+MY0TZd0xPFoSIZUfjczuj3/Oi94ABcNAC/E1BUsoA1C6lImnSe/EZEwhKpD1g++iU2/xSoVhI+aRAHlRlufJ3e9hswuE7ULczKBMtra+by8uOPETArgYDICImSGovxJu7SZ+ij68TqARrnSW6nLkPxDheOmO3/ktHNTyh7NzE3pMkae4ioKTGBxaAJwjey218Lv6vCYJNi+ybxYAxyQrQEias1xOaA+ugzir1johUQTgknn0JzCBIzByLt14OOcBvX8YM9THq50UplXdvI4Y4FsFYEsktgcqLLkkxRIhEnfYrNG5z2LtOr74PNEupgiYmvs4ewfIbEGWYNzclDbP4QpcI6JzmloUSHV/HDPUyL9LwtMSc05yC0naF1RK10U7W1JAigBX6wS+xvU1UeiVPEmizjLAghEmYHxKMn+I05ykYi3lk2ikojZCpsyEsjn65VkcT0BIOmgqIxNXqO9FcWFdUxpd+glrYwJo+H1mUPhBibVVRlywL4pnoAW/1fwKO6yWDnLZa9W9ThKcqCECMWDa/ZEbJ6wuzRLygv/0+ITLBGUk+MX92D9vLv63ONSetQ3CEB2b47N9hiKTqb6gGLx+9B85Baa5x5hBJizENEicplNjdeR3QH4jA10hcCgIvHb/lxIQP8grs6ef+EzOBPHX0i4C2w2X2Wj9/FhWeJMJWLZ0AIOT62P3mbYvw6QTYJNsSsj1gfif1UxGX00l8iY1T7qI4QNkEm4MeYTpDJm5Tb36V2VwjaJyIEjEbSZF8S0Oldwv4voHkIlvfxucCnWpPtVi0JC8kyv0RmShBnLCYUG7eJTDCKDBUnwp+GGcvTB1g8SFNN9Yx4/CkaTvIh1n4/T+0n+M0baLmLUOBiRhsySpDFaJ0k8/wJfUYi2VknlxSb14nDawSGWPLZxYg4aQjVU8JiH7FTnJ2mBqB6ilqVjJREESmIOkZGN6C3nb0fFHUOjYraSguYOV7d4dyZyaQsJKIWyHCHZrjNXD2NVjQuULs0D6o4WB6x2P8AmmeJP2AZ0Ygp8Cj5Inx5Itg6r6STTnbFM10T1nZ1OZdAKFL7UkeIYY0T0voLOExysVpzHOg6n28SoAMiDpMRfnIHv/k6DWnFhvPdqgagsCnx6EPis18gso9q0+U/rLSuzy9OXvV56Rry4lr9vjOEGXBAvf8OzcGv8TKn0ZpKmiTl1UBQYSlDZHgrDQ5ug5TTkImW8Us8gd/rweuCA3DRAPwOoVFRsmZbGkSygYc6xKbEg/fh5C6FzZMvgAmII4ijlgLpX2Gw9T2suAVMcPTw5lM+O2fz99b4SGe+7NyvrVtPtAW5D1YSRWi0jwxu0Lv0Q0Jxi4qSoJIIh05pouFjpF8fUT/6Jbb4GJgndb04PJL14oGWy2xZCqem2dQkFSaTAeX4Oq7cIVqZdvqWCrVaRZg/waqnCRmZPUWm91HmuWAmhryZI5Rb+Ml1cJsQXZqeLfEDEky9QgHaSS2yMnIRS8S4RI7L74s4ZLCL27yF6SjprE2SGoEKwgnh5DHEQyweUU+fIPEU0aaD9EMUxG/R23odyq1EyGuz/yypPFZ5DWed4FZ1uhUzFlBs4Tb2qNyQqLFj90cxvEAvzFgcvINNP8keCtldr0M7WsF9+IKcgbNNQOvFcJY80K53MoGyG10dVHOsOkJZ0hJB03utKY9B+mgxAafZQ2JNxvrNeABlDknM0cl9pHeF/qU3Mb9FiEJoQyMsZQYUFvDzh8we/B3UdxFpsrGOYNI8937G5wyeX+75pfcluVNq26ASEDeF6h71/b/Hz+8nHwDNKJYtEa1oMJa6xWD3LWTjBmhxZil5Ue4uHhcNwDfZkEI6JGWZyDuS4d7lEbPH7+Kqpzir8iFS46gxaahE8JM9ejtvEXWTGk8Q19UFk2Q7Yp3Z0Jf7AojWWvUk5ntAaCSwFKViSLnxLfqjW2l/rDWiTbZqTVnwvaamOfqQuP8OxMXa98+FltDt35NDmaY1QytrApAexfgKg9FlkN5K+24RsYaweIZNn4AtaE73seVjxJbEXFFcPiDdYJfeZA+TQTZBylpncRmclpX/0poiwNrR25I9isv2qCmnXqEY09++gbgRIj6F9qiBLTGW1Kf7WHNEXDxjMd3HJOXGpyUCNFEoBzsMtm+CT1NY5z0Q82ifPHDPNQAxweNdmI+glCATNjdv490lNPbxYYCGPp7Erh/aFJ39msWjnyeCIg0mDaZhdb0INK9QnIxAkCaNkJpyGxyGRpeaurzugorm9BHL+QNElt1gnyh1yZrZXJ9isA2uwKxZQwG+KXC6NdrJiFBUkDH9S68z2NxD1Kf8hm6gTCmHvjllevgLTh79EyxP6ch60rCe15AMtb4KMhFSk0lOsmwbjVhj8YD5o18wf/JLfH2Ej4aPjp4VFEFwpsQ4wPVuM7z8fbS4AlJ0bpUisXPe/I37kd/3qetVdkIXj4sG4Ot4tDynmHXhGgzXzLHpXZbH7+PiDImWmMcKMfu1N7KFTl5L2nbpp2kMy4ewYCorzbClomEWu1+/6M/Sr1cXfGxlRgJKpEAIsY8Mb+F27tD0NiEqLkSkCUkO54wiRorlE+ZP3oWwj0g2v2knzuxcKLguH8By8cAswd/0YXAZmdyg0WGCVDUmYqMFWB7AyWOojwnTJ8TwFKgTlJnj2RsdwPA1pL/XlRmzFfZAC1OvjZfdJJTrvGlcuRrnNyNZ5Q7pDW9g5Q5BB1h+LRYakDnV8gCrj7DZI8Liade8qTUEgcoPsfFlpL8LsZdalsz/WD0n6zgAZ6czXVvVJ1aAyRDduI0bXMcYI1bgIRlH2RxnC3z1iNOHPyecvI+GwwTU5ybAZEU4zIuo5HHwhUegdfa0pjE5Q1LnRZVlx0pLu+n6IfXBBzSnD5FYr9W13BbKgOgnuP4maC8nNNo3ewx3DkttEylgI2TjDsXuW8TeVSwWqDm8uS4VsKczdPkxR/f/lvrkXYpwhDfL6yNZuVXmK/H5WTt+Dj73oubEzvyVSIOGQ+LsE44//TuYfoC3E5wYFnL8VwQoaXQbP3mdYvMNTCaYubVClxCbdcRiXRvT9qVy7s/JqFqLvlnO53AWuyvEJIlNV+6b5+ySv+jrTEGOtLRiI5yLzEqD0lm3RFb31Lnv9fn9zopfsfp3etEeXDQAv72DJunaBTVPlB7CALWIhkcsn/wMnX+cYmlFkWiYeipThBHSe43R1T+CYoyJUVIhVPnoTuiri8m6N+2cv+QX0g5y6SbLw5cLUJjgpCT4Tfzet5gPbhFkTBkLelGI1NSSbHh7zSnN0/eJx79CZZ/GTmna12JlUg6Y4GL2SNeAaQ0aUfOI9cBtIpffYu63cXgaCyT7+ga3PEKO7xGrfRan91g2h6hEXFRcUEyUutyh3PkD8FdSVoBCiDEl7VmDUmNS5xt9DQ3IKb6NQi0NQULXGEQgeIfFIeXwNWTjJgsdIprWBE4cEmfE5QG22IfDuzB/jLoaQoNaJIhjWm7B1i1wE7AeYr3MA6mI2mAugKaDTEhyOt8W/OS9i8naLKolMr7B8Or3mMomjYHEJdgC8RAsUkiFHb/P8Sd/BdMPcXGa3OxYIszxMRH6IkZDzHbUMR+w9sLDz3KanJrLwTRNvrxTJ2Y+Em2O8gw7+BmLB3+HXyRzJxVNEcQ5FbLRCcXkOr6/jVlJ1LI7iO0bCwNOq4jWETNd/gXmr1He+AnV+NuYbOAanxw4VRLrP54yCE+Qg3/g+Nf/O/Ho50h1ANFl7k4qSetAu517Jz+vAbBMDrXOZsinllCT3TbxEOYfc/LuXxH3/46+e4bTGWZLcNDEgKhjHvqE/k0G17+HDi9h2kuFO0p3/dv5XqgroO2Qkrk8nWBGUFziImRSakVM6E0MJF0CNNRJObLqaV9pELc2rjlbpaf/xZVRohmwhPbnnWlK2sKeVq+rhmTF0UyvT882ROefrMQ1bodeLE8uGoBXhf6lTWeFdsdPxBZPqA4/IdZPQaocapOCXVQ8DX2KjVu48U3QwcpspPPzzweIyVe+MEXyrheFaMQYUd+jP7lFb/IWlQ2I4rNlrRE1pmIel9j8KdNH70F9kKxfDUJouuz0bn285kpntIBEkhe6jT38aI+Yw2xCSMeUhhk2fwynH9IsHgJVuiejoaI00SG9bYZbN8AN8nAriLrVe98x7O25D2d1JLexyfns0DbAqECKMYPNa0QZERslREOcSy541QGc3EVO7iLhmGAxlXJxiR1e7tKfXEe0D1EJHfiyFpcoZw8WWS2Bz8S3pjtNwU/oX/4OfvQmlY5onCNQEKVH9B51Db75jOqz/0Z1978gB+8gzRxCicUBUQogyUx9/tIoaLTV6qT7avl96zkSBdH6NDagoUeDSymOMkeOPmJ5/2+ZH/6CWByAj1hM6QQx1DRSMpMdhpdeh944OefE7rzOPhDf1L0paTI2OpTIpMRtfovx1R9Rl1cJ3hOlJlYV3nlQpYdjsNinefC3nH70nwjH/x/Eh6hbIBIJ0Vj3BFy/zqzTotjar1cFORErfeJ7mGIWkrWwHBMXHzL75L8wu/ff6IXPUppl4yitjw8OrCF4mLktdPtblJe+hxWbXUFflVbN3Bh5uUnXzp9qioiH6HKBTbkl7UVrXUNhXXFuv+Ln/LpTQZh2nBw1j8NnS+3V84h4Aj5Jbs+1WC884+xsA/CyM75dFP+LBuCV11F5rxdZEmIFtqQ5vsf88DOIs1TYNIBFvIFQUPkJ/d3X0cHlNSKbS1M1uqZl96/cANgZzXKrY45p32+GlpfZ2P4udbFDpZ4GgZCKQ+MjQQPSnDJ9+AF2/IReyiZEJObDPK8cOtRVVkx7sWRkZIobXqY/vkbQAqEHQXEaUZbUswfY0a8Iy/t4ac1QBHGORoYUo8v40SaWZZYgiOoq3ObzOvf1aQC38qDv7HljN3WXWzdQv4XLiteQGfsaDuDwA+Lxr/GcYKKY82nnGj29/h7F5GZy/8tKBG2Dm7KGfkUClLMpjmeWFQkJCFZj9HDj15ns/iFLv8fCDQgMaSioSaHIPY7pz99n/uv/g+WHf4Ud/BqNSzR7EFiyj0gSvlYxwVpnxtqaqG2KuvBEwSQnSOKIZkicwunHVJ/8DbPPfkpPP8P8lNqWxNDgqEFgHofE8R3K3TfAjxFTNK4fIQG+QpDOyzfnuanRGlydPoriMr29HyLb3+VYx1jh01psaSlkKTr61tBf3mN+/685+uB/ww7/BqoPUY7x2eo7th5PrHNPJDlD4gmWfm1nmnAykpDWP6pLhH3s6OcsPvorTj/+P+k1H1HqnCZEhCEaB/haKFzBnIJm/AYbt36Mjl4jWn+1CtOYUTD5gmJmn39WaBsy3uTwLpfDxzJZsc0tYI13urbUCJ+zBFkxMnLjGVNyISFfn1GSfDXm+A8UKHIE8oue8kWx/iYfFz4AX9giOaLUidnrmrTT3n8fWzyk1Bq1OhVKETwFS+tjoxv4y2+C2wEr8FrkaazNbE+QqtkrXOxnip+AhOzv7rO9a4YjZZfezh/gJq+xePaAgSa73miBRhXvBW8L3PQTlk8/Yrj5h8RGcb5MgUUxBQKJKbjcwLR1ViNoijL1uoMfX2PqJhRN638fUFsQpg+ITyO2uIfL+vkkLxQaN2E8uZnjXH1OZltDRES73TrnE9BkfdCWNddGWTv0FNEBMrmB619FTj9AikiwmiiCxmfE/XeIiyM8UwJCFEc0h8UB/eE1tL8HOkqoQPu0RHMj0/68IoOe6YyVFoK09LxUIpEmrQNkA9xNetd/gh18xPz0KaPmBG91ahRCwItRMmO5/IDTew1anTK6dRd/6Xu4wQ64cUrziysUonWvs2zNK2uadNptrCTYP+Z8aWcBF0+Ix+/T3P1rTj/5zzD9Bf3eSS4yvnN3xA1Z+mtsXP8RsvEGMMhrhXVfpm9y29qiMCvHPRMlsoHbepvJG/+WZ8sHzI+nTHRBE41AL6F1LBhpjV98SHX/hKPlPsPX/oxi7ydo/42kRjHNYRuKaU6dbGWpkotwzJoQi5101ovkhM4lrn4Mh7+kef8/s/jsv9Nr7qLuFHOgziNa0lQRp47aSuZuj+H1n+Cv/QnB7xEo18KV0hv9qu+wGcQQIS7RuCTGgIU+0jhEhKKVg1pGJS2vJl9iPkx5VTVdkFjM3AWrcjNfpEY/5hyN4FYV6KLmXzQAv4uPFGSTbgRvHtUlYXqX+ZP3KJtDvEvmHuS+x/6KAAAgAElEQVT8dwlGdEP81uu48c3EbMd1hb9D9OTc71+5CbBVYpwJ0WKG5ATYQEav0bv0LU6Pf0U/LFFTLDZpBQA4W9KrH1M9fp/BtUdI7wZIv9vjrR8Alp+wkIJukrFQCUxwk5vI4DLh9BSvECwkNcTyCYtnR7hqluSFGaquiVjvMsXWnZT+p2W6FPOeMhX39a2+PLfjkwQsQmtaxKoQdc529NHBVfqT2zT7AzwJ6lVRpDlleTzHxxqvKavdgNoU3BbDzduo2wXtdwh+u5CUc5/D2anMuuthXeiZ0M4esI3b/DaD63/E8d27xNmHaKhwuMRYz8VadU6sP2D28JDZ/GOGz77LeO+7FNtvQ3E1FWHK1Azk6GCTFYTb9kxKk9UNdXLzswa1GXb6Kc3Bu0zv/ZRq/58oqo8YFnOszuFV4og0LK1grpfo7fyA8d4fIeVVjH6GkVe2fCJfMUjnZWHLtrkxl3+2YuIwv03v6o8YHz/kdH6Cbz7C+yVBY4riDguIwkBKfHzK6eO/53B+RO/pXUZXf4Tf+Q6Ul1OzJoOumYpRcrCUri0Ach6ERbAGtQVqx8TZPeb3/57F/b/FH/ycQfMQ0SUh50YYxiIu8N4TKTnlEn73Txjd/LdYeYMo/bSGsrWVEvYl5mN5MQCugmgF8QjhiEJLiAtwBVgBsUp7+TM7PreWPbBOxLUX/Mx239SmVmRJrkVgmdaFMsLcgGDpv/NOP0fNekHbu2gAflcagGioI3ezDuwxy8N3CCcf0bMpGtp0Ts3e9h6KHdzuW8jgEo30UhK4nUXrz80xX2EKyhtLS3CaqifQpMKtHtwmvcvf5fje3xKmjyk0T6VteZUK3xywOPyAcPge/voe0SRxjkTOlDbLDH3afa/FtEeUMW7jJnF4hfr0YwoJiEW8GCEsiYsZfZGkh86FOTiF4RVk83YO2En+ytEMVeGs2a88vxBcc8XXc8U3hgDO52OkRPwuxdYtmnKLGA9QaRBKxGq8LbNs0dEYKb3RFbjBZfzkVi4CrXRzZfL6/Jkbu98YdKuLllEt2WveTBAtobjExu0/oVp8SnP3kFAv0vsWHYYSvFJT4f2UscypjvaZn76HPfsZbvM7+J3v09u4gR9eAreF6ASRAZI5AqkLCECd7I6ZpXVVXdNM91kc/ppm/x9oDv+JMH8fzzGqjmAFaj2KmFEDLan8Jovem2zf+VP85A2QSbrORdd7rrWJ/Gtey52DqA2f0RYy7czhypuMb/6PhNmU6b2KItwFZhRUOK9YE9InZoGRVlQn71LP7nO4/8+U29+l3Po+5dbb6PAy9IaI7+GkQMVla2e6oi9NBWEJzYL6+B7Vs3ep9n9OPHkHXdzFhTkqEcUjOOrQJPTMVSzFCLJL3Pg+m2/8JX77BzRsJtNnS02urfk3v2pKgdiCevoZy8c/wwb7RPNoo4nc7Dzm6oSOhOz0qJaNul5uXxrFdydGGnoSD8JkSDG8hZ/cTo6aNMkyPVg6Qy4eFw3A7yT6r0KINRrTrszCY6b7P8fVj/BWIyao+sTFjkqkj/WvMth9G3ObScveRFTdueLvusjQV6FhrCRL9TlI3GUpXZpoXdHHjd9gsPUt4uxXhDhDVCiiYtnL3dsCZh/SPP0l/tIPYLCLWYrj0TyAd0SoNcO3BOs5YIAbXsVt3KDe90RruonQEZPkT1tXNkcEKi0oNm4hg+tAktgJqQBj52l17gUNgK128ueqg4pbI2gpMEa3bhOHe8j0EzQ0iGbfgBARScZGhUCMDdH3kOEV3PgqpiM6M5z1TELhBRO/rc2na/tNafkZmVwmgnN93PA1dt/8nzmZLpk9/htK+5Seq7HgwQpUPI4CFyNlqCE8JT47ZnH4CadP/hHXv0xvdIlysEdvcBnX24FimMh52ZOCuMDqGaE6oJ7u08yOqU+ewOkDyuoJw3iYVA2uT41RBaPXFXZlaQNmxWuMbvwpvSs/hOIKTeMRn6SIqu1qWr+6j/5LXfxZQispsVFjVo1IxMQRbQMdvc3mGxUHNqe6P2McP8FMWYpDXMQjxHpJZ7PTLGmOT6hO79E8/Edmm9ew8SV6o236+f0Vv5GaLItgS2iOqRZPmE2fEmbHyOE+dvIAwj28OwbmiKbhwaJmZM7nfteorWQxeoudt/+Ccu/fEHULkV5SN8RkUBSlXfa5br32fKMlnzs9C5GBHcKzn3F6uk+lEyKCsxR/lKSDyehMo2bDp5Q6qi/lypcluGatQSYRoTElFDe5/PZ/pDfYQcodQhqLcu+cVD9noq5eZM6InCOa2gVwcNEAfI3nTN6hWktuCQ3h6GOWB+8x4QiH5V1XzHr0Ho1uUmzfQQbXCNJPGXVnLFnjisDE+uT48k1AC0GuUvDab6kZrm5AFB1cZ7D1FrNHu0g8xZuloux8Or1DTcE+y2f/TDn/DPo3EUZ5txxZN5Kzc2Bgt8dwE3R4nVhMsOZxMpizBMVLTAWpkaZzSQzlNv3N66huJxh7newnX/b1y/Ocu9yYtFOIqQADdHgFNq4RZ33KTNZKvY0S8IhZOnRVWcqYYnIdii1MylzX1n3+nm8EhPOhxXL2mZqm/MC8RjDxiO3iRt9j8rZxIHB8UDGKjyitSszw0EATcSq4mBQcYnN8nLI4eUiYloSDEXPdYOY3EDfGpMxNT6JmmVVYWCLNFB+muLDA2wIfl3gLed2Q9rKFCuKSNDVEqBhSFTfpX/8Jk7f+HOnfhLrEFT7JD2V1j6T+6Bt0A8xOf7YGjHfkTFGCOCh30O3vMH7thFloaB7834g8JtopQk2hiubCoyL0iBSa1iNx+Rn1/j9THwyY65iFm4BOEB2DFFgMCTKPJxCOsXiMhBm9AC7UUMxBa0IM6VrUMmWK1DVlWbAIjoVsItvfZev1/0i59yMo94ixSLdT1I7UG6XJDh/JTbC7xs5EMP9mc6AiLtBwH6mPcVKCGpr5C5adTpGYjKHMZwTCzt9hX3geuTz1RwlZReCobMCiqHD1UV4JaIcmtkgiz7fyL7MHvXhcNABfA9QoLZlaUqZ8OKDe/wCZ3QXmeWrNtrimBBlQFXts7H0b618hUiZYvk3wECAzcCP6hXze3wzprcti3GoisrVWQvJUWuxS7r7NYvQa9XQfFxs0RHBKFQ0ngpMZs8P3WD59j/7G24jrd8SyF6OOq049iqB+SLl5m3nvMk1zl4KGYAEVnyNt065EVGgoieUexdZtkDFQfLmbWZ7bAr9wSiCjF90OXHvIYBfduk3zeALyDLJWIMmSFVVL/vuUBLfNcPd1KDbOTfu2atTOrXNeeAyfsd3VLjjItG0CR0hRopf6TAqYf9hw/OT/ZWIPKG1OGVMzE9Bk5UyDM8NbZEMiMdZEZgSeJf9CcWntkxGgjq9gAYmWXOfQdD2KEpwRtUmFLARKc4CnCUqUEaG8zcatf0fvrb+A8ZtE2USdg1DnPbb+y57BbRPQdaerFMcUl6W4Ypve5T/B64Qp20wf/l/05X1K5sR6CXFAIy43uk2aeLO5TD8EhnWFcUzgQbZBXuc9WOZUZBKg5OQBFxPsHUKOJFbqEFEzei6FFJntIpd+zOjNP2d4/X/A+jeI0su3bewst8/s1M8jYV+6KGZbbRMcTXp9MSb1f17XJbWPdUqluK6s+dJnUmr2xSKmDaoZ5jfFZZIrWf7XtGqjlmck54+W1X2XvAK+hNPkRT9w0QD8tneNIYbkbCdTmH5E9eh9+s0JSENDwIlPjH5TmtiH4W10+y2iS3tSbW361tw12rndvYC5/nLPT7qDwTg7pqcC2AbkeHTjFrL9barZ+/Q4wtQwMwKCOoVY4+oDZo9+Tv/aH6LDHULs5R2AcdaApLXgs7XU5ILe+Bbav0598isKTpOSwAnJd2ZVMJpYQu86bng9Q+z6OTievBDhE3StK1nTLZ0RbUELKkYD5ye4jTssdZcQHuXI4YCoZfOXFJTUWJ9YXsZNboEbrcTgslb8c3G1/Gerz0EywrPGxO/cytq8+WwL2zKlpYRyk2L3j7mkJbPhNRb3/isW3mHIAo0JRg2OdGAbOBMkuC4lUCWpqqPVuRltJypd8Tgy5GwGwVxqKqzAzOHVIbIkmiMypnI7MLxD//ZP6N38MWx+j4YtgnmKNJTiomCa3o8o4Oxf4hBu9+Kt6Yt0aJhYpLEIVuDcFdzOiPG3N3HjCaeP/pr6+GcMdEYpDosu8x2MmIlwSg/LZjOihtdIlBqzpstNSJwWzVr69LODWEKdLCkznJaoOTSCU2UZByz0Fm7vJ2y9/hcUl/6Q6HcJ1ods8rXym+acK2bb+K5d+2YvWEe9qFfyHZfAxTWDHGPNyjkt1czaJrE12hGeJwGut7ztoaOYapJQKt394HKTJBZW/hToStmo50yX7FyP97mvzl4hOOjicdEAvBQK0B4sp1RH7xAOPqHfVMSCTDcyosWk2ZUh/Z03YXANo0SiWxHU2ml8VTHzAPNVYdMcztPNp/lXMRnatMoALXcpdr7D/PHfEOxTCg/BNPMXFmBQasP04F04/ADpfQvR8rn7a3VDZoZvhsYjHlfu0RvdpHo8ITLNoUkhm4QkeDYYRDeiN7mNFtsJRTkjI7MvbOstTxsrWN7W9o+6RkpLrVa0gNGjHF2nGuzR1B8SSS6DTkKHBiBKLUPK8VVcb49ILyshpBVS58l3/bnmFYzlJkDkbEMjCYpf91AQ0c6yWCRmHvkOvc0/pezvsehfYnp/l9PjD/HLIzRWOKlAIk2sidFRaI+W9tZq/5WVTlzOLSvI6Y6IYM7yO5bQklALogNq2WCpVyl2vsPmnR+jV/8YihuYbGPaJ5oRrKHQ5Eznsn1uaxij6wjJ13pTxg6ik275Ypm4Zvl9FZz59LrNJVOozW8xHA8pNi9xfPcS1eF7VKeP8XGJ+DpPnZq9+x2oZAe7NhooeShAbp6z4ZIQUoRv++/NUFySJVpBDI4mePCb2Pbb9K//Cf0bf4ZufBuTbRCf3rUcuGQorftvbL1DxK1gyfPTcC6qZp8vE4zCmrwvNbtt0qbi2jsgrYNow7hYly19zj0pZxqDINmZtG2QrI1Abli5CbRGmZJzHNaWi7ZW2DvXwPN72bPdgF3Y/Fw0AF8XxqiqBGuI1QGz4w/R+hgfHQsUXEyyu5BcyIr+LqMrb4GfELP7msqakoDcGmcymBqvLgOQNe7Ame8R8l7N5SndpSLhhgx332K5eYPmyS9oXCQET5SUaOdcQQygy0fMHr7HaPPPYLCRmd7xOce79PZIYpprIkCKnzDYuMHS7RCbfUwXRE0e405KRErqukF6W/S3Xgcdf86Lj2em+S/yuW8PgefGBFuZu5qUFMMrlBvXWBxvYDpF4yLxOETTYe5KGjbYmNxAix0iZdb7rznpWIssCO38f7YzWZdNrlupaE4zzLG+Wb8OAY050ZECGfQZvr5NsXWH4wd/T/3kXfTwY6x5QiHpeqQI1KHKU6d1jqfSulZa4l4jK7JY2ga4zrlOWOIsJI+KcpcZ12g2vs3w+o8YXf8BMrlF1D2wUSpK0VIIjUATI16SRM1k3Yj11fksL3tfJotln3kgku2BA0jITaCi+FTwzDA1ovVRf4Py5n9ge3yb+aN/YvHkn6hO3sM1D9BmSREdXgShIkhqXm3d3Q7fNR4mkZgbPCTB/d48Fo2oqWmM0SH+MjZ5HXa+w+jmjyiu/ADK62CbCTLXmKf9HP/sAE2wvGSRfDsyxDU58fN3TnIJjPjUqNjaFSgQvaEWcsdWdA4bkfwaW9f+9oMlveaXXZuS12pYzNdmRh8kgNQ5Uj1lSKxTGKx9Hp1bYDJdIjeuLYoY84rCuvUAfFU91UUDcPF4YW0RMwhLpidHPD1Z0iu2qQyWbpZY7kEIlKhMGEy+jWy9gclGliXZOcislYYp7isrptbyAWW9VEo3Da9qYjKrYXgNt/19Dg4/YRmPwFzS8UuFaKRWpdYNZkdT/OyIor+XCEHaec2d9eU7M2YqaB8/ukHdf52jWcDpFKxCfcya8QGL4HCD77C58UbyGzA7V+Zf+JN+AyZwjmz33DK+jRIuodwlTN7i5Mn7CAc0bFHHQKQgOqhFCf032JrcQXSc44XJr19e+O4/94f2Iq6C6/IBbO3vu2EmqxZwYDZA/HX85RG7kzcJVz+ifvQuy8NfM59+SlU9RsIRPZuhMZlTOYnt0Zibv7Wf3R6cuSAFcTTRE6SPlhNceQXGtxhd/g7Fpe8jm3eIvcvUMiTaoC2jeJWMhWTiXDYhSiFU3/QSdu1eyvVyxZRfKVVUWrvqZuWCaH3QArc9Zrxxi+HV7zHf/wXh8NcsDz6hnj9EwxEiC1ysEAtJjtciPxaxGNJ1myFvQ5JnEJoSP7Uk6Aj8Dn5wk/7OtygufR+38y0YXcP8Jma9pKJxKwRLzlz26fufN8Bazf75P44BlQZwVLrD1L1OJRMKDanY56k+ahoaNN9vZrpmQ25rlOR1Zyd5aWa9yxd261FlOBorqf11hjICIfEBrMjqiK47xcWMxZkQY4+52yP6t3C2SFHslprdSkZUxRsUjCmIWRnxQlLCOl558bhoAF7hoLGU1e7dhNGVH1JcvoULxwx8yvuO0Sf4tPEMtu8gg+sE+nk/mDrdJHE5a83mvvKZ+aKCtAY/i3RhRphiTYkUu/Sv/TsG2mfAFG0iSpEmCxZEb8ytT9AbmJYpF2ANhdPzyJ9r/dhzedQCt3OHrbf/krj4Ic5OEZujLqEkuBEuDtHRLfzG6ynoZM1cZ/WaXuSv/6KXv3q9sv5frpHCrEMWPeI28dd+SN8ZvXhEL4AETVO7C8wJMLqG2/02uOFZDba8qO2QF34c8lyhWnE9RM9PbEUK6JGYQmNUspf8Dtrbwl26hdv8A4rqAc3sE6rje4STB8jJA6imhHpK3UwhzLG4SHtWSU6LKfuhSFebCuIKfG8L39+h7O3htm7iJjcpRtdhlFQPgR6BPkaxYpdkUyZd/1z0bIvzzabV68r+uCs8bStwrgMTI6oCTSLXiWDSw6xMn/HmZUaDN7Frj+gv7hNOPqU6vEc1fYwsjpDljLqZEcMCoUIsp9jlHXriTXjU9VA/IBZj3OASg43ruMlt/MZr+NEdKK8kXpCUGQVMEt70bH3XIMoZYu/5C2o19qfVuaTiFxuQIb3LfwjDTTwneKquYILP3Niv16Y5kQCTQyKalFGNeGrrUegOuvUWuGEiTcZkqGSaCKuui/1IyE4xuM7kzl8i4Y8oZIanRmOEqCxlxLS8im7dBpfXbpEz6ZttxPq5PuDi8cLPzS6YFC8a/yNp5+okoHGBNfPk+V8vEV2FX+AKrAmI72O6Q6Sfa7B0X/9ir8LyvjIKoobYCRaOcBqRRiGkYBxcjekiz5EjYAL0EPG/8XW0398MVALCCRaOU1ZAqBIMrwJ1A76Xdsl4zI+oKVEpKbJhztfxPnXPDwOpwI6RmGRgEko6CaIsMK2Tk5xsYDLJ6X98bZ9hl4QWs2SvhYJbfUhMRCknEZiDTaE5Te9vfYzVM+JiSr08oammhHpBXS+wELsJVdSjWuCKIb3RFmV/gvY2kHICxSaUE5A+SJmc7gxEfeYpcOY6/r28i/PnL3lStKxeMASLORJXAkJKZaSZYc2M2MyQ+gCWh9SLU5bzE5pmjoVso9tyP9TjfZ/eYEyvP0H6VxC/hZYjKEaJSKojgvQIHe+D5MyYJ/S039cv/R5HoCGgWcsfmwVKBTYDydkkxJzm6UF63b86q2g5D+N9xd+bQvS5QapBm8T/iYrRQ9wGJgOgSHkUluSXSYGhyZMgNGABlQUWpmDzPP2TX08yYorOUB0gMibZUpcdN7lbhbaN1L8IQfWiAfi9bwCaHGOZ0TMIhnNFJnUnQk20gHiHEVKwSg4oWT80fycaAEuRnyqkUJ58z8YALk/hUWoka6tTGIricF+qAWhBB5OGGBMpKnX2iR0fmpiT/iTtY/MRihml+DQ9fJ0NgKVgUqfWOQ6aubRTR7KrYQp0CjG5tml+7l9vAyBp6MnRvGiTnSLy2iY6JIDGDO+3xEpN8D80ycY1JoZ6x4Y3O7OCQMtsaezT76XIjG9HyJ7+rf+7Oll9rvKvpAHouBfkqNmY9t1miORMA9ZjcCPoAmGRJMCxyVLWFPe7ipnNxVsLTEsIA6DXcWbyv0rugZoxFJOzJjv6cueE5Rjo1hwoSfqSjNGoUjOJJHSJHmYOJzl/pCXPniH1n2P5v8rf5++92rw1JJOy7LiIYrHAooA6VIVodXpOtJbrPiNX6TqPVKi0pEGf1njm8n16kuk9/dTgZCMqk/MNgHyz/hQXK4B/PfC/y5a5ZqsI0Bh1BdOpowkuK2AcJumm/l3aN0l25vLS4AhY9KjzhMxCtMI6EpBaJk3lG88kycS+fAEQlDIBcK2GPab9rDrX3X/eLBUuzsXrfp2gsUlKAwyZPCSGuEigSkVPPGIlEixJ2nK+vX3dh0ZXcNpIY0Gl6dLURRziE7wd14jSZmWaJHMqIxpXmRDnCJFmkvbAoit0ISdUdu+8ktdWeVNl7Wu3fzX389nfWXqfM3kvtuZRa/73whClj6pl+LxVXNjK4TErP6Llr1YJoLamHrBzi7rsH3KGWfIyhjuaKXCam3gF1ZQw6IoUXpan39h25vkeSD/qHHH1/PvzKn+f/yzIqv1oKbKtT4oXj/O6ipA27TQrakl+SEiZYNESiN/GBXeRYCI4czgb5tflV8X/uWPkAvu/aAC+ypHR2v+2+yUFOh1wurG8X3m/m/1unpeSCYGamb2tei9ag0mVblhJ04KEXAS0hi9p9NI2GZASxxLhjxwnFIk5jKTVsFsUJEeBimvjcr/mo7/V4mfjMe8hxDpNeIDQz6qJdZf5c5K+r702tZHRZKuoFUs7ZD8Bk2x/3EYld9Iv7T7nFXafs9pJh62L646RualtL9qYxVRtru25Qe/3Hs+TFf+mbYE0F6B1BCtFYFsnqbNc3EVyXO5zxUU7KWSLCawNxLn4JbGdZkLmyh/iVc8LW9FmMiiUSqHPMHzIDYIk6+FvsAa6dUVK60MSE5qo+bWbJU+KtplZuThmJCCCiPv/27vX7bRxKAygOiJ5/wdusOaHZFmyDS2koW1m77VmdZo2KRiQP11PyuW9rW9YX7XUa2uU8p4OS3HjfuhDAHiqd7adMVOb4rptp561n+NStweVugd93I62Di+uv/7Zp5L7B7IWL9pO4mq3j7YqPVLKb9sWmwcedww1x8tyTSmXdMltJ0WL50uKdIm3lPJl2ML/dEv4yw9sSaWtkC/90KS4Lun9spYsbYc05UjXUlLkZZoH/9Kbf94ftRRty1n0k+6WVvJ2PUky0vu6kWo7Gz/Ne8RLqQEsrTe7ZTy28DoEhPprRLRpj1RLQZ/vdfhH1aOLoy0Ojf7f2zCNXYbzEsb55NTPbthmvEsr5d3m9dOam9Zjw+vIYcR2WFLEuli2hbm01KmB8ujiyVLP2Cj1RrmWfijr+QWR+1RQpOFQoS+u1liP/a7jG2vtizVLl3bzvy5rVc02zRQlRXlLpRUBy28tICwtHJRWKzhS29pcf7sMh20djyoYq4cKAT993awBuBcASq8EVxvLpTW7eahFl4dDKW4P5/3RtQCpLVwqY/Hta5urS+3rrfGPOkRfn9nbI81SXQvRNozNG3Bi2Ha060O94LJc00f6keq+6kvKKZd1y9G2EGtJtQhKPfzlI72nXKcNvvR1WdI1/UjRr1ndNRDLZb5W0c5XbwEg97Phh5ByMuJZYu4p9q+vh1DEdRrLjTIGifyS6n6vuf1f01JXwdSJvXKp12Os4TRtQmmf95g3kq0977XFLDGPhF+2OlVTyYg0ZbR6VG5pp+zlXgvjkfdMq7CVch/aj2EP/aETHCUtsaTyxQEgl8tp8zfOFCy9eubWlo47SPLwPA6zUOu5W3cz0zKfB2oRoBGApxqNViCj9Jm8sYVoDfUvd0L/9LsvegrvDUVP6W2v+NTreXxL13aYaPTiMFGGG3/vhdSQsfTz6OKJQiCPPvvctortNpBF3l+h9qpevvwxTcNMU1XI4RGW7fHnFlS2d2IZ5qdiDgFTGCitRzuMTsVYRmcYihhXUsV3ajHbwTbju22a4WnXaI3wUYYzDuKQEvolLrtLFcOwYTnphfaPwrht8onyvuNIzzjlEPsCPtsD3P7Ns5RQTv7/sT+vI1ZjyJjfR6WtK4nds0i7TtO8xGA7+S/aIUklbrWn+2PE3fGNAHyiYV57s1udt7wNdY27oo/rfP7aZ9SHBMfidmnu9H1uBnyYOF52n+YoPd4vfXC6LraMV8y1T+3DjQtQ7s0pfs1rsrRzBbdbU9xYiDU+ro/hC7duJGV4gy43RqZ2By/9/CTmf3cwb6tU3z/RZRi7qiNF61fqGXz5cJ3GKZfjtW57C4bviN5iHG6gnwpay823x/osxkWIOb3XRb5fnLGW9COV9DG9r+aIn3ePeiyUVtL+ZM9lGt7aEm4+7aDErhIIAsCnWo3dgH7E3K7+U8GzNgfRQ8yworlH7LVCXkwDc09cspOhyDL0sqIfkPvKvva0OD7Oc1uU19/8Stpds6l7WebJ6L67rww9rXzjRjBEhHJnRd+tG9C3bkOX6ca/tFX5Y8Hnuf7ez+sclOknbqNKw8kOw6hhfn5oeivwkHaLlPobqRyCQrwkZJ9NMUy9/FLS2XTg/FyG7zxk0uVk9GCZA9rhgn639Sy/lymAe5H21s0+9je39Ik0/7JnMzdNvdpXSmk9W3sICPH0h6b0giDpkODz7mDkV/YBb/TcHvr6VyTwk386hmGaOCbL8uBrU4ZB41/5rhLfubk8xL61UsPNkjfz75bTMFADZEwd29ROpSvTz8/H47Sf/USfbdUcFiv2IkJ9BKSc1vI7vP2e+vNh0WE6C7PDd8T+78WhnTh0tiKlY0nkku5PpYxdjde2OEYAvkkv4ebwaEppXVy9ZCwAAAKVSURBVEm0Dftd0t958nQ5DF0ubVHj1t+JoUncgsFjru16RIsRZfpw5uno3leqj2taVbwepDOUVd7K/36k7aCX14w0jUe9bgOgSy9404eTT7PJrUqKW6WFZSrofDZYul+59t16TdMqyPvZoNx4+rHMAeBsdKaUw5BSGcLv+NI9F6/TjVGG49qRv6fnsaQ0raXKN1+jNZKdjdz1lazlF9rY1sEpvRjXRQAwAvBsjyHuHEq/n+P7S/v/sf/K+EHc9/fjU/9WDLOt6Tf+5M+1Qvk4xLjvPfQ/f2FvIY4N3X4HxViz/U5xhJ+M+TzyYL7jkOmd9R23yt2fDo3kdHpwxen3xiFw/f5nFfdf+lefh3MaUOfVFw89mzgZmopf/8zHtwyzRgDg94U7gP8hlRL5P+dflwAQAAAAAQAAEAAAAAEAABAAAAABAAAQAAAAAQAAEAAAAAEAABAAAAABAAAQAAAAAQAAEAAAAAEAABAAAEAAAAAEAABAAAAABAAAQAAAAAQAAEAAAAAEAABAAAAABAAAQAAAAAQAAEAAAAAEAABAAAAABAAAQAAAAAEAABAAAAABAAAQAAAAAQAAEAAAAAEAABAAAAABAAAQAAAAAQAAEAAAAAEAABAAAAABAAAQAAAAAQAAEAAAQAAAAAQAAEAAAAAEAABAAAAABAAAQAAAAAQAAEAAAAAEAABAAAAABAAAQAAAAAQAAEAAAAAEAABAAAAAAQAAEAAAAAEAABAAAAABAAAQAAAAAQAAEAAAAAEAABAAAAABAAAQAAAAAQAAEAAAAAEAABAAAAABAAAEAABAAAAABAAAQAAAAAQAAEAAAAAEAABAAAAABAAAQAAAAAQAAEAAAAAEAABAAAAABAAA4Jb/AIb/NMp2LW0NAAAAAElFTkSuQmCC;" vertex="1" parent="1">
          <mxGeometry x="530" y="419" width="102" height="102" as="geometry" />
        </mxCell>
        <mxCell id="i3zignOj5wFVNMkhwqhO-7" value="&lt;b&gt;Amazon SQS&lt;/b&gt;" style="text;html=1;strokeColor=none;fillColor=none;align=center;verticalAlign=middle;whiteSpace=wrap;rounded=0;" vertex="1" parent="1">
          <mxGeometry x="190" y="503" width="80" height="30" as="geometry" />
        </mxCell>
      </root>
    </mxGraphModel>
  </diagram>
</mxfile>
